<?xml version="1.0" encoding="utf-8"?>
<!-- Generator: Adobe Illustrator 15.0.0, SVG Export Plug-In . SVG Version: 6.00 Build 0)  -->
<!DOCTYPE svg PUBLIC "-//W3C//DTD SVG 1.1//EN" "http://www.w3.org/Graphics/SVG/1.1/DTD/svg11.dtd">
<svg version="1.1" id="Layer_1" xmlns="http://www.w3.org/2000/svg" xmlns:xlink="http://www.w3.org/1999/xlink" x="0px" y="0px"
	 width="400px" height="400px" viewBox="0 0 400 400" enable-background="new 0 0 400 400" xml:space="preserve">
<g id="Layer_2_1_" display="none">
	<rect display="inline" width="400" height="400"/>
</g>
<g id="Layer_2_copy" display="none">
	<rect x="0.5" y="-0.5" display="inline" fill="#474747" width="400" height="400"/>
</g>
<g id="Layer_4" display="none">
	<g id="_x37_C119D_1_" display="inline">
		<g id="XMLID_3_">
			<g>
				<path d="M165.956,264.041c-3.443-4.316-12.398-1.848-10.413,5.554C158.736,273.663,168.719,272.212,165.956,264.041z
					 M181.923,266.818c-0.882-6.297,1.791-16.135-1.389-20.133c-4.554,4.239-7.317,10.268-6.248,20.133
					C177.313,266.29,180.715,267.68,181.923,266.818z M195.113,203.646c13.093-40.042-51.601-31.67-40.264-0.694
					C165.185,206.395,183.693,205.423,195.113,203.646z M200.666,266.124c0.159-10.413,0.193-21.765-2.083-27.769
					c-3.429-1.985-7.421,0.701-9.719,2.082c0.972,8.623,0.743,17.703,0,26.381C192.072,268.373,198.125,267.479,200.666,266.124z
					 M216.633,266.818c0-9.025,0-18.051,0-27.074c-3.021-0.916-7.13-0.743-10.412-1.389c0,9.719,0,19.438,0,29.154
					C209.982,266.688,214.134,267.318,216.633,266.818z M213.161,232.107c1.431-7.588,0.778-19.035-6.94-20.826
					c-12.06-2.805-16.521,10.185-13.191,21.521C199.625,232.455,207.678,233.564,213.161,232.107z M229.823,267.514
					c3.407-7.023,1.382-18.994-5.554-20.134c0.416,6.526-0.867,14.752,0.691,20.134C226.58,267.514,228.205,267.514,229.823,267.514
					z M251.343,201.562c7.304-21.423-30.254-34.467-39.569-18.746c-2.715,4.582-2.607,13.912-0.691,20.828
					C221.756,205.223,243.811,207.609,251.343,201.562z M249.954,268.206c0.806-4.649-1.458-6.524-6.248-5.554
					C230.398,265.359,248.031,279.293,249.954,268.206z M288.83,257.1c1.215-11.438-7.789-26.013-13.885-41.649
					c-5.812-14.912-10.072-31.656-17.354-41.653c-10.976-15.064-41.139-19.083-55.536-4.859
					c-9.65-10.899-40.015-12.718-49.983-0.694c-11.538,18.883-20.542,43.305-29.156,64.562c-2.979,7.346-6.623,15.961-5.554,23.604
					c4.915,1.832,5.2-4.582,6.248-6.942c4.735-10.684,8.914-21.616,13.19-32.628c7.428-19.132,14.155-50.85,38.875-51.371
					c12.273-0.257,18.244,10.565,29.851,9.024c6.748-0.896,13.314-8.816,22.908-9.024c9.448-0.208,15.113,4.186,22.215,9.719
					c10.149,19.139,18.219,42.535,26.381,63.171C279.604,244.859,280.909,254.912,288.83,257.1z M269.393,135.613
					c4.729,13.1,0.459,26.762,2.776,43.735c1.624,11.892,9.304,24.511,13.884,37.487c1.764,4.991,4.367,11.892,6.942,18.744
					c2.138,5.698,7.72,13.717,7.636,18.049c-0.242,13.044-28.754,26.399-38.875,30.545c-52.746,21.591-132.503,9.379-156.89-29.851
					c9.191-21.208,15.946-43.075,24.991-65.949c1.298-3.277,3.666-5.457,4.165-8.331c2.354-13.46-1.402-25.977,0.694-36.793
					c4.679-24.13,23.929-41.396,51.371-43.735C228.663,95.884,259.07,106.984,269.393,135.613z"/>
			</g>
		</g>
	</g>
</g>
<g id="Layer_5_1_">
	<g id="wC95k9_1_">
		<g id="XMLID_2_">
			<g>
				<path fill="#FFFFFF" d="M271.419,200.5c6.751,7.938,13.474,11.706,12.899,23.25c-0.629,12.512-13.119,21.191-17.197,30.227
					c1.32,27.215-27.548,42.711-48.357,27.896c0-6.973,0-13.947,0-20.924c-4.299-9.178-11.689-1.43-18.271-8.139
					c-5.895,5.824-9.472,1.131-16.124,4.65c-2.333,5.994-0.48,16.527-1.074,24.409c-18.902,13.388-49.821,2.163-47.284-25.568
					c-11.19-12.625-29.159-41.501-6.447-54.643c0-10.461,0-20.923,0-31.385c2.276-4.892,5.853-8.391,8.596-12.788
					c41.699,0.898,84.315,0.184,126.813,0C273.236,165.212,271.525,183.726,271.419,200.5z M245.625,197.015
					c6.318-4.799,8.341-14.236,8.604-25.575c-15.41,0.771-33.677-1.548-47.291,1.159
					C219.363,181.245,226.307,195.828,245.625,197.015z M248.855,265.598c0.961-23.666-35.543,0.36-10.752,10.463
					C244.111,273.818,248.602,271.825,248.855,265.598z M229.508,223.75c1.024,7.782,7.415,4.623,12.895,5.811
					C241.193,224.287,234.448,224.994,229.508,223.75z M225.21,227.234c1.321-12.278-7.069-14.053-13.976-17.435
					c0.904,2.894,1.406,6.229,1.074,10.464C215.787,223.475,220.325,225.545,225.21,227.234z M206.938,219.1
					c1.646-2.113,1.646-9.509,0-11.621c-8.94-1.15-15.764-0.008-13.967,10.461C196.433,219.614,201.982,219.035,206.938,219.1z
					 M177.919,186.554c5.415-4.496,15.085-10.081,13.975-15.113c-14.689,0-29.378,0-44.067,0
					c-0.255,11.515,1.788,20.535,7.528,25.575C164.906,198.584,171.762,191.664,177.919,186.554z M175.77,227.234
					c7.444-2.41,15.983-3.633,13.975-16.272C181.15,212.129,175.969,216.984,175.77,227.234z M158.579,256.302
					c-20.952,9.847,16.216,32.892,12.894,6.97C170.653,256.859,164.828,253.361,158.579,256.302z M173.621,223.75
					c-5.697,0.424-11.353,0.896-13.968,4.65C163.103,229.709,172.674,228.889,173.621,223.75z"/>
				<path fill="#FFFFFF" d="M238.104,107.502c21.213,4.022,29.399,25.384,27.943,44.173c-38.604,0.226-85.555-0.063-130.039,0
					c-1.117-21.786,7.882-40.533,27.943-44.173C179.376,104.703,221.117,104.286,238.104,107.502z"/>
				<path fill="#FFFFFF" d="M211.234,257.461c6.982,1.357,5.141,22.034,2.147,26.734
					C207.043,281.665,210.698,263.745,211.234,257.461z"/>
				<path fill="#FFFFFF" d="M200.49,255.136c4.8,4.036,5.549,28.671,0,32.552c-6.263-5.055-2.552-23.744-2.149-32.552
					C199.055,255.136,199.776,255.136,200.49,255.136z"/>
				<path fill="#FFFFFF" d="M190.82,257.461c1.647,7.486,2.142,21.991-1.075,27.9c-7.069-4.758-2.623-17-2.149-27.9
					C188.671,257.461,189.745,257.461,190.82,257.461z"/>
			</g>
		</g>
	</g>
</g>
<g id="Layer_8" display="none">
	<g id="dDBRJe_1_" display="inline">
		<g id="XMLID_5_">
			<g>
				<path d="M240.5,274.648c2.823,2.685,10.434,2.893,12.486-0.693C249.587,270.688,243.205,270.542,240.5,274.648z M183.62,232.336
					c5.126,43.034,77.135,33.961,72.141-10.404c-2.157-19.174-16.897-30.75-37.458-33.296c-0.423,0.042-0.818,0.104-0.693,0.694
					c-5.723,0.52-10.35,2.136-15.26,3.468C189.427,200.809,181.456,214.162,183.62,232.336z M289.057,239.271
					c0.604,3.33,2.521,5.342,5.549,6.244c2.248-1.451,4.103-3.305,5.552-5.553C297.214,237.469,292.234,236.262,289.057,239.271z
					 M275.877,270.486c1.732,0.576,2.727,1.898,4.855,2.08c0.881-1.664,3.037-2.045,2.771-4.854
					c-1.316-1.456-1.887-3.662-4.854-3.468C277.48,266.082,277.049,268.648,275.877,270.486z M271.715,230.255
					c-1.062,2.872-3.579,4.287-2.773,9.019C275.578,244.593,278.193,231.628,271.715,230.255z M323.74,225.398
					c-2.021,52.545-27.205,81.929-65.897,97.807c-14.054-8.005-43.567,6.763-63.123-2.775c-2.435-4.271-3.378-10.029-4.162-15.953
					c-4.168,2.996-7.699,6.641-12.485,9.02c-16.912-2.497-32.269-17.486-19.423-33.988c-3.538,1.098-12.34,2.913-20.116,2.08
					c-23.883-37.854-45.004-78.466-67.979-117.228c3.281-6.201,7.936-11.022,11.099-17.341c17.341,9.711,32.692,21.413,49.25,31.908
					c4.294-5.189,7.728-11.237,12.486-15.954c-15.274-12.236-32.436-22.6-49.25-33.296c4.134-5.806,6.978-12.909,11.792-18.035
					c25.52,2.365,49.853,7.547,74.915,8.324c1.367-1.637-3.343-3.101-4.855-4.162c8.005-12.569,13.263-27.892,24.278-37.458
					c14.421,7.312,26.699,16.766,40.925,24.278c3.719,12.465,4.945,27.42,7.631,40.926c8.92-10.793,26.706-2.789,33.988,6.937
					c0,5.084,0,10.176,0,15.26c4.461-0.16,8.138-1.117,13.181-0.694c11.688,12.59,18.604,29.952,20.81,52.024
					C318.308,220.654,321.575,222.479,323.74,225.398z M259.229,296.152c1.283-1.491,4.086-1.465,3.472-4.855
					c-1.604-3.129-7.824-4.059-7.632,1.387C256.219,294.07,256.934,295.909,259.229,296.152z M266.859,257.309
					c-1.271-7.049-11.361-1.441-6.242,3.467C263.287,260.207,266.79,260.479,266.859,257.309z"/>
				<path d="M245.355,234.417c-2.094,2.989-3.869,6.306-5.549,9.711c-25.541,24.729-65.314-10.835-42.312-37.457
					c3.621-3.08,7.65-5.758,12.486-7.631c19.554-4.758,30.084,5.521,36.067,16.647C245.766,223.43,244.156,228.208,245.355,234.417z
					"/>
				<path d="M191.251,72.794c-7.186,13.395-14.983,26.172-23.584,38.151C149.659,95.838,166.002,62.223,191.251,72.794z"/>
			</g>
		</g>
	</g>
</g>
<g id="Layer_1_1_" display="none">
	<g id="_x30_WRF3t_1_" display="inline">
		<g id="XMLID_1_">
			<g>
				<path fill="#FFFFFF" d="M273.818,198.775c4.173,18.327,5.012,43.317,7.041,61.836c-9.084,6.131-19.066,10.396-28.756,15.156
					c-9.707,4.767-19.496,10.828-32.278,11.521C219.713,241.498,236.943,208.378,273.818,198.775z"/>
				<path fill="#FFFFFF" d="M219.238,135.119c-0.799,15.12,27.359,15.071,24.062-0.606
					C237.104,141.696,226.029,140.532,219.238,135.119z M133.554,166.038c2.201-36.284,28.487-54.139,62.208-56.988
					c39.003-3.298,70.296,18.836,72.772,56.988C226.826,166.832,177.118,167.177,133.554,166.038z"/>
				<path fill="#FFFFFF" d="M132.968,181.194c1.426-3.28,7.248-1.716,9.977-1.819c39.204-1.461,88.231-0.255,126.178,0.606
					c0.088,5.559-6.667,6.396-10.562,7.275c-14.227,3.213-30.732,4.965-44.604,7.881c-1.673,30.027,0.146,61.686,0,92.15
					c-8.41,0-16.826,0-25.236,0c-0.687-28.805,0.458-60.953,0-91.544c-13.275-3.358-29.35-5.438-44.603-8.487
					C140.286,186.492,133.425,186.462,132.968,181.194z"/>
				<path fill="#FFFFFF" d="M121.23,165.431c-0.804-15.38,1.978-27.057,1.174-42.438c-2.512-2.255-6.796-2.68-11.737-2.425
					c-1.303-2.467-2.418-5.662-1.174-9.094c8.034-4.705,27.642-4.177,35.799,0c0.305,3.486,0.71,6.142-1.174,8.488
					c-4.619,1.691-13.169-0.667-17.019,1.819c-3.128,24.201,1.455,48.979,0,76.388c37.625,10.039,54.562,41.442,55.753,89.119
					c-13.75-0.267-24.643-7.894-35.212-12.731c-9.443-4.322-18.51-8.729-26.41-13.941c1.778-16.354,2.142-34.162,4.695-49.715
					c-3.416,1.357-8.046-2.313-10.564-5.457C115.191,192.288,111.247,170.111,121.23,165.431z"/>
			</g>
		</g>
	</g>
</g>
<g id="Layer_6" display="none">
	<g id="Te7uNE_1_" display="inline">
		<g id="XMLID_4_">
			<g>
				<path d="M170.863,317.521c0-6.801,0-13.603,0-20.398c-10.992-12.219-9.84,17.08-7.061,22.359
					C166.965,320.496,169.4,319.295,170.863,317.521z M192.047,285.354c0.916-17.521,0.131-36.744,0.393-54.92
					c-1.888-2.287-5.255-3.425-7.846-1.177c-1.544,17.022-0.801,38.429-0.392,56.097
					C185.983,287.658,190.306,287.83,192.047,285.354z M202.639,204.15c0-19.876,0-39.752,0-59.628
					c-2.166-0.18-6.383-1.177-7.846,0.392c0,19.746,0,39.491,0,59.236C197.408,204.15,200.023,204.15,202.639,204.15z
					 M212.445,256.717c0-8.688,2.094-22.867-0.783-27.068c-2.289-3.342-6.48-1.396-8.238,0.785
					c0.262,18.176-0.523,37.398,0.393,54.92c2.199,2.901,7.004,1.973,8.633-0.783C212.445,277.573,212.445,267.84,212.445,256.717z
					 M232.452,319.482c3.098-6.729,3.629-32.273-7.062-22.752C225.98,305.271,220.7,322.425,232.452,319.482z M308.164,245.732
					c0,11.146,1.218,22.336-1.569,30.207c-7.135,4.828-19.155-0.106-27.853,1.961c-3.236,0.769-6.652,4.453-10.199,6.273
					c-8.386,4.311-17.809,7.495-27.46,9.415c-0.612,15.332,3.687,34.345-10.592,35.31c-14.589,0.979-13.15-16.133-12.161-30.991
					c-12.732,0.687-28.229,1.159-40.014,0.393c-1.226,13.403,2.795,29.536-10.2,30.599c-15.757,1.291-13.027-17.315-12.945-33.734
					c-12.708-3.122-24.232-6.293-34.129-11.771c-3.473-1.92-6.857-4.961-9.807-5.492c-5.606-1.004-12.529,1.515-17.653-0.781
					c-6.53-2.928-4.707-17.67-4.707-28.245c0-33.776-0.319-67.842,0.392-99.642c2.223,0,4.446,0,6.669,0
					c0.916,29.16,0.131,60.021,0.392,89.833c7.47-0.312,14.074,1.799,21.184,0.395c4.454-0.883,9.309-4.979,13.73-6.669
					c5.435-2.076,11.482-2.738,16.083-4.707c3.089-1.324,5.95-4.526,9.023-6.669c3-2.096,6.326-4.528,9.807-5.887
					c5.198-2.024,9.521-1.83,13.73-4.705c0.482-39.354,0.809-80.42,5.492-115.333c2.207-16.437,4.348-32.527,10.592-43.544
					c0.916,0,1.831,0,2.746,0c2.575,2.436,4.364,5.729,5.492,9.023c8.41,24.477,8.32,56.49,10.592,88.265
					c0.564,7.87,0.842,16.435,0.785,25.106c-0.072,11.54,2.288,24.902,1.178,38.837c3.693,1.25,7.15,1.896,10.592,3.53
					c5.895,2.795,10.592,8.56,15.69,10.981c4.554,2.176,10.56,2.951,16.084,5.103c4.69,1.819,9.881,5.844,14.515,6.669
					c8.9,1.586,17.223-1.15,27.461,0c0.518-29.953-1.037-61.786,0.785-90.227c2.092,0,4.187,0,6.275,0
					C308.164,179.321,308.164,214.325,308.164,245.732z"/>
			</g>
		</g>
	</g>
</g>
<g id="Layer_7" display="none">
	<g id="tZx3Bj_2_" display="inline">
		<g id="XMLID_6_">
			<g>
				<path d="M300.557,213.652c-0.045,2.334,0.694,5.578,0.303,7.591c-0.475,2.416-3.75,4.301-4.25,6.375
					c-0.854,3.536,0,9.089,0,13.661c0,13.104-0.803,26.521-0.605,39.164c0.203,13.146-0.082,25.697-1.52,37.947
					c-0.438,3.698,0.062,7.926-2.43,10.93c-3.466-15.646-3.074-35.607-3.945-58.896c-0.365-9.732-0.342-21.043-0.605-32.181
					c-0.089-3.729,0.367-8.405-0.304-10.626c-0.646-2.133-4.229-4.035-6.072-5.465c-1.983-1.545-4.696-4.125-6.679-4.555
					c-2.498-0.546-6.229,0.403-9.411,0.909c-8.146,1.29-18.313,2.974-25.808,4.556c-8.476,12.512-18.961,21.183-36.732,23.071
					c-2.004,0.216-3.371,0.229-5.768,0c-14.338-1.348-25.515-7.36-32.181-15.481c-1.98-2.409-3.188-6.756-6.072-8.805
					c-3.182-2.26-9.209-2.688-13.662-3.947c-4.87-1.379-9.247-3.004-12.751-3.944c-5.515,2.274-10.752,4.832-16.09,7.286
					c-2.751,36.007-3.295,74.222-8.197,108.076c-2.043-3.396-1.815-7.76-2.125-11.84c-1.632-21.41-1.025-45.65-0.304-68.609
					c0.139-4.354-0.196-9.299,0-13.967c0.183-4.34,1.271-9.277,0.607-12.446c-0.639-3.062-5.028-4.743-5.768-7.59
					c-0.848-3.275,0-7.899,0-11.841c0-4.198-0.645-8.849,0-11.839c0.683-3.144,4.263-4.965,4.857-7.59c0.658-2.909,0-9.177,0-13.358
					c0-12.75-0.341-26.482,0.304-40.074c1.101-23.345-0.158-46.646,3.339-64.058c1.651,1.815,1.6,4.661,1.822,6.982
					c1.334,13.94,1.613,29.587,2.125,45.842c0.208,6.672,0.911,13.598,0.911,20.34c0,6.938-0.335,14.256,0,21.251
					c0.335,7.04-0.405,14.478,0.607,20.644c0.5,3.049,2.637,4.833,3.643,7.894c4.965,1.815,10.056,3.504,14.876,5.464
					c8.608-1.714,16.033-4.61,25.198-5.768c6.255-10.202,14.003-17.741,26.716-22.466c22.004-8.184,47.677,4.693,55.253,22.466
					c8.061,0.98,17.83,4.124,26.413,6.375c3.019,0.791,6.763,1.923,9.104,1.821c4.326-0.189,7.545-5.844,11.537-7.893
					c0.127-38.056,0.209-76.505,2.731-111.721c0.253-3.523,1.062-7.432,1.821-10.929c0-0.304,0-0.607,0-0.911
					c0.492-0.082,0.525,0.285,0.91,0.304c2.81,17.349,2.512,37.803,3.037,58.29c0.43,16.862,0.604,36.159,0.604,54.646
					c0,2.448-0.664,5.769-0.305,7.286c0.634,2.65,4.296,2.809,5.16,5.769C300.941,199.846,300.689,207.126,300.557,213.652z
					 M215.55,220.027c13.819-12.086,7.388-37.675-11.84-40.073c-1.974-0.247-5.895,0.139-6.982,0.304
					c-12.245,1.828-21.739,13.82-18.519,27.93c1.429,6.256,6.122,11.967,11.84,14.877
					C197.841,227.036,209.188,225.596,215.55,220.027z"/>
				<path d="M216.766,189.062c3.863,3.017,5.705,8.058,5.463,15.18c-3.399-0.432-6.451,0.088-9.41-0.305
					c0.576-4.12-1.17-5.916-1.819-8.806C212.307,193.471,214.702,190.916,216.766,189.062z"/>
				<path d="M222.229,205.456c-0.81,5.667-3.438,9.513-6.375,13.055c-2.72-1.632-4.49-4.212-6.679-6.375
					c1.304-2.139,2.974-3.909,3.644-6.68C215.506,205.178,219.611,204.805,222.229,205.456z"/>
				<path d="M216.157,187.848c-2.087,2.264-4.067,4.636-6.679,6.375c-2.119-1.929-4.693-3.403-8.197-3.947c0-3.036,0-6.072,0-9.108
					C208.074,181.561,212.805,184.015,216.157,187.848z"/>
				<path d="M207.354,212.742c2.922,1.732,5.28,4.029,6.982,6.982c-3.518,2.252-7.197,4.338-13.055,4.25c0-3.035,0-6.072,0-9.107
					C203.198,214.836,205.771,213.988,207.354,212.742z"/>
				<path d="M199.763,191.188c7.836-0.5,14.693,8.406,10.928,16.394c-1.156,2.454-5.256,5.9-7.59,6.376
					c-8.034,1.632-16.516-5.308-13.664-15.18C190.352,195.627,194.058,191.548,199.763,191.188z"/>
				<path d="M199.763,214.867c0,3.035,0,6.072,0,9.107c-5.724-0.045-9.841-1.695-13.054-4.25c1.221-3.029,4.225-4.275,6.072-6.682
					C195.362,213.4,196.696,215,199.763,214.867z"/>
				<path d="M199.763,181.169c0,3.036,0,6.072,0,9.108c-2.802,0.253-6.268,1.866-8.5,3.643c-2.505-1.645-4.396-3.902-6.375-6.072
					C187.885,183.661,192.939,181.53,199.763,181.169z"/>
				<path d="M190.049,195.438c0.069,1.315-1.689,2.498-2.125,3.947c-0.569,1.885,0.31,3.289-0.911,4.857
					c-3.017,0.184-5.521-0.729-8.197,0c-0.86-6.332,1.752-11.796,4.554-15.483C185.084,189.518,189.96,193.856,190.049,195.438z"/>
				<path d="M187.924,205.152c0.544,2.998,2.106,4.978,3.946,6.68c-1.847,2.605-4.073,4.832-6.679,6.679
					c-3.099-3.479-5.939-7.217-6.375-13.358C182.313,204.938,184.945,205.646,187.924,205.152z"/>
			</g>
		</g>
	</g>
</g>
</svg>
