<?xml version="1.0" encoding="utf-8"?>
<!-- Generator: Adobe Illustrator 15.0.0, SVG Export Plug-In . SVG Version: 6.00 Build 0)  -->
<!DOCTYPE svg PUBLIC "-//W3C//DTD SVG 1.1//EN" "http://www.w3.org/Graphics/SVG/1.1/DTD/svg11.dtd">
<svg version="1.1" xmlns="http://www.w3.org/2000/svg" xmlns:xlink="http://www.w3.org/1999/xlink" x="0px" y="0px" width="400px"
	 height="400px" viewBox="0 0 400 400" enable-background="new 0 0 400 400" xml:space="preserve">
<g id="Layer_1" display="none">
	<g id="Layer_2_1_">
		<rect display="inline" width="400" height="400"/>
	</g>
	<g id="Layer_2_copy">
		<rect x="0.5" y="-0.5" display="inline" fill="#474747" width="400" height="400"/>
	</g>
	<g id="Layer_4">
		<g id="_x37_C119D_1_" display="inline">
			<g id="XMLID_3_">
				<g>
					<path d="M165.956,264.041c-3.443-4.316-12.398-1.848-10.413,5.554C158.736,273.663,168.719,272.212,165.956,264.041z
						 M181.923,266.818c-0.882-6.297,1.791-16.135-1.389-20.133c-4.554,4.241-7.317,10.268-6.248,20.133
						C177.313,266.29,180.715,267.68,181.923,266.818z M195.113,203.646c13.093-40.042-51.601-31.67-40.264-0.694
						C165.185,206.395,183.693,205.423,195.113,203.646z M200.666,266.124c0.159-10.413,0.193-21.765-2.083-27.769
						c-3.429-1.985-7.421,0.701-9.719,2.082c0.972,8.623,0.743,17.703,0,26.381C192.072,268.373,198.125,267.479,200.666,266.124z
						 M216.633,266.818c0-9.025,0-18.051,0-27.074c-3.021-0.916-7.13-0.743-10.412-1.389c0,9.719,0,19.438,0,29.156
						C209.982,266.688,214.134,267.318,216.633,266.818z M213.161,232.107c1.431-7.588,0.778-19.035-6.94-20.826
						c-12.06-2.805-16.522,10.185-13.191,21.521C199.625,232.455,207.678,233.564,213.161,232.107z M229.823,267.514
						c3.407-7.025,1.382-18.994-5.554-20.134c0.416,6.526-0.867,14.752,0.693,20.134
						C226.58,267.514,228.205,267.514,229.823,267.514z M251.343,201.562c7.304-21.423-30.254-34.467-39.569-18.744
						c-2.715,4.582-2.609,13.912-0.693,20.826C221.756,205.223,243.811,207.609,251.343,201.562z M249.954,268.206
						c0.806-4.649-1.458-6.524-6.248-5.554C230.398,265.359,248.031,279.293,249.954,268.206z M288.83,257.1
						c1.215-11.44-7.789-26.013-13.885-41.651c-5.812-14.912-10.072-31.656-17.354-41.653
						c-10.976-15.064-41.139-19.083-55.536-4.859c-9.65-10.899-40.015-12.718-49.983-0.694
						c-11.538,18.883-20.542,43.305-29.156,64.561c-2.979,7.346-6.623,15.961-5.554,23.604c4.915,1.832,5.2-4.582,6.248-6.942
						c4.735-10.684,8.914-21.617,13.19-32.628c7.428-19.132,14.155-50.85,38.875-51.371c12.273-0.257,18.244,10.565,29.851,9.024
						c6.748-0.896,13.314-8.816,22.908-9.024c9.448-0.208,15.113,4.186,22.215,9.719c10.149,19.139,18.217,42.534,26.381,63.172
						C279.604,244.859,280.909,254.912,288.83,257.1z M269.393,135.613c4.728,13.1,0.459,26.762,2.776,43.735
						c1.624,11.892,9.304,24.511,13.884,37.487c1.764,4.991,4.367,11.892,6.942,18.744c2.138,5.698,7.72,13.717,7.636,18.049
						c-0.242,13.044-28.754,26.399-38.875,30.545c-52.746,21.591-132.503,9.379-156.89-29.851
						c9.191-21.208,15.946-43.075,24.991-65.949c1.298-3.277,3.666-5.457,4.165-8.331c2.354-13.46-1.402-25.977,0.694-36.793
						c4.679-24.13,23.929-41.396,51.371-43.735C228.663,95.884,259.07,106.984,269.393,135.613z"/>
				</g>
			</g>
		</g>
	</g>
	<g id="Layer_5_1_">
		<g id="wC95k9_1_" display="inline">
			<g id="XMLID_2_">
				<g>
					<path fill="#FFFFFF" d="M271.419,200.5c6.751,7.938,13.474,11.706,12.899,23.25c-0.629,12.512-13.119,21.191-17.197,30.227
						c1.32,27.215-27.548,42.711-48.357,27.895c0-6.971,0-13.947,0-20.924c-4.299-9.176-11.691-1.428-18.273-8.137
						c-5.895,5.824-9.472,1.131-16.124,4.65c-2.333,5.994-0.48,16.527-1.074,24.409c-18.902,13.388-49.821,2.163-47.284-25.568
						c-11.19-12.625-29.159-41.501-6.447-54.643c0-10.461,0-20.923,0-31.385c2.276-4.892,5.853-8.391,8.596-12.788
						c41.699,0.898,84.317,0.184,126.815,0C273.236,165.212,271.525,183.726,271.419,200.5z M245.625,197.015
						c6.318-4.799,8.341-14.236,8.604-25.575c-15.41,0.771-33.677-1.548-47.291,1.159
						C219.363,181.245,226.307,195.828,245.625,197.015z M248.855,265.598c0.961-23.666-35.543,0.36-10.752,10.463
						C244.111,273.818,248.602,271.825,248.855,265.598z M229.508,223.75c1.024,7.782,7.415,4.623,12.895,5.811
						C241.193,224.287,234.448,224.994,229.508,223.75z M225.21,227.234c1.321-12.278-7.069-14.053-13.976-17.433
						c0.904,2.892,1.406,6.228,1.074,10.462C215.787,223.475,220.325,225.545,225.21,227.234z M206.938,219.1
						c1.646-2.113,1.646-9.509,0-11.621c-8.942-1.152-15.764-0.008-13.969,10.461C196.433,219.614,201.982,219.035,206.938,219.1z
						 M177.919,186.554c5.415-4.496,15.085-10.081,13.975-15.113c-14.689,0-29.378,0-44.067,0
						c-0.255,11.515,1.788,20.535,7.528,25.575C164.906,198.584,171.762,191.664,177.919,186.554z M175.77,227.234
						c7.444-2.41,15.983-3.633,13.975-16.272C181.15,212.129,175.969,216.984,175.77,227.234z M158.579,256.302
						c-20.952,9.847,16.216,32.892,12.894,6.97C170.653,256.859,164.828,253.361,158.579,256.302z M173.621,223.75
						c-5.697,0.424-11.353,0.896-13.968,4.65C163.103,229.709,172.674,228.889,173.621,223.75z"/>
					<path fill="#FFFFFF" d="M238.104,107.502c21.213,4.022,29.399,25.384,27.943,44.173c-38.604,0.226-85.555-0.063-130.039,0
						c-1.117-21.786,7.882-40.533,27.943-44.173C179.376,104.703,221.117,104.286,238.104,107.502z"/>
					<path fill="#FFFFFF" d="M211.234,257.461c6.984,1.357,5.141,22.034,2.149,26.734
						C207.043,281.665,210.698,263.745,211.234,257.461z"/>
					<path fill="#FFFFFF" d="M200.49,255.136c4.8,4.036,5.549,28.671,0,32.552c-6.263-5.055-2.552-23.744-2.149-32.552
						C199.055,255.136,199.776,255.136,200.49,255.136z"/>
					<path fill="#FFFFFF" d="M190.82,257.461c1.647,7.486,2.142,21.991-1.075,27.9c-7.069-4.758-2.623-17-2.149-27.9
						C188.671,257.461,189.745,257.461,190.82,257.461z"/>
				</g>
			</g>
		</g>
	</g>
	<g id="Layer_1_1_">
		<g id="_x30_WRF3t_1_" display="inline">
			<g id="XMLID_1_">
				<g>
					<path fill="#FFFFFF" d="M273.818,198.775c4.173,18.327,5.012,43.317,7.041,61.836c-9.084,6.131-19.066,10.397-28.756,15.156
						c-9.707,4.767-19.496,10.828-32.278,11.521C219.713,241.498,236.943,208.378,273.818,198.775z"/>
					<path fill="#FFFFFF" d="M219.238,135.119c-0.799,15.12,27.359,15.071,24.062-0.606
						C237.104,141.696,226.029,140.532,219.238,135.119z M133.554,166.038c2.201-36.284,28.487-54.139,62.208-56.988
						c39.003-3.298,70.296,18.836,72.772,56.988C226.826,166.832,177.118,167.177,133.554,166.038z"/>
					<path fill="#FFFFFF" d="M132.968,181.194c1.426-3.28,7.248-1.716,9.977-1.819c39.204-1.461,88.231-0.255,126.178,0.606
						c0.088,5.559-6.667,6.396-10.562,7.275c-14.227,3.213-30.734,4.965-44.604,7.881c-1.673,30.027,0.146,61.686,0,92.15
						c-8.41,0-16.826,0-25.236,0c-0.687-28.805,0.458-60.953,0-91.544c-13.275-3.358-29.35-5.438-44.603-8.487
						C140.286,186.492,133.425,186.462,132.968,181.194z"/>
					<path fill="#FFFFFF" d="M121.23,165.431c-0.804-15.38,1.978-27.057,1.174-42.438c-2.512-2.255-6.796-2.68-11.737-2.425
						c-1.303-2.467-2.418-5.662-1.174-9.094c8.034-4.705,27.642-4.177,35.799,0c0.305,3.486,0.71,6.142-1.174,8.488
						c-4.619,1.691-13.169-0.667-17.019,1.819c-3.128,24.201,1.455,48.979,0,76.388c37.625,10.039,54.562,41.442,55.753,89.119
						c-13.75-0.267-24.643-7.894-35.212-12.731c-9.443-4.322-18.51-8.729-26.41-13.943c1.778-16.352,2.142-34.162,4.695-49.713
						c-3.416,1.357-8.046-2.315-10.564-5.457C115.191,192.288,111.247,170.111,121.23,165.431z"/>
				</g>
			</g>
		</g>
	</g>
	<g id="Layer_6">
		<g id="Te7uNE_1_" display="inline">
			<g id="XMLID_4_">
				<g>
					<path d="M170.863,317.521c0-6.801,0-13.601,0-20.398c-10.992-12.219-9.84,17.08-7.061,22.359
						C166.965,320.496,169.4,319.295,170.863,317.521z M192.047,285.354c0.916-17.521,0.131-36.744,0.393-54.92
						c-1.888-2.287-5.255-3.425-7.846-1.177c-1.544,17.022-0.801,38.429-0.392,56.097
						C185.983,287.658,190.306,287.83,192.047,285.354z M202.639,204.15c0-19.876,0-39.752,0-59.628
						c-2.166-0.18-6.383-1.177-7.846,0.392c0,19.746,0,39.491,0,59.236C197.408,204.15,200.023,204.15,202.639,204.15z
						 M212.445,256.717c0-8.688,2.094-22.867-0.783-27.068c-2.289-3.342-6.48-1.396-8.238,0.785
						c0.262,18.176-0.523,37.398,0.393,54.92c2.199,2.901,7.004,1.971,8.631-0.783C212.445,277.573,212.445,267.84,212.445,256.717z
						 M232.452,319.482c3.098-6.727,3.629-32.273-7.062-22.752C225.98,305.271,220.7,322.425,232.452,319.482z M308.164,245.732
						c0,11.146,1.218,22.336-1.569,30.207c-7.135,4.828-19.155-0.106-27.853,1.961c-3.236,0.769-6.652,4.453-10.199,6.275
						c-8.386,4.309-17.809,7.495-27.46,9.415c-0.612,15.332,3.687,34.343-10.592,35.308c-14.589,0.979-13.15-16.133-12.161-30.991
						c-12.732,0.687-28.229,1.159-40.014,0.393c-1.226,13.403,2.795,29.536-10.2,30.599c-15.757,1.291-13.027-17.317-12.945-33.736
						c-12.708-3.122-24.232-6.293-34.129-11.77c-3.473-1.92-6.857-4.961-9.807-5.492c-5.606-1.004-12.529,1.513-17.653-0.783
						c-6.53-2.926-4.707-17.67-4.707-28.245c0-33.778-0.319-67.842,0.392-99.642c2.223,0,4.446,0,6.669,0
						c0.916,29.16,0.131,60.021,0.392,89.834c7.47-0.312,14.074,1.797,21.184,0.393c4.454-0.883,9.309-4.979,13.73-6.669
						c5.435-2.076,11.482-2.738,16.083-4.707c3.089-1.324,5.95-4.528,9.023-6.669c3-2.094,6.326-4.528,9.807-5.885
						c5.198-2.026,9.521-1.832,13.73-4.707c0.482-39.353,0.809-80.42,5.492-115.333c2.207-16.436,4.348-32.527,10.592-43.544
						c0.916,0,1.831,0,2.746,0c2.575,2.436,4.364,5.729,5.492,9.023c8.41,24.477,8.32,56.49,10.592,88.265
						c0.564,7.87,0.842,16.435,0.785,25.106c-0.072,11.54,2.288,24.902,1.178,38.837c3.693,1.25,7.15,1.896,10.592,3.53
						c5.893,2.795,10.592,8.558,15.69,10.983c4.554,2.174,10.56,2.951,16.084,5.101c4.69,1.821,9.881,5.844,14.515,6.669
						c8.9,1.586,17.221-1.152,27.461,0c0.516-29.953-1.037-61.786,0.785-90.227c2.092,0,4.185,0,6.275,0
						C308.164,179.321,308.164,214.325,308.164,245.732z"/>
				</g>
			</g>
		</g>
	</g>
	<g id="Layer_7">
		<g id="tZx3Bj_2_" display="inline">
			<g id="XMLID_6_">
				<g>
					<path d="M300.557,213.652c-0.046,2.334,0.694,5.578,0.303,7.591c-0.475,2.416-3.75,4.301-4.25,6.375
						c-0.854,3.536,0,9.089,0,13.661c0,13.104-0.803,26.521-0.607,39.164c0.203,13.148-0.082,25.697-1.518,37.947
						c-0.438,3.7,0.062,7.926-2.43,10.93c-3.466-15.646-3.074-35.607-3.945-58.896c-0.367-9.733-0.342-21.043-0.607-32.181
						c-0.089-3.73,0.367-8.405-0.304-10.626c-0.646-2.132-4.231-4.035-6.072-5.464c-1.985-1.545-4.698-4.125-6.679-4.555
						c-2.498-0.545-6.229,0.404-9.411,0.91c-8.146,1.29-18.315,2.973-25.806,4.555c-8.476,12.511-18.961,21.182-36.734,23.072
						c-2.004,0.215-3.371,0.229-5.768,0c-14.338-1.348-25.515-7.361-32.181-15.482c-1.98-2.41-3.188-6.756-6.072-8.805
						c-3.182-2.259-9.209-2.688-13.662-3.947c-4.87-1.379-9.247-3.004-12.751-3.945c-5.515,2.275-10.752,4.832-16.09,7.286
						c-2.751,36.007-3.295,74.222-8.197,108.077c-2.043-3.396-1.815-7.76-2.125-11.84c-1.632-21.41-1.025-45.651-0.304-68.61
						c0.139-4.353-0.196-9.298,0-13.966c0.183-4.34,1.271-9.278,0.607-12.447c-0.639-3.061-5.028-4.743-5.768-7.59
						c-0.848-3.275,0-7.899,0-11.84c0-4.199-0.645-8.848,0-11.84c0.683-3.144,4.263-4.965,4.857-7.59c0.658-2.909,0-9.177,0-13.358
						c0-12.75-0.341-26.482,0.304-40.074c1.101-23.345-0.158-46.646,3.339-64.058c1.651,1.815,1.6,4.661,1.822,6.982
						c1.334,13.94,1.613,29.587,2.125,45.842c0.208,6.672,0.911,13.598,0.911,20.34c0,6.938-0.335,14.256,0,21.251
						c0.335,7.04-0.405,14.478,0.607,20.644c0.5,3.049,2.637,4.833,3.643,7.894c4.965,1.815,10.056,3.504,14.876,5.464
						c8.608-1.714,16.033-4.61,25.198-5.768c6.255-10.202,14.003-17.741,26.716-22.466c22.004-8.184,47.676,4.693,55.253,22.466
						c8.059,0.98,17.83,4.124,26.413,6.375c3.017,0.791,6.761,1.923,9.106,1.821c4.326-0.189,7.545-5.844,11.537-7.893
						c0.127-38.056,0.209-76.505,2.731-111.721c0.253-3.523,1.062-7.432,1.821-10.929c0-0.304,0-0.607,0-0.911
						c0.492-0.082,0.525,0.285,0.91,0.304c2.81,17.349,2.512,37.803,3.037,58.29c0.43,16.862,0.605,36.159,0.605,54.646
						c0,2.448-0.664,5.769-0.303,7.286c0.632,2.65,4.294,2.809,5.16,5.769C300.941,199.846,300.689,207.126,300.557,213.652z
						 M215.55,220.027c13.819-12.086,7.388-37.675-11.84-40.073c-1.974-0.247-5.895,0.139-6.982,0.304
						c-12.245,1.828-21.739,13.82-18.519,27.93c1.429,6.256,6.122,11.967,11.84,14.877
						C197.841,227.036,209.188,225.596,215.55,220.027z"/>
					<path d="M216.766,189.062c3.863,3.017,5.705,8.058,5.463,15.18c-3.401-0.432-6.451,0.088-9.41-0.305
						c0.576-4.118-1.17-5.914-1.821-8.804C212.307,193.471,214.702,190.916,216.766,189.062z"/>
					<path d="M222.229,205.456c-0.81,5.667-3.439,9.513-6.375,13.055c-2.72-1.632-4.49-4.212-6.679-6.375
						c1.304-2.139,2.974-3.909,3.644-6.68C215.506,205.178,219.611,204.805,222.229,205.456z"/>
					<path d="M216.157,187.848c-2.087,2.264-4.067,4.636-6.679,6.375c-2.119-1.929-4.693-3.403-8.197-3.947c0-3.036,0-6.072,0-9.108
						C208.074,181.561,212.805,184.015,216.157,187.848z"/>
					<path d="M207.354,212.742c2.922,1.732,5.28,4.029,6.982,6.982c-3.518,2.252-7.197,4.338-13.055,4.25c0-3.035,0-6.072,0-9.107
						C203.198,214.836,205.771,213.988,207.354,212.742z"/>
					<path d="M199.763,191.188c7.836-0.5,14.693,8.406,10.928,16.394c-1.156,2.454-5.256,5.9-7.59,6.376
						c-8.032,1.632-16.514-5.308-13.662-15.18C190.352,195.627,194.058,191.548,199.763,191.188z"/>
					<path d="M199.763,214.867c0,3.035,0,6.072,0,9.107c-5.724-0.045-9.841-1.695-13.054-4.25c1.221-3.029,4.225-4.275,6.072-6.68
						C195.362,213.4,196.696,215,199.763,214.867z"/>
					<path d="M199.763,181.169c0,3.036,0,6.072,0,9.108c-2.802,0.253-6.268,1.866-8.5,3.643c-2.505-1.645-4.396-3.902-6.375-6.072
						C187.885,183.661,192.939,181.53,199.763,181.169z"/>
					<path d="M190.049,195.438c0.069,1.315-1.689,2.498-2.125,3.947c-0.569,1.885,0.31,3.289-0.911,4.857
						c-3.017,0.184-5.521-0.729-8.197,0c-0.86-6.332,1.752-11.796,4.554-15.483C185.084,189.518,189.96,193.856,190.049,195.438z"/>
					<path d="M187.924,205.152c0.544,2.998,2.106,4.978,3.946,6.68c-1.847,2.605-4.073,4.832-6.679,6.679
						c-3.099-3.479-5.939-7.217-6.375-13.358C182.313,204.938,184.945,205.646,187.924,205.152z"/>
				</g>
			</g>
		</g>
	</g>
	<path display="inline" fill="#231F20" d="M148.159,221.893c-1.143,0-2.237-0.167-3.332-0.334l-30.613,81.626h67.888l-30.613-81.626
		C150.396,221.726,149.301,221.893,148.159,221.893"/>
	<path display="inline" fill="#231F20" d="M127.198,204.778H79.7l26.557,95.286l30.56-81.492
		C131.95,215.514,128.379,210.595,127.198,204.778"/>
	<path display="inline" fill="#231F20" d="M169.12,204.778c-1.181,5.816-4.752,10.735-9.618,13.794l30.56,81.492l25.417-95.286
		H169.12z"/>
	<path display="inline" fill="#231F20" d="M136.813,182.428l-30.56-81.493l-26.549,95.287h47.49
		C128.382,190.402,131.953,185.483,136.813,182.428"/>
	<path display="inline" fill="#231F20" d="M148.159,179.107c1.142,0,2.236,0.164,3.331,0.337l30.613-81.629h-67.888l30.613,81.629
		C145.922,179.271,147.017,179.107,148.159,179.107"/>
	<path display="inline" fill="#231F20" d="M169.12,196.222h46.359l-25.417-95.287l-30.56,81.493
		C164.368,185.486,167.938,190.402,169.12,196.222"/>
	<path display="inline" fill="#231F20" d="M139.602,200.5c0,4.725,3.833,8.557,8.558,8.557c4.724,0,8.557-3.832,8.557-8.557
		c0-4.724-3.833-8.557-8.557-8.557C143.435,191.943,139.602,195.776,139.602,200.5"/>
	<path display="inline" fill="#231F20" d="M221.685,186.305l3.788,14.192l-3.788,14.198c2.317,1.275,4.941,2.061,7.767,2.061
		c8.969,0,16.256-7.286,16.256-16.259c0-8.961-7.287-16.256-16.256-16.256C226.626,184.241,224.002,185.032,221.685,186.305"/>
	<path display="inline" fill="#231F20" d="M231.59,179.96c0,0.081-0.078,0.131-0.089,0.211c4.117,0.41,7.844,2.014,10.875,4.496
		c0.056-0.064,0.033-0.15,0.089-0.2l8.011-8.017c-5.136-4.487-11.665-7.334-18.886-7.825V179.96z"/>
	<path display="inline" fill="#231F20" d="M217.596,170.963l2.975,11.158c2.106-1.011,4.396-1.707,6.83-1.952
		c-0.011-0.078-0.089-0.125-0.089-0.209v-11.332C223.88,168.857,220.654,169.743,217.596,170.963"/>
	<path display="inline" fill="#231F20" d="M227.312,232.372v-11.337c0-0.078,0.078-0.123,0.089-0.201
		c-2.435-0.245-4.724-0.947-6.83-1.949l-2.975,11.152C220.654,231.263,223.88,232.138,227.312,232.372"/>
	<path display="inline" fill="#231F20" d="M261.322,202.64h-11.337c-0.078,0-0.122-0.078-0.2-0.09
		c-0.418,4.117-2.017,7.845-4.502,10.875c0.062,0.056,0.146,0.033,0.201,0.089l8.011,8.012
		C257.991,216.389,260.838,209.859,261.322,202.64"/>
	<path display="inline" fill="#231F20" d="M253.495,179.478l-8.011,8.011c-0.056,0.056-0.14,0.033-0.195,0.083
		c2.479,3.037,4.078,6.761,4.496,10.875c0.078-0.006,0.122-0.086,0.2-0.086h11.343C260.832,191.138,257.996,184.614,253.495,179.478
		"/>
	<path display="inline" fill="#231F20" d="M250.476,224.545l-8.011-8.012c-0.056-0.056-0.033-0.139-0.089-0.195
		c-3.031,2.479-6.758,4.078-10.875,4.496c0.011,0.078,0.089,0.123,0.089,0.201v11.342
		C238.811,231.882,245.34,229.046,250.476,224.545"/>
	<path display="inline" fill="#231F20" d="M291.918,97.815h-82.149l-5.841,21.899l7.852,29.443h13.393
		c28.747,0,51.343,23.674,51.343,51.342c0,28.356-22.986,51.342-51.343,51.342h-13.393l-7.852,29.443l5.841,21.899h82.149
		L319.3,200.5L291.918,97.815z"/>
</g>
<g id="Layer_3" display="none">
	<path display="inline" d="M169.46,106.175l24.111-40.275c-2.835-1.218-5.838-2.095-9.115-2.095
		c-13.218,0-23.936,10.712-23.936,23.93C160.521,95.22,164.07,101.792,169.46,106.175"/>
	<path display="inline" d="M333.043,225.217l-6.417-4.284c-1.249-20.846-8.691-41.152-21.816-57.963l-16.78,2.151l1.163-1.735
		c4.377-6.553,2.593-15.493-3.954-19.87l-9.357-6.242c-6.547-4.377-15.487-2.599-19.863,3.954l-1.318,1.971l-7.448-44.565
		l-45.286-28.146l-24.291,40.568l11.906,6.652l-86.445-10.961l-12.509,18.726l52.15,34.829c-2.351,2.823-4.62,5.739-6.702,8.86
		c-2.077,3.121-3.905,6.323-5.614,9.574l-52.144-34.829l-12.515,18.727l67.544,118.202l0.118-0.187
		c1.361,2.27,2.86,4.458,4.389,6.634l22.538-2.897l-4.184,6.268c-4.371,6.553-2.599,15.487,3.954,19.87l9.351,6.242
		c6.553,4.377,15.5,2.599,19.871-3.954l3.5-5.229l2.556,19.964c19.64,5.328,40.207,4.619,59.169-1.461l7.653,5.11
		c20.928-7.38,39.734-21.344,53.009-41.22C328.547,270.099,334.242,247.381,333.043,225.217 M256.129,281.34
		c-1.467,2.188-4.427,2.772-6.621,1.312c-2.188-1.468-2.779-4.427-1.318-6.621c1.468-2.195,4.433-2.786,6.621-1.318
		C257.006,276.173,257.59,279.139,256.129,281.34 M254.463,248.232c-7.101,10.645-18.987,16.992-31.789,16.992
		c-7.561,0-14.884-2.226-21.194-6.441c-17.508-11.694-22.239-35.463-10.544-52.977c7.106-10.638,18.994-16.986,31.801-16.986
		c7.554,0,14.871,2.226,21.176,6.429C261.426,206.956,266.157,230.731,254.463,248.232 M269.639,301.018
		c-1.467,2.194-4.433,2.778-6.621,1.317c-2.194-1.467-2.785-4.427-1.318-6.621c1.461-2.188,4.427-2.785,6.622-1.318
		C270.51,295.856,271.1,298.828,269.639,301.018 M273.357,263.527c-1.468,2.188-4.427,2.779-6.622,1.318
		c-2.188-1.468-2.785-4.434-1.317-6.622c1.467-2.2,4.433-2.785,6.621-1.317C274.233,258.367,274.818,261.326,273.357,263.527
		 M276.59,242.108c-2.188-1.467-2.779-4.433-1.318-6.627c1.468-2.188,4.434-2.786,6.622-1.318c2.194,1.461,2.791,4.433,1.317,6.621
		C281.757,242.979,278.784,243.569,276.59,242.108 M291.785,275.831c-1.461,2.194-4.421,2.779-6.622,1.324
		c-2.188-1.474-2.778-4.433-1.317-6.628c1.467-2.188,4.433-2.778,6.621-1.317C292.668,270.677,293.252,273.643,291.785,275.831
		 M306.569,245.721c-1.461,2.201-4.433,2.785-6.621,1.318c-2.194-1.461-2.779-4.427-1.318-6.615
		c1.468-2.194,4.427-2.785,6.621-1.318C307.439,240.566,308.037,243.532,306.569,245.721"/>
	<path display="inline" d="M238.608,203.201c-4.731-3.165-10.221-4.837-15.872-4.837c-9.612,0-18.534,4.769-23.855,12.739
		c-8.773,13.143-5.229,30.962,7.908,39.729c4.731,3.164,10.221,4.843,15.885,4.843c9.605,0,18.521-4.769,23.844-12.739
		C255.296,229.799,251.739,211.974,238.608,203.201"/>
</g>
<g id="Layer_4_1_" display="none">
	<path display="inline" fill="#231F20" d="M89.809,127.388c-5.164,0-9.364,4.204-9.364,9.365c0,5.164,4.201,9.364,9.364,9.364
		c5.165,0,9.365-4.201,9.365-9.364C99.174,131.592,94.974,127.388,89.809,127.388"/>
	<rect x="136.632" y="113.341" display="inline" fill="#231F20" width="9.365" height="37.459"/>
	<path display="inline" fill="#231F20" d="M291.148,224.352V207.32l-17.168-11.45l-13.279,26.555
		c-6.847,2.786-11.693,9.486-11.693,17.339c0,4.243,1.47,8.121,3.848,11.255l-3.213,44.933h28.167l3.055-42.848
		c3.456-3.402,5.603-8.114,5.603-13.34c0-1.634-0.274-3.194-0.671-4.706L291.148,224.352z M267.737,249.129
		c-5.164,0-9.365-4.201-9.365-9.365c0-5.157,4.201-9.364,9.365-9.364s9.364,4.207,9.364,9.364
		C277.102,244.928,272.901,249.129,267.737,249.129"/>
	<polygon display="inline" fill="#231F20" points="289.106,155.482 342.647,155.482 342.647,99.294 295.825,83.845 286.46,71.201 
		220.908,71.201 211.543,83.845 174.085,99.294 174.085,155.482 218.274,155.482 	"/>
	<path display="inline" fill="#231F20" d="M117.903,155.482h9.365v-46.823H89.809l-28.094,18.729v14.047H45.327
		c-1.292,0-2.341,1.049-2.341,2.341s1.049,2.341,2.341,2.341h16.388v9.365H47.669c-2.585,0-4.683,2.097-4.683,4.682
		c0,2.585,2.097,4.683,4.683,4.683h60.87L117.903,155.482z M89.809,150.8c-7.761,0-14.047-6.286-14.047-14.047
		c0-7.759,6.286-14.047,14.047-14.047c7.761,0,14.047,6.288,14.047,14.047C103.856,144.515,97.57,150.8,89.809,150.8"/>
	<path display="inline" fill="#231F20" d="M340.972,295.951l-10.103-47.14c1.493-2.695,2.42-5.75,2.42-9.048
		c0-4.719-1.804-8.975-4.682-12.267v-22.851l11.37-39.799H192.82c-10.346,0-18.729,8.386-18.729,18.729
		c0,2.597,0.53,5.069,1.488,7.319l-10.925,32.785c-5.536,3.25-9.292,9.194-9.292,16.083c0,2.439,0.5,4.756,1.347,6.901
		l-17.602,49.286h29.832l6.518-18.26l24.088,11.614l12.182-25.326l-24.186-11.388c3.225-3.341,5.28-7.805,5.28-12.828
		c0-2.598-0.53-5.072-1.488-7.315l8.902-26.713l27.703-22.159h44.482l28.094,18.729v23.705v1.487
		c-2.878,3.292-4.683,7.548-4.683,12.267c0,6.292,3.122,11.816,7.871,15.218l8.591,40.97H340.972z M174.091,249.129
		c-5.164,0-9.364-4.201-9.364-9.365c0-5.157,4.201-9.364,9.364-9.364c5.164,0,9.365,4.207,9.365,9.364
		C183.456,244.928,179.255,249.129,174.091,249.129 M192.82,192.941c-5.164,0-9.365-4.201-9.365-9.365
		c0-5.161,4.201-9.365,9.365-9.365s9.364,4.204,9.364,9.365C202.185,188.74,197.984,192.941,192.82,192.941 M314.561,174.211
		c5.163,0,9.364,4.204,9.364,9.365c0,5.164-4.201,9.365-9.364,9.365c-5.164,0-9.365-4.201-9.365-9.365
		C305.195,178.415,309.396,174.211,314.561,174.211 M305.195,239.764c0-5.157,4.201-9.364,9.365-9.364
		c5.163,0,9.364,4.207,9.364,9.364c0,5.164-4.201,9.365-9.364,9.365C309.396,249.129,305.195,244.928,305.195,239.764"/>
	<rect x="155.362" y="113.341" display="inline" fill="#231F20" width="9.365" height="37.459"/>
	<polygon display="inline" fill="#231F20" points="227.761,263.041 221.005,266.285 205.782,297.933 207.465,305.237 
		220.121,311.327 240.424,269.126 	"/>
	<polygon display="inline" fill="#231F20" points="346.166,305.316 311.049,305.316 305.195,309.999 305.195,324.046 
		352.013,324.046 352.013,309.999 	"/>
	<polygon display="inline" fill="#231F20" points="245.496,305.316 239.644,309.999 239.644,324.046 286.46,324.046 286.46,309.999 
		280.614,305.316 	"/>
	<polygon display="inline" fill="#231F20" points="133.121,305.316 127.268,309.999 127.268,324.046 174.085,324.046 
		174.085,309.999 168.238,305.316 	"/>
	<path display="inline" fill="#231F20" d="M132.383,257.694l8.938,4.213l5.511-15.425c-0.554-2.207-0.835-4.456-0.835-6.719
		c0-8.584,4.048-16.718,10.755-22.01l10.151-30.461l-39.391,33.766c-0.085,0-0.165-0.023-0.244-0.023
		c-10.346,0-18.729,8.389-18.729,18.729c0,10.346,8.383,18.729,18.729,18.729C129.054,258.493,130.743,258.164,132.383,257.694
		 M117.903,239.764c0-5.157,4.201-9.364,9.365-9.364c5.164,0,9.364,4.207,9.364,9.364c0,5.164-4.201,9.365-9.364,9.365
		C122.104,249.129,117.903,244.928,117.903,239.764"/>
</g>
<g id="Layer_5" display="none">
	<path display="inline" fill="#231F20" d="M290.074,272.255v-99.006c0-9.115-5.469-16.501-12.215-16.501H265.65v16.501v16.501
		v82.505l-12.215,41.252h48.848L290.074,272.255z"/>
	<path display="inline" fill="#231F20" d="M131.87,189.75v-16.501v-16.501h-11.56c-6.386,0-11.562,7.386-11.562,16.501v99.006
		l-11.559,41.252h51.74l-17.06-41.252V189.75z"/>
	<path display="inline" fill="#231F20" d="M255.911,148.497h0.274v-8.261c0-31.885-25.863-57.743-57.753-57.743
		s-57.753,25.858-57.753,57.743v8.261h0.274H255.911z M231.434,123.746c4.561,0,8.251,3.696,8.251,8.25s-3.69,8.25-8.251,8.25
		c-4.56,0-8.25-3.696-8.25-8.25S226.874,123.746,231.434,123.746 M198.432,94.869c9.099,0,16.5,7.396,16.5,16.501
		s-7.401,16.501-16.5,16.501c-9.121,0-16.501-7.396-16.501-16.501S189.312,94.869,198.432,94.869"/>
	<path display="inline" fill="#231F20" d="M256.186,156.748H140.679v115.507l16.501,16.501h82.505l16.501-16.501V156.748z
		 M223.184,222.752h-49.503c-4.561,0-8.25-3.69-8.25-8.251s3.69-8.251,8.25-8.251h49.503c4.561,0,8.25,3.69,8.25,8.251
		S227.744,222.752,223.184,222.752 M223.184,189.75h-49.503c-4.561,0-8.25-3.695-8.25-8.25c0-4.555,3.69-8.25,8.25-8.25h49.503
		c4.561,0,8.25,3.696,8.25,8.25C231.434,186.054,227.744,189.75,223.184,189.75"/>
</g>
<g id="Layer_6_1_">
	<path fill="#231F20" d="M331.785,193.017c-0.29-8.092-1.215-16.011-2.885-23.666h-53.672v-9.466h18.933v-9.466h-37.864v-9.466
		h28.398v-9.466h-9.467v-9.466h-18.932v-9.466h9.466v-9.466H246.83v-9.466h9.467v-9.466v-6.009
		c-17.231-8.203-36.435-12.923-56.797-12.923c-71.597,0-129.773,56.803-132.285,127.792H331.785z M152.169,93.623
		c20.914,0,37.864,16.948,37.864,37.864c0,20.911-16.951,37.864-37.864,37.864s-37.864-16.954-37.864-37.864
		C114.305,110.571,131.256,93.623,152.169,93.623"/>
	<path fill="#231F20" d="M227.898,320.81h-9.467v-9.467h28.398v-9.466h9.467v-9.466h28.398v-9.466h9.466v-9.467h-18.933v-9.466
		H246.83v-9.466h18.933v-9.467h37.864v-9.466h-18.932v-9.466H328.9c1.67-7.654,2.595-15.573,2.885-23.665H67.215
		c2.512,70.989,60.688,127.792,132.285,127.792c9.762,0,19.246-1.128,28.398-3.125V320.81z"/>
</g>
<g id="Layer_2" display="none">
	<g id="XMLID_5_" display="inline">
		<g>
			<path d="M330.625,225.775c6.553-2.319,16.234-1.822,12.811,7.51c-3.81-2.613-7.031-3.221-13.252-3.092
				C330.312,228.702,329.834,226.604,330.625,225.775z"/>
			<path d="M312.071,289.388c0.019,0.755-0.331,1.142-0.883,1.325c-0.019-0.607,0.202-0.976,0.441-1.325
				C311.777,289.388,311.925,289.388,312.071,289.388z"/>
			<path d="M310.746,291.154c0.019-0.275,0.074-0.515,0.442-0.441C311.17,290.989,311.114,291.229,310.746,291.154z"/>
			<path d="M310.746,291.154c0.019,0.755-0.331,1.142-0.883,1.325c-0.019-0.607,0.202-0.976,0.441-1.325
				C310.452,291.154,310.6,291.154,310.746,291.154z"/>
			<path d="M309.863,292.479c0.644,2.614,3.368,3.111,4.417,5.302c-0.368,1.987-1.215,3.497-2.209,4.859
				c-3.589-2.596-6.645-5.725-11.043-7.51c0.625-1.142,1.49-2.044,2.208-3.093C305.961,291.522,308.17,293.382,309.863,292.479z"/>
			<path d="M284.241,154.654c-2.669,4.252-7.933,5.908-11.044,9.719c3.093,9.718,15.241,10.381,17.229,21.204
				c19.419,6.645,39.721,14.762,60.52,18.554c2.725-1.675,2.982-7.73,8.394-5.301c1.031,7.362-2.798,9.865-2.65,16.345
				c-3.921,4.178-11.302,4.896-15.461,8.835c0.718-2.964,3-4.362,4.859-6.185c-25.364-10.124-55.938-15.038-83.491-22.971
				c-1.031,1.16-0.073,3.019,0,4.417c28.935,14.946,51.74,36.021,75.539,56.103c-1.509,9.24-10.712,10.786-11.927,20.32
				c-8.982,0.312-9.479,9.074-14.137,13.694c0.994-8.228,7.842-10.087,4.859-18.995c0.571-1.933,2.688-2.319,3.976-3.534
				c-1.49-1.546-0.681-4.381,0-6.185c-17.209-13.713-37.181-24.664-55.66-37.107c-1.841,1.104-2.393,3.498-4.417,4.418
				c-10.437-2.927-22.4-0.626-29.156,3.976c-10.528-0.533-15.259-9.147-13.252-20.762c-4.142,0.864-7.068,2.944-10.603,4.417
				c-1.527-0.533-2.669-1.454-3.534-2.65c-1.325,0.884-4.159,0.258-6.184,0.441c-1.528,0.093-1.675,1.564-3.092,1.768
				c-5.043-0.626-6.994,1.841-11.043,2.209c-12.111,11.761-32.469,15.24-48.593,22.971c-2.614-0.185-3.111-2.485-5.301-3.093
				c-3.442,1.859-5.301,5.302-8.394,7.51c-21.02-0.404-26.763,14.468-45.5,16.345c-1.564-0.055-0.736-2.503-1.767-3.092
				c-13.271-0.589-21.149-9.166-30.481-15.02c11.375-17.173,32.487-24.646,50.801-34.898c1.602,0.019,3.479-0.239,3.976,0.884
				c15.755-9.866,30.83-20.413,47.267-29.597c-1.896-3.866-7.841-5.485-5.743-11.928c-12.921-5.337-27.996-8.522-41.966-12.811
				c-6.718,2.853-15.737,3.405-21.204,7.51c-1.785-0.129-1.914-1.914-3.092-2.65c-8.651,3.037-25.548,2.908-33.131,10.602
				c-1.527-0.423-0.994-4.657-0.441-5.743c0.166,1.749,2.926,0.902,3.976,1.767c10.473-5.08,23.946-4.73,30.922-12.811
				c1.767,0,3.534,0,5.301,0c1.767-0.442,1.251-3.166,2.208-4.417c27.48-6.424,55.513,5.872,82.607,9.277
				c-1.307-4.436-4.473-7.013-7.068-10.16c-21.812-13.971-43.016-28.548-63.612-43.733c-1.38,0.681-3.184,0.938-4.417,1.767
				c-2.834-0.405-5.761-3.755-6.387-3.81c-0.332-0.037-22.456,2.926-24.26,2.706c-0.976-0.129-0.276-0.497-0.276-0.663
				c7.639-0.736,23.597-2.761,24.259-2.945c0.645-0.184,2.393-3.387,4.455-4.564c11.099,0.037,22.069-3.792,34.457-1.325
				c0.092,1.675,1.859,1.675,1.767,3.534c-1.031,2.209-4.012,2.467-6.626,3.092c13.915,10.676,32.689,16.492,46.384,27.389
				c3.332-0.534,4.289,1.307,6.626,1.767c7.639-2.908,18.057-1.325,26.947-3.534c0.626-0.552,1.381-1.509,1.767-2.669
				c3.405-0.479,10.989-3.865,15.056-3.755c2.982,0.184,9.866,3.056,9.682,6.866c-0.11,3.479-4.454,8.725-8.393,7.915
				c-1.473-0.331-9.24,4.013-8.835,7.105c6.516-1.915,15.111-3.442,21.203-5.743c8.21,4.602,17.468,8.154,26.947,11.485
				c1.398,2.871,1.583,6.958,3.534,9.277c4.067-7.013,11.854-5.798,19.437-9.277C281.26,149.684,282.658,152.261,284.241,154.654z"
				/>
			<path d="M58.949,103.853c-2.208,2.006-2.521,3.258-3.092,6.626c-2.301-2.853-5.135-5.172-9.277-6.185
				c0.203-1.564,0.976-2.559,0.884-4.417C51.973,100.521,54.881,102.767,58.949,103.853z"/>
		</g>
		<g>
		</g>
	</g>
</g>
</svg>
