<?xml version="1.0" encoding="utf-8"?>
<!-- Generator: Adobe Illustrator 15.0.0, SVG Export Plug-In . SVG Version: 6.00 Build 0)  -->
<!DOCTYPE svg PUBLIC "-//W3C//DTD SVG 1.1//EN" "http://www.w3.org/Graphics/SVG/1.1/DTD/svg11.dtd">
<svg version="1.1" xmlns="http://www.w3.org/2000/svg" xmlns:xlink="http://www.w3.org/1999/xlink" x="0px" y="0px" width="400px"
	 height="400px" viewBox="0 0 400 400" enable-background="new 0 0 400 400" xml:space="preserve">
<g id="Layer_1" display="none">
	<g id="Layer_1_2_">
		<g id="Layer_2_1_" display="inline">
			<rect width="400" height="400"/>
		</g>
		<g id="Layer_2_copy" display="inline">
			<rect x="0.5" y="-0.5" fill="#474747" width="400" height="400"/>
		</g>
		<g id="Layer_4" display="inline">
			<g id="_x37_C119D_1_">
				<g id="XMLID_3_">
					<g>
						<path d="M165.956,264.041c-3.443-4.316-12.398-1.848-10.413,5.554C158.736,273.663,168.719,272.212,165.956,264.041z
							 M181.923,266.818c-0.882-6.297,1.791-16.135-1.389-20.133c-4.554,4.24-7.317,10.268-6.248,20.133
							C177.313,266.29,180.715,267.68,181.923,266.818z M195.113,203.646c13.093-40.042-51.601-31.67-40.264-0.694
							C165.185,206.395,183.693,205.423,195.113,203.646z M200.666,266.124c0.159-10.413,0.193-21.765-2.083-27.769
							c-3.429-1.985-7.421,0.701-9.719,2.082c0.972,8.623,0.743,17.703,0,26.381C192.072,268.373,198.125,267.479,200.666,266.124z
							 M216.633,266.818c0-9.025,0-18.051,0-27.074c-3.021-0.916-7.13-0.743-10.412-1.389c0,9.719,0,19.438,0,29.155
							C209.982,266.688,214.134,267.318,216.633,266.818z M213.161,232.107c1.431-7.588,0.778-19.035-6.94-20.826
							c-12.06-2.805-16.521,10.185-13.191,21.521C199.625,232.455,207.678,233.564,213.161,232.107z M229.823,267.514
							c3.407-7.024,1.382-18.994-5.554-20.134c0.416,6.526-0.867,14.752,0.692,20.134
							C226.58,267.514,228.205,267.514,229.823,267.514z M251.343,201.562c7.304-21.423-30.254-34.467-39.569-18.745
							c-2.715,4.582-2.608,13.912-0.692,20.827C221.756,205.223,243.811,207.609,251.343,201.562z M249.954,268.206
							c0.806-4.649-1.458-6.524-6.248-5.554C230.398,265.359,248.031,279.293,249.954,268.206z M288.83,257.1
							c1.215-11.439-7.789-26.013-13.885-41.65c-5.812-14.912-10.072-31.656-17.354-41.653
							c-10.976-15.064-41.139-19.083-55.536-4.859c-9.65-10.899-40.015-12.718-49.983-0.694
							c-11.538,18.883-20.542,43.305-29.156,64.562c-2.979,7.346-6.623,15.961-5.554,23.604c4.915,1.832,5.2-4.582,6.248-6.942
							c4.735-10.684,8.914-21.616,13.19-32.628c7.428-19.132,14.155-50.85,38.875-51.371c12.273-0.257,18.244,10.565,29.851,9.024
							c6.748-0.896,13.314-8.816,22.908-9.024c9.448-0.208,15.113,4.186,22.215,9.719c10.149,19.139,18.218,42.535,26.381,63.171
							C279.604,244.859,280.909,254.912,288.83,257.1z M269.393,135.613c4.729,13.1,0.459,26.762,2.776,43.735
							c1.624,11.892,9.304,24.511,13.884,37.487c1.764,4.991,4.367,11.892,6.942,18.744c2.138,5.698,7.72,13.717,7.636,18.049
							c-0.242,13.044-28.754,26.399-38.875,30.545c-52.746,21.591-132.503,9.379-156.89-29.851
							c9.191-21.208,15.946-43.075,24.991-65.949c1.298-3.277,3.666-5.457,4.165-8.331c2.354-13.46-1.402-25.977,0.694-36.793
							c4.679-24.13,23.929-41.396,51.371-43.735C228.663,95.884,259.07,106.984,269.393,135.613z"/>
					</g>
				</g>
			</g>
		</g>
		<g id="Layer_5_1_" display="inline">
			<g id="wC95k9_1_">
				<g id="XMLID_2_">
					<g>
						<path fill="#FFFFFF" d="M271.419,200.5c6.751,7.938,13.474,11.706,12.899,23.25c-0.629,12.512-13.119,21.191-17.197,30.227
							c1.32,27.215-27.548,42.711-48.357,27.896c0-6.972,0-13.947,0-20.924c-4.299-9.177-11.69-1.429-18.272-8.138
							c-5.895,5.824-9.472,1.131-16.124,4.65c-2.333,5.994-0.48,16.527-1.074,24.409c-18.902,13.388-49.821,2.163-47.284-25.568
							c-11.19-12.625-29.159-41.501-6.447-54.643c0-10.461,0-20.923,0-31.385c2.276-4.892,5.853-8.391,8.596-12.788
							c41.699,0.898,84.316,0.184,126.814,0C273.236,165.212,271.525,183.726,271.419,200.5z M245.625,197.015
							c6.318-4.799,8.341-14.236,8.604-25.575c-15.41,0.771-33.677-1.548-47.291,1.159
							C219.363,181.245,226.307,195.828,245.625,197.015z M248.855,265.598c0.961-23.666-35.543,0.36-10.752,10.463
							C244.111,273.818,248.602,271.825,248.855,265.598z M229.508,223.75c1.024,7.782,7.415,4.623,12.895,5.811
							C241.193,224.287,234.448,224.994,229.508,223.75z M225.21,227.234c1.321-12.278-7.069-14.053-13.976-17.434
							c0.904,2.893,1.406,6.229,1.074,10.463C215.787,223.475,220.325,225.545,225.21,227.234z M206.938,219.1
							c1.646-2.113,1.646-9.509,0-11.621c-8.941-1.151-15.764-0.008-13.968,10.461C196.433,219.614,201.982,219.035,206.938,219.1z
							 M177.919,186.554c5.415-4.496,15.085-10.081,13.975-15.113c-14.689,0-29.378,0-44.067,0
							c-0.255,11.515,1.788,20.535,7.528,25.575C164.906,198.584,171.762,191.664,177.919,186.554z M175.77,227.234
							c7.444-2.41,15.983-3.633,13.975-16.272C181.15,212.129,175.969,216.984,175.77,227.234z M158.579,256.302
							c-20.952,9.847,16.216,32.892,12.894,6.97C170.653,256.859,164.828,253.361,158.579,256.302z M173.621,223.75
							c-5.697,0.424-11.353,0.896-13.968,4.65C163.103,229.709,172.674,228.889,173.621,223.75z"/>
						<path fill="#FFFFFF" d="M238.104,107.502c21.213,4.022,29.399,25.384,27.943,44.173c-38.604,0.226-85.555-0.063-130.039,0
							c-1.117-21.786,7.882-40.533,27.943-44.173C179.376,104.703,221.117,104.286,238.104,107.502z"/>
						<path fill="#FFFFFF" d="M211.234,257.461c6.983,1.357,5.141,22.034,2.148,26.734
							C207.043,281.665,210.698,263.745,211.234,257.461z"/>
						<path fill="#FFFFFF" d="M200.49,255.136c4.8,4.036,5.549,28.671,0,32.552c-6.263-5.055-2.552-23.744-2.149-32.552
							C199.055,255.136,199.776,255.136,200.49,255.136z"/>
						<path fill="#FFFFFF" d="M190.82,257.461c1.647,7.486,2.142,21.991-1.075,27.9c-7.069-4.758-2.623-17-2.149-27.9
							C188.671,257.461,189.745,257.461,190.82,257.461z"/>
					</g>
				</g>
			</g>
		</g>
		<g id="Layer_1_1_" display="inline">
			<g id="_x30_WRF3t_1_">
				<g id="XMLID_1_">
					<g>
						<path fill="#FFFFFF" d="M273.818,198.775c4.173,18.327,5.012,43.317,7.041,61.836c-9.084,6.131-19.066,10.396-28.756,15.156
							c-9.707,4.767-19.496,10.828-32.278,11.521C219.713,241.498,236.943,208.378,273.818,198.775z"/>
						<path fill="#FFFFFF" d="M219.238,135.119c-0.799,15.12,27.359,15.071,24.062-0.606
							C237.104,141.696,226.029,140.532,219.238,135.119z M133.554,166.038c2.201-36.284,28.487-54.139,62.208-56.988
							c39.003-3.298,70.296,18.836,72.772,56.988C226.826,166.832,177.118,167.177,133.554,166.038z"/>
						<path fill="#FFFFFF" d="M132.968,181.194c1.426-3.28,7.248-1.716,9.977-1.819c39.204-1.461,88.231-0.255,126.178,0.606
							c0.088,5.559-6.667,6.396-10.562,7.275c-14.227,3.213-30.733,4.965-44.604,7.881c-1.673,30.027,0.146,61.686,0,92.15
							c-8.41,0-16.826,0-25.236,0c-0.687-28.805,0.458-60.953,0-91.544c-13.275-3.358-29.35-5.438-44.603-8.487
							C140.286,186.492,133.425,186.462,132.968,181.194z"/>
						<path fill="#FFFFFF" d="M121.23,165.431c-0.804-15.38,1.978-27.057,1.174-42.438c-2.512-2.255-6.796-2.68-11.737-2.425
							c-1.303-2.467-2.418-5.662-1.174-9.094c8.034-4.705,27.642-4.177,35.799,0c0.305,3.486,0.71,6.142-1.174,8.488
							c-4.619,1.691-13.169-0.667-17.019,1.819c-3.128,24.201,1.455,48.979,0,76.388c37.625,10.039,54.562,41.442,55.753,89.119
							c-13.75-0.267-24.643-7.894-35.212-12.731c-9.443-4.322-18.51-8.729-26.41-13.942c1.778-16.353,2.142-34.162,4.695-49.714
							c-3.416,1.357-8.046-2.314-10.564-5.457C115.191,192.288,111.247,170.111,121.23,165.431z"/>
					</g>
				</g>
			</g>
		</g>
		<g id="Layer_6" display="inline">
			<g id="Te7uNE_1_">
				<g id="XMLID_4_">
					<g>
						<path d="M170.863,317.521c0-6.801,0-13.602,0-20.398c-10.992-12.219-9.84,17.08-7.061,22.359
							C166.965,320.496,169.4,319.295,170.863,317.521z M192.047,285.354c0.916-17.521,0.131-36.744,0.393-54.92
							c-1.888-2.287-5.255-3.425-7.846-1.177c-1.544,17.022-0.801,38.429-0.392,56.097
							C185.983,287.658,190.306,287.83,192.047,285.354z M202.639,204.15c0-19.876,0-39.752,0-59.628
							c-2.166-0.18-6.383-1.177-7.846,0.392c0,19.746,0,39.491,0,59.236C197.408,204.15,200.023,204.15,202.639,204.15z
							 M212.445,256.717c0-8.688,2.094-22.867-0.783-27.068c-2.289-3.342-6.48-1.396-8.238,0.785
							c0.262,18.176-0.523,37.398,0.393,54.92c2.199,2.901,7.004,1.972,8.632-0.783C212.445,277.573,212.445,267.84,212.445,256.717
							z M232.452,319.482c3.098-6.728,3.629-32.273-7.062-22.752C225.98,305.271,220.7,322.425,232.452,319.482z M308.164,245.732
							c0,11.146,1.218,22.336-1.569,30.207c-7.135,4.828-19.155-0.106-27.853,1.961c-3.236,0.769-6.652,4.453-10.199,6.274
							c-8.386,4.31-17.809,7.495-27.46,9.415c-0.612,15.332,3.687,34.344-10.592,35.309c-14.589,0.979-13.15-16.133-12.161-30.991
							c-12.732,0.687-28.229,1.159-40.014,0.393c-1.226,13.403,2.795,29.536-10.2,30.599c-15.757,1.291-13.027-17.316-12.945-33.735
							c-12.708-3.122-24.232-6.293-34.129-11.771c-3.473-1.92-6.857-4.961-9.807-5.492c-5.606-1.004-12.529,1.514-17.653-0.782
							c-6.53-2.927-4.707-17.67-4.707-28.245c0-33.777-0.319-67.842,0.392-99.642c2.223,0,4.446,0,6.669,0
							c0.916,29.16,0.131,60.021,0.392,89.833c7.47-0.312,14.074,1.798,21.184,0.394c4.454-0.883,9.309-4.979,13.73-6.669
							c5.435-2.076,11.482-2.738,16.083-4.707c3.089-1.324,5.95-4.527,9.023-6.669c3-2.095,6.326-4.528,9.807-5.886
							c5.198-2.025,9.521-1.831,13.73-4.706c0.482-39.353,0.809-80.42,5.492-115.333c2.207-16.436,4.348-32.527,10.592-43.544
							c0.916,0,1.831,0,2.746,0c2.575,2.436,4.364,5.729,5.492,9.023c8.41,24.477,8.32,56.49,10.592,88.265
							c0.564,7.87,0.842,16.435,0.785,25.106c-0.072,11.54,2.288,24.902,1.178,38.837c3.693,1.25,7.15,1.896,10.592,3.53
							c5.894,2.795,10.592,8.559,15.69,10.982c4.554,2.175,10.56,2.951,16.084,5.102c4.69,1.82,9.881,5.844,14.515,6.669
							c8.9,1.586,17.222-1.151,27.461,0c0.517-29.953-1.037-61.786,0.785-90.227c2.092,0,4.186,0,6.275,0
							C308.164,179.321,308.164,214.325,308.164,245.732z"/>
					</g>
				</g>
			</g>
		</g>
		<g id="Layer_7" display="inline">
			<g id="tZx3Bj_2_">
				<g id="XMLID_6_">
					<g>
						<path d="M300.557,213.652c-0.045,2.334,0.694,5.578,0.303,7.591c-0.475,2.416-3.75,4.301-4.25,6.375
							c-0.854,3.536,0,9.089,0,13.661c0,13.104-0.803,26.521-0.606,39.164c0.203,13.147-0.082,25.697-1.519,37.947
							c-0.438,3.699,0.062,7.926-2.43,10.93c-3.466-15.646-3.074-35.607-3.945-58.896c-0.366-9.732-0.342-21.043-0.606-32.181
							c-0.089-3.729,0.367-8.405-0.304-10.626c-0.646-2.133-4.23-4.035-6.072-5.465c-1.984-1.545-4.697-4.125-6.679-4.555
							c-2.498-0.545-6.229,0.404-9.411,0.91c-8.146,1.29-18.314,2.973-25.807,4.555c-8.476,12.512-18.961,21.183-36.733,23.072
							c-2.004,0.215-3.371,0.229-5.768,0c-14.338-1.348-25.515-7.361-32.181-15.482c-1.98-2.409-3.188-6.756-6.072-8.805
							c-3.182-2.259-9.209-2.688-13.662-3.947c-4.87-1.379-9.247-3.004-12.751-3.944c-5.515,2.274-10.752,4.832-16.09,7.286
							c-2.751,36.007-3.295,74.222-8.197,108.076c-2.043-3.396-1.815-7.76-2.125-11.84c-1.632-21.41-1.025-45.65-0.304-68.609
							c0.139-4.354-0.196-9.299,0-13.967c0.183-4.34,1.271-9.277,0.607-12.446c-0.639-3.062-5.028-4.743-5.768-7.59
							c-0.848-3.275,0-7.899,0-11.841c0-4.198-0.645-8.848,0-11.839c0.683-3.144,4.263-4.965,4.857-7.59
							c0.658-2.909,0-9.177,0-13.358c0-12.75-0.341-26.482,0.304-40.074c1.101-23.345-0.158-46.646,3.339-64.058
							c1.651,1.815,1.6,4.661,1.822,6.982c1.334,13.94,1.613,29.587,2.125,45.842c0.208,6.672,0.911,13.598,0.911,20.34
							c0,6.938-0.335,14.256,0,21.251c0.335,7.04-0.405,14.478,0.607,20.644c0.5,3.049,2.637,4.833,3.643,7.894
							c4.965,1.815,10.056,3.504,14.876,5.464c8.608-1.714,16.033-4.61,25.198-5.768c6.255-10.202,14.003-17.741,26.716-22.466
							c22.004-8.184,47.676,4.693,55.253,22.466c8.06,0.98,17.83,4.124,26.413,6.375c3.018,0.791,6.762,1.923,9.105,1.821
							c4.326-0.189,7.545-5.844,11.537-7.893c0.127-38.056,0.209-76.505,2.731-111.721c0.253-3.523,1.062-7.432,1.821-10.929
							c0-0.304,0-0.607,0-0.911c0.492-0.082,0.525,0.285,0.91,0.304c2.81,17.349,2.512,37.803,3.037,58.29
							c0.43,16.862,0.604,36.159,0.604,54.646c0,2.448-0.664,5.769-0.304,7.286c0.633,2.65,4.295,2.809,5.16,5.769
							C300.941,199.846,300.689,207.126,300.557,213.652z M215.55,220.027c13.819-12.086,7.388-37.675-11.84-40.073
							c-1.974-0.247-5.895,0.139-6.982,0.304c-12.245,1.828-21.739,13.82-18.519,27.93c1.429,6.256,6.122,11.967,11.84,14.877
							C197.841,227.036,209.188,225.596,215.55,220.027z"/>
						<path d="M216.766,189.062c3.863,3.017,5.705,8.058,5.463,15.18c-3.4-0.432-6.451,0.088-9.41-0.305
							c0.576-4.119-1.17-5.915-1.82-8.805C212.307,193.471,214.702,190.916,216.766,189.062z"/>
						<path d="M222.229,205.456c-0.81,5.667-3.438,9.513-6.375,13.055c-2.72-1.632-4.49-4.212-6.679-6.375
							c1.304-2.139,2.974-3.909,3.644-6.68C215.506,205.178,219.611,204.805,222.229,205.456z"/>
						<path d="M216.157,187.848c-2.087,2.264-4.067,4.636-6.679,6.375c-2.119-1.929-4.693-3.403-8.197-3.947
							c0-3.036,0-6.072,0-9.108C208.074,181.561,212.805,184.015,216.157,187.848z"/>
						<path d="M207.354,212.742c2.922,1.732,5.28,4.029,6.982,6.982c-3.518,2.252-7.197,4.338-13.055,4.25c0-3.035,0-6.072,0-9.107
							C203.198,214.836,205.771,213.988,207.354,212.742z"/>
						<path d="M199.763,191.188c7.836-0.5,14.693,8.406,10.928,16.394c-1.156,2.454-5.256,5.9-7.59,6.376
							c-8.033,1.632-16.515-5.308-13.663-15.18C190.352,195.627,194.058,191.548,199.763,191.188z"/>
						<path d="M199.763,214.867c0,3.035,0,6.072,0,9.107c-5.724-0.045-9.841-1.695-13.054-4.25c1.221-3.029,4.225-4.275,6.072-6.681
							C195.362,213.4,196.696,215,199.763,214.867z"/>
						<path d="M199.763,181.169c0,3.036,0,6.072,0,9.108c-2.802,0.253-6.268,1.866-8.5,3.643c-2.505-1.645-4.396-3.902-6.375-6.072
							C187.885,183.661,192.939,181.53,199.763,181.169z"/>
						<path d="M190.049,195.438c0.069,1.315-1.689,2.498-2.125,3.947c-0.569,1.885,0.31,3.289-0.911,4.857
							c-3.017,0.184-5.521-0.729-8.197,0c-0.86-6.332,1.752-11.796,4.554-15.483C185.084,189.518,189.96,193.856,190.049,195.438z"
							/>
						<path d="M187.924,205.152c0.544,2.998,2.106,4.978,3.946,6.68c-1.847,2.605-4.073,4.832-6.679,6.679
							c-3.099-3.479-5.939-7.217-6.375-13.358C182.313,204.938,184.945,205.646,187.924,205.152z"/>
					</g>
				</g>
			</g>
		</g>
		<path display="inline" fill="#231F20" d="M148.159,221.893c-1.143,0-2.237-0.166-3.332-0.334l-30.613,81.627h67.888
			l-30.613-81.627C150.396,221.727,149.301,221.893,148.159,221.893"/>
		<path display="inline" fill="#231F20" d="M127.198,204.777H79.7l26.557,95.287l30.56-81.492
			C131.95,215.514,128.379,210.596,127.198,204.777"/>
		<path display="inline" fill="#231F20" d="M169.12,204.777c-1.181,5.816-4.752,10.736-9.618,13.795l30.56,81.492l25.417-95.287
			H169.12L169.12,204.777z"/>
		<path display="inline" fill="#231F20" d="M136.813,182.428l-30.56-81.493l-26.549,95.287h47.49
			C128.382,190.402,131.953,185.483,136.813,182.428"/>
		<path display="inline" fill="#231F20" d="M148.159,179.107c1.142,0,2.236,0.164,3.331,0.337l30.613-81.629h-67.888l30.613,81.629
			C145.922,179.271,147.017,179.107,148.159,179.107"/>
		<path display="inline" fill="#231F20" d="M169.12,196.222h46.358l-25.417-95.287l-30.56,81.493
			C164.368,185.486,167.938,190.402,169.12,196.222"/>
		<path display="inline" fill="#231F20" d="M139.602,200.5c0,4.725,3.833,8.557,8.558,8.557c4.724,0,8.557-3.832,8.557-8.557
			c0-4.724-3.833-8.557-8.557-8.557C143.435,191.943,139.602,195.776,139.602,200.5"/>
		<path display="inline" fill="#231F20" d="M221.686,186.305l3.787,14.192l-3.787,14.198c2.316,1.274,4.94,2.061,7.767,2.061
			c8.969,0,16.256-7.285,16.256-16.259c0-8.961-7.287-16.256-16.256-16.256C226.626,184.241,224.002,185.032,221.686,186.305"/>
		<path display="inline" fill="#231F20" d="M231.59,179.96c0,0.081-0.078,0.131-0.089,0.211c4.117,0.41,7.845,2.014,10.875,4.496
			c0.056-0.064,0.033-0.15,0.089-0.2l8.012-8.017c-5.137-4.487-11.666-7.334-18.887-7.825V179.96z"/>
		<path display="inline" fill="#231F20" d="M217.596,170.963l2.975,11.158c2.106-1.011,4.396-1.707,6.83-1.952
			c-0.01-0.078-0.088-0.125-0.088-0.209v-11.332C223.88,168.857,220.654,169.743,217.596,170.963"/>
		<path display="inline" fill="#231F20" d="M227.312,232.372v-11.337c0-0.078,0.078-0.123,0.088-0.201
			c-2.435-0.245-4.724-0.947-6.83-1.949l-2.975,11.152C220.654,231.264,223.88,232.139,227.312,232.372"/>
		<path display="inline" fill="#231F20" d="M261.322,202.641h-11.338c-0.077,0-0.121-0.078-0.199-0.091
			c-0.418,4.117-2.018,7.845-4.502,10.875c0.062,0.056,0.146,0.033,0.201,0.089l8.011,8.012
			C257.991,216.389,260.838,209.859,261.322,202.641"/>
		<path display="inline" fill="#231F20" d="M253.495,179.478l-8.011,8.011c-0.057,0.056-0.141,0.033-0.195,0.083
			c2.479,3.037,4.078,6.761,4.496,10.875c0.078-0.006,0.122-0.086,0.199-0.086h11.344
			C260.832,191.138,257.996,184.614,253.495,179.478"/>
		<path display="inline" fill="#231F20" d="M250.477,224.545l-8.012-8.012c-0.056-0.057-0.033-0.139-0.089-0.195
			c-3.03,2.479-6.758,4.078-10.875,4.496c0.011,0.078,0.089,0.123,0.089,0.201v11.342
			C238.811,231.882,245.34,229.046,250.477,224.545"/>
		<path display="inline" fill="#231F20" d="M291.918,97.815H209.77l-5.842,21.899l7.852,29.443h13.394
			c28.747,0,51.343,23.674,51.343,51.342c0,28.356-22.986,51.342-51.343,51.342h-13.394l-7.852,29.443l5.842,21.899h82.148
			L319.3,200.5L291.918,97.815z"/>
	</g>
	<g id="Layer_2" display="inline">
		<g id="XMLID_5_">
			<g>
				<path d="M330.625,225.775c6.553-2.319,16.234-1.822,12.811,7.51c-3.81-2.613-7.03-3.221-13.252-3.092
					C330.312,228.702,329.834,226.604,330.625,225.775z"/>
				<path d="M312.071,289.389c0.019,0.754-0.331,1.141-0.883,1.324c-0.02-0.607,0.201-0.977,0.44-1.324
					C311.777,289.389,311.925,289.389,312.071,289.389z"/>
				<path d="M310.746,291.154c0.019-0.275,0.074-0.516,0.441-0.441C311.17,290.989,311.114,291.229,310.746,291.154z"/>
				<path d="M310.746,291.154c0.019,0.755-0.331,1.142-0.883,1.324c-0.02-0.606,0.202-0.976,0.44-1.324
					C310.452,291.154,310.6,291.154,310.746,291.154z"/>
				<path d="M309.863,292.479c0.644,2.614,3.368,3.111,4.417,5.303c-0.368,1.986-1.215,3.496-2.209,4.859
					c-3.589-2.597-6.646-5.726-11.044-7.511c0.625-1.142,1.49-2.044,2.209-3.093C305.961,291.521,308.17,293.382,309.863,292.479z"
					/>
				<path d="M284.241,154.654c-2.669,4.252-7.933,5.908-11.044,9.719c3.093,9.718,15.24,10.381,17.229,21.204
					c19.419,6.645,39.722,14.762,60.521,18.554c2.725-1.675,2.981-7.73,8.394-5.301c1.031,7.361-2.798,9.865-2.649,16.345
					c-3.922,4.179-11.303,4.896-15.462,8.835c0.719-2.964,3-4.361,4.859-6.185c-25.364-10.124-55.938-15.038-83.49-22.971
					c-1.031,1.16-0.074,3.019,0,4.417c28.935,14.946,51.739,36.021,75.538,56.103c-1.509,9.239-10.712,10.786-11.927,20.319
					c-8.982,0.312-9.479,9.074-14.137,13.695c0.994-8.229,7.842-10.088,4.858-18.996c0.571-1.933,2.688-2.318,3.977-3.533
					c-1.49-1.547-0.682-4.381,0-6.186c-17.209-13.713-37.181-24.664-55.66-37.107c-1.841,1.104-2.394,3.498-4.417,4.418
					c-10.438-2.926-22.4-0.625-29.156,3.977c-10.527-0.533-15.259-9.146-13.252-20.762c-4.142,0.863-7.068,2.943-10.604,4.417
					c-1.526-0.533-2.668-1.454-3.533-2.65c-1.325,0.884-4.159,0.259-6.184,0.441c-1.528,0.093-1.675,1.563-3.092,1.768
					c-5.043-0.626-6.994,1.841-11.043,2.209c-12.111,11.761-32.469,15.24-48.593,22.972c-2.614-0.186-3.111-2.485-5.301-3.094
					c-3.442,1.859-5.301,5.303-8.394,7.51c-21.02-0.403-26.763,14.469-45.5,16.346c-1.564-0.055-0.736-2.503-1.767-3.092
					c-13.271-0.59-21.149-9.166-30.481-15.021c11.375-17.173,32.487-24.646,50.801-34.897c1.602,0.019,3.479-0.239,3.976,0.884
					c15.755-9.866,30.83-20.413,47.267-29.597c-1.896-3.866-7.841-5.485-5.743-11.928c-12.921-5.337-27.996-8.522-41.966-12.811
					c-6.718,2.853-15.737,3.405-21.204,7.51c-1.785-0.129-1.914-1.914-3.092-2.65c-8.651,3.037-25.548,2.908-33.131,10.602
					c-1.527-0.423-0.994-4.657-0.441-5.743c0.166,1.749,2.926,0.902,3.976,1.767c10.473-5.08,23.946-4.73,30.922-12.811
					c1.767,0,3.534,0,5.301,0c1.767-0.442,1.251-3.166,2.208-4.417c27.48-6.424,55.513,5.872,82.607,9.277
					c-1.307-4.436-4.473-7.013-7.068-10.16c-21.812-13.971-43.016-28.548-63.612-43.733c-1.38,0.681-3.184,0.938-4.417,1.767
					c-2.834-0.405-5.761-3.755-6.387-3.81c-0.332-0.037-22.456,2.926-24.26,2.706c-0.976-0.129-0.276-0.497-0.276-0.663
					c7.639-0.736,23.597-2.761,24.259-2.945c0.645-0.184,2.393-3.387,4.455-4.564c11.099,0.037,22.069-3.792,34.457-1.325
					c0.092,1.675,1.859,1.675,1.767,3.534c-1.031,2.209-4.012,2.467-6.626,3.092c13.915,10.676,32.689,16.492,46.384,27.389
					c3.332-0.534,4.289,1.307,6.626,1.767c7.639-2.908,18.057-1.325,26.947-3.534c0.626-0.552,1.381-1.509,1.767-2.669
					c3.405-0.479,10.989-3.865,15.055-3.755c2.982,0.184,9.867,3.056,9.683,6.866c-0.11,3.479-4.454,8.725-8.394,7.915
					c-1.473-0.331-9.239,4.013-8.834,7.105c6.516-1.915,15.11-3.442,21.203-5.743c8.209,4.602,17.467,8.154,26.946,11.485
					c1.397,2.871,1.583,6.958,3.534,9.277c4.066-7.013,11.854-5.798,19.438-9.277C281.26,149.684,282.658,152.261,284.241,154.654z"
					/>
				<path d="M58.949,103.853c-2.208,2.006-2.521,3.258-3.092,6.626c-2.301-2.853-5.135-5.172-9.277-6.185
					c0.203-1.564,0.976-2.559,0.884-4.417C51.973,100.521,54.881,102.767,58.949,103.853z"/>
			</g>
		</g>
	</g>
</g>
<g id="Layer_2_2_">
	<g id="XMLID_7_">
		<g>
			<path d="M73.436,256.739c-6.161-3.946-12.018-6.821-18.857-10.714c-2.536-1.429-5.768-2.946-6-4.715
				c-0.304-2.16,1.696-3.66,4.286-6c0.911-0.821,1.643-1.75,2.571-2.571c0.429-0.375,1.197-0.41,1.697-0.856
				c0.375-0.304,0.5-0.982,0.857-1.286c0.518-0.411,1.268-0.446,1.732-0.857c1.054-0.91,2.375-2.356,3.857-3.429
				c1.946-1.41,3.982-2.66,5.982-3.856c6.839-4.054,11.947-7.215,18.857-10.715c1.143-0.554,2.25-1.054,3.446-1.714
				c1.5-0.821,3.804-2.268,6-2.571c1.696-0.215,3.857,0.214,4.714,0c0.982-0.232,1.839-0.946,3-1.715
				c0.571-0.375,1.214-0.535,1.714-0.856c0.161-0.09,0.286-0.786,0.429-0.857c0.214-0.09,0.643,0.143,0.857,0
				c1.143-0.75,2.357-1.554,3.429-2.571c0.357-0.34,0.911-0.5,1.286-0.857c0.429-0.411,2.429-1.518,3.429-2.143
				c0.982-0.607,2.089-1.107,3-1.714c1.214-0.786,2.375-1.553,3.411-2.571c0.375-0.339,0.929-0.5,1.304-0.857
				c0.75-0.714,3.75-2.036,5.143-3c0.143-0.089,0.286-0.786,0.429-0.857c0.214-0.089,0.643,0.143,0.857,0
				c1.143-0.75,2.304-1.5,3.429-2.571c0.357-0.339,0.911-0.5,1.286-0.857c0.429-0.411,2.429-1.518,3.429-2.143
				c2.571-1.589,5.696-3.339,8.143-5.571c-0.536-1.232-1.304-2.5-2.143-3.429c-0.946-1.018-2.018-1.554-3.018-2.571
				c-0.107-1.447-0.678-2.447-0.411-4.286c-2.125-2.946-6.268-2.589-9.446-3.428c-1.607-0.429-3.125-1.268-4.696-1.714
				c-7.947-2.161-17.393-4.107-25.286-6.857c-1.911,0.768-3.768,1.322-6.428,2.143c-0.75,0.232-1.089,0.732-1.714,0.857
				c-1.929,0.411-4.429-0.107-6.429,0.429c-2.5,0.696-4.107,2.982-6.429,3c-2.268,0.036-3.643-1.643-5.571-2.143
				c-9.357,2.232-17.946,5.214-27.446,7.286c-1.197,0.518-1.143,2.286-1.714,3.428c-1.429-0.268-2.089-1.321-3.411-1.714
				c-2.25,0.107-4.286,0-6-0.429c0-1.857,0-3.714,0-5.571c4.571-0.286,8.518,0.053,11.125,1.714
				c9.25-2.196,17.732-5.125,26.589-7.714c1.857-1.929,0.839-3.661,2.982-4.714c2.643-1.286,5.143,1.571,8.161,0.428
				c1.625-1.946-2.393-1.089-1.286-3.857c4.375-0.732,8.714-1.714,13.286-3c4.589-1.268,10.197,0.411,14.554,1.286
				c3.821,0.786,7.696,1.429,11.589,2.143c2.661,0.5,5.018,0.857,7.714,1.286c1.196,0.196,2.625,0.214,3.857,0.429
				c0.464,0.089,1.179,0.768,1.714,0.857c1.768,0.321,3.786,0.554,5.554,0.857c7.268,1.286,15.625,2.393,23.143,3.857
				c0.357-1.482-1.053-2.393-1.714-3.429c-1.393-2.232-2.197-3.571-4.697-5.143c-4.018-2.482-9.071-6-13.286-9
				c-5.304-3.75-10.786-7.643-15.857-11.143c-11.107-7.625-21.929-14.929-32.572-21.857c-1.607,0.839-3.179,1.697-6,1.286
				c-1.429-0.286-1.804-1.625-2.143-3c-9.411,0.839-17.893,0.929-27.857,1.714c-1.464,1.268-1.286,4.161-2.571,5.572
				c-1.572,0.286-0.536-2.036-1.714-2.143c-1.625-2.089-5.018-2.411-7.286-3.857c0.053-2.214,0.928-3.625,2.143-4.714
				c2.697-0.893,3.964,1.339,5.554,1.714c1.018,0.25,2.089,0.286,2.589,1.286c3.679-0.268,7.571,0.286,10.714-0.429
				c1.554-0.357,2.554-1.304,3.857-1.714c4.679,0.268,8.089-0.75,12.857-0.429c1.393-0.161,1.089-2.036,1.714-3
				c1.268-0.518,2.357-2.375,5.143-1.714c0.607,0.161,0.821,0.821,1.714,0.857c2.732,0.143,5.714-1.321,9-1.714
				c1.661-0.196,3.071,0.107,4.714,0c5.232-0.286,10.518-0.982,15,0.429c0.589,1.411,1,3,0.857,5.143
				c-2.303,0.572-5.321,0.411-5.589,3c16.928,8.661,33.786,17.375,50.161,26.572c2.679,0.089,5.339-1.393,8.143-1.714
				c4.911-0.536,9.375,0.071,13.714-1.286c1.018-0.304,2.75-1.25,5.143-0.857c1.554-0.428,2.571-1.411,3.839-2.143
				c7.161-0.464,13.911-3.446,21.875-1.714c1.875,1.482,2.071,5.714,1.268,8.571c-0.946,0.786-1.696,1.393-2.981,2.143
				c-0.34,0.196-0.644,0.75-0.857,0.857c-4.196,2.089-12.321,0.661-12.446,7.286c1.964,0.447,3.75-0.803,5.571-1.714
				c1.16-0.554,1.982-0.268,3.857-0.857c0.196-0.054,0.75-0.821,0.875-0.857c1.428-0.286,3.464-0.143,5.143-0.429
				c1.964-0.321,3.304-0.929,4.696-0.857c2.304,0.125,4.875,1.518,7.304,2.571c6.375,2.804,14.107,6.268,20.143,9
				c0.429,2.286,0.143,5.286,0.84,7.286c0.678-0.143,1.5,0.196,2.16,0c0.875-0.25,0.893-1.089,1.696-1.714
				c0.375-0.268,0.875-0.143,1.286-0.428c0.554-0.357,1.125-1.322,1.732-1.714c0.41-0.268,0.875-0.197,1.285-0.429
				c0.911-0.518,3.107-1.518,4.715-2.143c3.785-1.464,12.589-2.911,13.696,2.572c1,4.911-2.125,6.107-4.696,8.571
				c-0.375,0.357-0.929,0.518-1.286,0.857c-0.464,0.429-2.839,0.804-3.429,1.714c0.144,2.143,1.482,3.089,1.286,5.572
				c1.5,0.214,2.785,0.643,4.696,0.428c3.071,5.125,11.804,6.25,9.875,15c1.625,1.786,4.304,1.875,6.411,2.572
				c1.214,0.411,2.268,0.911,3.428,1.286c10.661,3.554,21.875,7.339,33.447,11.143c2.196,0.732,4,1.357,6.428,2.143
				c2.09,0.697,3.482,1.357,6.001,0.429c0.214-0.071,0.696-0.804,0.839-0.856c0.339-0.09,1,0.178,1.286,0
				c1.91-1.107,2.946-4.286,5.16-4.715c1.25-0.232,3,0.357,4.715,0.857c-0.179,2.054,1.231,4.732,0,6.429
				c-0.054,1.768,2.678,0.75,2.143,3c0.518,1.25-0.732,1.196-1.304,1.714c-2,1.911-3.732,5.769-5.554,8.571
				c-1.375,0.232-2.554,0.875-3.857,1.286c-1.285,0.411-2.839,0.411-3.856,0.857c-2.269,1.035-3,3.125-5.144,3.856
				c0,1.857,2.125,1.59,2.144,3.429c-0.286,1.875,0.553,4.857-0.429,6c-2.696,1.179-4.446-2.356-7.286-3
				c-2.304-0.5-4.339,0.732-6.857-0.429c-0.518-3.5,1.59-4.393,2.554-6.428c2.019,0.285,5.144-0.554,6.446,0.428
				c0.822-0.75,1.644-2.035,2.554-3.428c0.929-1.375,2.375-1.732,1.715-3.857c-0.679-2.25-5.696-2.357-9.84-3.429
				c-1.481-0.375-2.981-1.268-4.731-1.714c-1.019-0.25-2.019-0.179-2.982-0.429c-1.554-0.375-3-0.75-5.143-1.286
				c-0.894-0.214-1.375-0.66-2.161-0.857c-1.786-0.428-3.893-0.428-5.571-0.856c-0.84-0.196-1.625-0.625-2.554-0.857
				c-1.75-0.411-3.286-0.857-5.143-1.286c-1.607-0.339-3.429-0.91-5.144-1.285c-0.946-0.196-1.714-0.196-2.571-0.411
				c-1.535-0.393-3.125-1.304-4.714-1.732c-1.679-0.446-3.429-0.803-5.143-1.285c-8.019-2.161-17.697-4.5-25.286-6.857
				c-0.607,0.822,2.285,2.036,3.429,3c0.75,0.643,1.356,1.322,2.554,2.143c1.089,0.75,2.25,2.411,3.875,3
				c2.071,0.375,2.839-0.571,4.285-0.856c5.715,5.125,11.536,10.125,17.571,15c0.304,0.25,0.572,0.66,0.84,0.857
				c0.321,0.25,0.964,0.16,1.304,0.428c1.179,0.982,2.231,2.465,3.429,3.429c0.321,0.286,0.571,0.161,0.839,0.429
				c0.696,0.661,2.357,1.696,3.429,2.571c0.625,0.519,1.035,1.161,1.714,1.715c0.625,0.518,1.482,0.75,2.144,1.285
				c2.018,1.625,3.821,3.429,6.018,5.144c0.304,0.268,0.571,0.643,0.839,0.856c0.321,0.25,0.965,0.161,1.304,0.429
				c0.357,0.304,0.482,1.018,0.84,1.286c0.803,0.625,1.964,1.304,3.018,2.143c2.5,2.036,4.982,4.196,7.696,6.429
				c2.482,2.035,5.036,4.179,7.732,6.429c1.196,1.018,2.785,1.875,3.429,3.429c-1.019,2.571-1.34,5.821-3.429,7.285
				c-0.161,0.75,0.179,1.893,0,2.571c-0.071,0.215-0.786,0.269-0.875,0.429c-0.144,0.34,0.196,0.982,0,1.286
				c-0.5,0.875-2.036,1.821-2.982,2.571c-1.161,0.929-2.143,1.91-3.429,2.143c-0.25,2.196-0.768,4.107-1.714,5.571
				c-1.821,0.09-3.519,1.965-5.144,0.857c-1.446,1.465-1.875,3.215-3.018,5.143c-1.679,2.911-4.643,5.572-5.982,9.429
				c0.375,2.125,3.179,2.715,3.429,5.144c0.215,2.16-1.25,4.143-3,5.571c-1.179,0.339-1.268-1.107-1.714-1.715
				c-1.268-1.625-2.84-3.679-4.732-5.143c-1.554,0-3.125,0-4.696,0c0.589-2.536,1.946-4.321,3.857-5.571
				c1.875-0.018,4-0.286,4.268,1.285c2.125-2.446,4.536-4.606,4.304-9.428c1.429-1.84,3.089-3.465,3.857-6.001
				c0.75-1.518-0.286-1.053-0.429-2.571c-1.482-3.339,0.75-6.66,3.429-7.285c-0.697-1.554,0.821-3.929,0.428-5.571
				c-0.321-1.269-1.339-1.679-3.018-3c-1.089-0.857-2-1.911-2.982-2.572c-0.589-0.375-1.589-0.5-2.16-0.856
				c-0.643-0.394-0.732-0.946-1.268-1.286c-0.75-0.446-1.5-0.446-2.161-0.857c-0.554-0.339-0.786-0.964-1.268-1.285
				c-0.446-0.268-0.946-0.09-1.286-0.429c-1.089-1-3.821-2.75-5.571-3.857c-11.214-7.018-24.5-15.518-34.286-21.856
				c-1.856,0.285-1.481,2.821-3,3.428c-4.429,0.269-8.5-0.339-13.285-0.428c-1.357-0.019-2.911-0.536-3.429-0.429
				c-1.679,0.356-2.429,1.75-3.429,2.571c-1.054,0.875-2.107,1.535-3,2.571c-3.464-0.089-6.196,1.643-9,1.286
				c-3.179-0.375-4.875-3.215-7.714-3.857c-1.429-2.429-2.822-4.893-4.304-7.286c0.285-2.804-0.357-5.196,0-7.285
				c0.481-2.644,2.429-4.269,3.018-6.429c-4.482,2.393-7.25,6.482-11.143,9.429c-1.125-0.59-2.84-0.59-3.857-1.286
				c-23.161,8.893-47.464,17.429-71.143,26.571c-3.536,1.375-6.571,2.286-9,5.144c-4.911,1.303-10.25,3.25-15.857,5.143
				c-1.714,0.589-3.661,1.304-6,2.143c-0.911,0.34-1.768,1.071-2.589,1.286c-1.107,0.321-2.518,0.143-3.839,0.429
				c-2.464,0.571-6.25,1.875-9.429,2.143c-1.625,0.16-3.679-0.125-5.571,0C78.722,258.275,76.115,258.472,73.436,256.739z"/>
		</g>
		<g>
		</g>
	</g>
</g>
</svg>
