<?xml version="1.0" encoding="utf-8"?>
<!-- Generator: Adobe Illustrator 15.0.0, SVG Export Plug-In . SVG Version: 6.00 Build 0)  -->
<!DOCTYPE svg PUBLIC "-//W3C//DTD SVG 1.1//EN" "http://www.w3.org/Graphics/SVG/1.1/DTD/svg11.dtd">
<svg version="1.1" id="Layer_1" xmlns="http://www.w3.org/2000/svg" xmlns:xlink="http://www.w3.org/1999/xlink" x="0px" y="0px"
	 width="400px" height="400px" viewBox="0 0 400 400" enable-background="new 0 0 400 400" xml:space="preserve">
<g id="Layer_2_1_" display="none">
	<rect display="inline" width="400" height="400"/>
</g>
<g id="Layer_2_copy" display="none">
	<rect x="0.5" y="-0.5" display="inline" fill="#474747" width="400" height="400"/>
</g>
<g id="Layer_4" display="none">
	<g id="_x37_C119D_1_" display="inline">
		<g id="XMLID_3_">
			<g>
				<path d="M165.956,264.041c-3.443-4.316-12.398-1.848-10.413,5.554C158.736,273.663,168.719,272.212,165.956,264.041z
					 M181.923,266.818c-0.882-6.297,1.791-16.135-1.389-20.133c-4.554,4.24-7.317,10.268-6.248,20.133
					C177.313,266.29,180.715,267.68,181.923,266.818z M195.113,203.646c13.093-40.042-51.601-31.67-40.264-0.694
					C165.185,206.395,183.693,205.423,195.113,203.646z M200.666,266.124c0.159-10.413,0.193-21.765-2.083-27.769
					c-3.429-1.985-7.421,0.701-9.719,2.082c0.972,8.623,0.743,17.703,0,26.381C192.072,268.373,198.125,267.479,200.666,266.124z
					 M216.633,266.818c0-9.025,0-18.051,0-27.074c-3.021-0.916-7.13-0.743-10.412-1.389c0,9.719,0,19.438,0,29.155
					C209.982,266.688,214.134,267.318,216.633,266.818z M213.161,232.107c1.431-7.588,0.778-19.035-6.94-20.826
					c-12.06-2.805-16.521,10.185-13.191,21.521C199.625,232.455,207.678,233.564,213.161,232.107z M229.823,267.514
					c3.407-7.024,1.382-18.994-5.554-20.134c0.416,6.526-0.867,14.752,0.692,20.134C226.58,267.514,228.205,267.514,229.823,267.514
					z M251.343,201.562c7.304-21.423-30.254-34.467-39.569-18.745c-2.715,4.582-2.608,13.912-0.692,20.827
					C221.756,205.223,243.811,207.609,251.343,201.562z M249.954,268.206c0.806-4.649-1.458-6.524-6.248-5.554
					C230.398,265.359,248.031,279.293,249.954,268.206z M288.83,257.1c1.215-11.439-7.789-26.013-13.885-41.65
					c-5.812-14.912-10.072-31.656-17.354-41.653c-10.976-15.064-41.139-19.083-55.536-4.859
					c-9.65-10.899-40.015-12.718-49.983-0.694c-11.538,18.883-20.542,43.305-29.156,64.562c-2.979,7.346-6.623,15.961-5.554,23.604
					c4.915,1.832,5.2-4.582,6.248-6.942c4.735-10.684,8.914-21.616,13.19-32.628c7.428-19.132,14.155-50.85,38.875-51.371
					c12.273-0.257,18.244,10.565,29.851,9.024c6.748-0.896,13.314-8.816,22.908-9.024c9.448-0.208,15.113,4.186,22.215,9.719
					c10.149,19.139,18.218,42.535,26.381,63.171C279.604,244.859,280.909,254.912,288.83,257.1z M269.393,135.613
					c4.729,13.1,0.459,26.762,2.776,43.735c1.624,11.892,9.304,24.511,13.884,37.487c1.764,4.991,4.367,11.892,6.942,18.744
					c2.138,5.698,7.72,13.717,7.636,18.049c-0.242,13.044-28.754,26.399-38.875,30.545c-52.746,21.591-132.503,9.379-156.89-29.851
					c9.191-21.208,15.946-43.075,24.991-65.949c1.298-3.277,3.666-5.457,4.165-8.331c2.354-13.46-1.402-25.977,0.694-36.793
					c4.679-24.13,23.929-41.396,51.371-43.735C228.663,95.884,259.07,106.984,269.393,135.613z"/>
			</g>
		</g>
	</g>
</g>
<g id="Layer_5_1_" display="none">
	<g id="wC95k9_1_" display="inline">
		<g id="XMLID_2_">
			<g>
				<path fill="#EAEAEA" d="M271.419,200.5c6.751,7.938,13.474,11.706,12.899,23.25c-0.629,12.512-13.119,21.191-17.197,30.227
					c1.32,27.215-27.548,42.711-48.357,27.896c0-6.972,0-13.947,0-20.924c-4.299-9.177-11.69-1.429-18.272-8.138
					c-5.895,5.824-9.472,1.131-16.124,4.65c-2.333,5.994-0.48,16.527-1.074,24.409c-18.902,13.388-49.821,2.163-47.284-25.568
					c-11.19-12.625-29.159-41.501-6.447-54.643c0-10.461,0-20.923,0-31.385c2.276-4.892,5.853-8.391,8.596-12.788
					c41.699,0.898,84.316,0.184,126.814,0C273.236,165.212,271.525,183.726,271.419,200.5z M245.625,197.015
					c6.318-4.799,8.341-14.236,8.604-25.575c-15.41,0.771-33.677-1.548-47.291,1.159
					C219.363,181.245,226.307,195.828,245.625,197.015z M248.855,265.598c0.961-23.666-35.543,0.36-10.752,10.463
					C244.111,273.818,248.602,271.825,248.855,265.598z M229.508,223.75c1.024,7.782,7.415,4.623,12.895,5.811
					C241.193,224.287,234.448,224.994,229.508,223.75z M225.21,227.234c1.321-12.278-7.069-14.053-13.976-17.434
					c0.904,2.893,1.406,6.229,1.074,10.463C215.787,223.475,220.325,225.545,225.21,227.234z M206.938,219.1
					c1.646-2.113,1.646-9.509,0-11.621c-8.941-1.151-15.764-0.008-13.968,10.461C196.433,219.614,201.982,219.035,206.938,219.1z
					 M177.919,186.554c5.415-4.496,15.085-10.081,13.975-15.113c-14.689,0-29.378,0-44.067,0
					c-0.255,11.515,1.788,20.535,7.528,25.575C164.906,198.584,171.762,191.664,177.919,186.554z M175.77,227.234
					c7.444-2.41,15.983-3.633,13.975-16.272C181.15,212.129,175.969,216.984,175.77,227.234z M158.579,256.302
					c-20.952,9.847,16.216,32.892,12.894,6.97C170.653,256.859,164.828,253.361,158.579,256.302z M173.621,223.75
					c-5.697,0.424-11.353,0.896-13.968,4.65C163.103,229.709,172.674,228.889,173.621,223.75z"/>
				<path fill="#EAEAEA" d="M238.104,107.502c21.213,4.022,29.399,25.384,27.943,44.173c-38.604,0.226-85.555-0.063-130.039,0
					c-1.117-21.786,7.882-40.533,27.943-44.173C179.376,104.703,221.117,104.286,238.104,107.502z"/>
				<path fill="#EAEAEA" d="M211.234,257.461c6.983,1.357,5.141,22.034,2.148,26.734
					C207.043,281.665,210.698,263.745,211.234,257.461z"/>
				<path fill="#EAEAEA" d="M200.49,255.136c4.8,4.036,5.549,28.671,0,32.552c-6.263-5.055-2.552-23.744-2.149-32.552
					C199.055,255.136,199.776,255.136,200.49,255.136z"/>
				<path fill="#EAEAEA" d="M190.82,257.461c1.647,7.486,2.142,21.991-1.075,27.9c-7.069-4.758-2.623-17-2.149-27.9
					C188.671,257.461,189.745,257.461,190.82,257.461z"/>
			</g>
		</g>
	</g>
</g>
<g id="Layer_8" display="none">
	<g id="dDBRJe_1_" display="inline">
		<g id="XMLID_5_">
			<g>
				<path d="M240.5,274.648c2.823,2.685,10.434,2.893,12.486-0.693C249.587,270.688,243.205,270.542,240.5,274.648z M183.62,232.336
					c5.126,43.034,77.135,33.961,72.141-10.404c-2.157-19.174-16.897-30.75-37.458-33.296c-0.423,0.042-0.818,0.104-0.693,0.694
					c-5.723,0.52-10.35,2.136-15.26,3.468C189.427,200.809,181.456,214.162,183.62,232.336z M289.057,239.271
					c0.604,3.33,2.52,5.342,5.549,6.244c2.248-1.451,4.102-3.304,5.551-5.552C297.214,237.469,292.234,236.262,289.057,239.271z
					 M275.877,270.486c1.732,0.576,2.727,1.899,4.855,2.08c0.881-1.664,3.037-2.045,2.772-4.854
					c-1.317-1.456-1.887-3.662-4.854-3.468C277.48,266.082,277.049,268.648,275.877,270.486z M271.715,230.255
					c-1.062,2.872-3.579,4.287-2.773,9.019C275.578,244.593,278.193,231.628,271.715,230.255z M323.74,225.398
					c-2.021,52.545-27.205,81.929-65.897,97.807c-14.054-8.005-43.567,6.763-63.123-2.775c-2.435-4.271-3.378-10.029-4.162-15.953
					c-4.168,2.996-7.699,6.64-12.485,9.019c-16.912-2.497-32.269-17.486-19.423-33.988c-3.538,1.097-12.34,2.913-20.116,2.08
					c-23.883-37.854-45.004-78.466-67.979-117.228c3.281-6.201,7.936-11.022,11.099-17.341c17.341,9.711,32.692,21.413,49.25,31.908
					c4.294-5.189,7.728-11.237,12.486-15.954c-15.274-12.236-32.436-22.6-49.25-33.296c4.134-5.806,6.978-12.909,11.792-18.035
					c25.52,2.365,49.853,7.547,74.915,8.324c1.367-1.637-3.343-3.101-4.855-4.162c8.005-12.569,13.263-27.892,24.278-37.458
					c14.421,7.312,26.699,16.766,40.925,24.278c3.719,12.465,4.945,27.42,7.631,40.926c8.92-10.793,26.706-2.789,33.988,6.937
					c0,5.084,0,10.176,0,15.26c4.461-0.16,8.138-1.117,13.181-0.694c11.688,12.59,18.604,29.952,20.81,52.024
					C318.308,220.654,321.575,222.479,323.74,225.398z M259.229,296.152c1.283-1.491,4.086-1.465,3.471-4.855
					c-1.604-3.129-7.824-4.059-7.631,1.387C256.219,294.07,256.934,295.909,259.229,296.152z M266.859,257.309
					c-1.271-7.049-11.361-1.442-6.242,3.467C263.287,260.207,266.79,260.479,266.859,257.309z"/>
				<path d="M245.355,234.417c-2.094,2.989-3.869,6.306-5.549,9.711c-25.541,24.729-65.314-10.835-42.312-37.457
					c3.621-3.08,7.65-5.758,12.486-7.631c19.554-4.758,30.084,5.521,36.068,16.647C245.766,223.43,244.156,228.208,245.355,234.417z
					"/>
				<path d="M191.251,72.794c-7.186,13.395-14.983,26.172-23.584,38.151C149.659,95.838,166.002,62.223,191.251,72.794z"/>
			</g>
		</g>
	</g>
</g>
<g id="Layer_1_1_">
	<g id="_x30_WRF3t_1_">
		<g id="XMLID_1_">
			<g>
				<path fill="#FFFFFF" d="M273.818,198.775c4.173,18.327,5.012,43.317,7.041,61.836c-9.084,6.131-19.066,10.396-28.756,15.156
					c-9.707,4.767-19.496,10.828-32.278,11.521C219.713,241.498,236.943,208.378,273.818,198.775z"/>
				<path fill="#FFFFFF" d="M269.122,179.981c0.088,5.559-6.667,6.396-10.563,7.275c-14.226,3.213-30.732,4.965-44.603,7.881
					c-1.673,30.027,0.146,61.686,0,92.15c-8.41,0-16.826,0-25.236,0c-0.687-28.805,0.458-60.953,0-91.544
					c-13.275-3.358-29.35-5.438-44.603-8.487c-3.832-0.764-10.693-0.794-11.15-6.062c1.426-3.28,7.248-1.716,9.977-1.819
					C182.148,177.914,231.175,179.12,269.122,179.981z"/>
				<path fill="#FFFFFF" d="M195.763,109.05c39.004-3.298,70.295,18.836,72.772,56.988c-41.709,0.794-91.417,1.14-134.981,0
					C135.755,129.753,162.041,111.899,195.763,109.05z M219.238,135.119c-0.799,15.12,27.359,15.071,24.062-0.606
					C237.104,141.696,226.029,140.532,219.238,135.119z"/>
				<path fill="#FFFFFF" d="M127.099,198.169c37.625,10.039,54.562,41.442,55.753,89.119c-13.75-0.267-24.643-7.894-35.212-12.731
					c-9.443-4.322-18.51-8.729-26.41-13.942c1.778-16.353,2.142-34.162,4.695-49.714c-3.416,1.357-8.046-2.314-10.564-5.457
					c-0.17-13.153-4.114-35.331,5.869-40.01c-0.804-15.38,1.978-27.057,1.174-42.438c-2.512-2.255-6.796-2.68-11.737-2.425
					c-1.303-2.467-2.418-5.662-1.174-9.094c8.034-4.705,27.642-4.177,35.799,0c0.305,3.486,0.71,6.142-1.174,8.488
					c-4.619,1.691-13.169-0.667-17.019,1.819C123.97,145.982,128.554,170.76,127.099,198.169z"/>
			</g>
		</g>
	</g>
</g>
<g id="Layer_9" display="none">
	<g id="fC6H6I_1_" display="inline">
		<g id="XMLID_7_">
			<g>
				<path d="M347.046,137.378c0.483,6.045-6.526,10.815-10.41,14.952c-1.104-11.837-2.208-23.674-2.839-35.979
					C334.606,120.197,346.632,132.171,347.046,137.378z"/>
				<path d="M336.636,299.982c4.17,2.269,5.925,6.922,6.625,12.615c2.593,2.734,6.792,3.885,10.41,5.606
					c0.827,3.086,0.354,7.438,0.473,11.214c2.802,2.843,5.966,5.325,7.571,9.348c-17.527,0.027-38.723,1.536-57.729,0.467
					c-2.17-0.127-5.373,0.963-6.151-1.869c0.771-2.823,4.298-2.92,6.625-4.205c0.067-9.744,2.376-17.278,10.41-19.157
					c-0.257-4.926,1.479-7.885,1.893-12.147C322.52,300.684,330.988,299.701,336.636,299.982z"/>
				<path d="M296.889,246.716c7.285-1.858,16.012-4.729,23.188-5.14C322.086,255.613,299.452,259.215,296.889,246.716z"/>
				<path d="M295.943,244.38c-1.342-13.677,18.61-16.13,23.186-6.073C312.868,241.781,304.096,242.773,295.943,244.38z"/>
				<path d="M346.1,300.45c-2.967,4.167-6.27-1.489-10.408-2.336c-6.9-1.411-14.294,1.702-20.819,2.336
					c-1.479,2.901-1.292,7.446-3.786,9.346c-4.988-0.458-0.521-6.669-1.419-10.28c-0.553-1.635-3.51-0.896-4.259-2.336
					c5.479-16.752-3.383-27.675-6.151-42.521c7.738,4.653,19.607,1.538,21.769-6.074c7.541,9.843,5.382,29.263,17.032,35.044
					c-0.168,2.639-1.526,4.1-2.364,6.074C338.135,294.298,344.286,295.232,346.1,300.45z"/>
				<path d="M279.381,179.899c7.443-1.84,15.95-2.628,24.133-3.738C307.102,190.578,280.495,194.286,279.381,179.899z"/>
				<path d="M278.908,177.095c-1.342-14.251,22.357-16.072,24.132-3.271C295.52,175.139,286.145,177.056,278.908,177.095z"/>
				<path d="M316.763,230.361c-4.148,0.391-7.512-1.664-11.829-0.936c-5.422,0.915-7.234,5.948-10.41,7.01
					c-2.928-15.955-7.877-29.914-10.408-46.258c6.713,3.67,16.601,0.915,19.398-4.672
					C308.62,199.776,313.923,213.854,316.763,230.361z"/>
				<path d="M268.971,154.667c22.24,0,44.479,0,66.721,0c-0.946,9.812-1.902,19.615-5.68,26.633
					c-5.886,2.619-15.083,4.4-20.818,5.607c-4.288-9.618-2.573-22.253-14.195-24.297c-10.766-1.889-19.884,5.013-18.454,16.821
					c0.453,3.757,3.265,5.529,3.312,8.878c-12.232,0.817-24.172-6.629-36.436-8.878c2.967-1.587,8.428-0.711,12.775-0.935
					C261.134,171.226,264.289,162.192,268.971,154.667z"/>
				<path d="M274.176,240.643c-8.379-2.162-15.988-5.082-23.658-7.942C254.963,221.387,277.134,225.836,274.176,240.643z"/>
				<path d="M249.57,235.035c8.498,2.044,15.922,5.148,23.66,7.943C269.208,255.271,244.76,250.018,249.57,235.035z"/>
				<path d="M247.678,243.913c3.165,10.094,21.758,11.584,26.498,1.868c3.432,11.564-3.46,33.32,6.625,38.314
					c-0.769,2.199-2.771,3.184-3.785,5.141c2.375,4.352,5.896,7.572,5.205,14.951c-6.428,2.189-7.414-3.902-8.99-7.942
					c-6.31,0-12.619,0-18.928,0c-4.338,2.726-5.273,8.819-12.775,8.409c-2.721-4.633,2.031-8.098,3.312-11.68
					c0.139-1.947-2.738-3.193-2.839-5.607c-0.147-3.389,4.31-5.412,5.205-8.878C249.926,267.928,244.74,254.436,247.678,243.913z"/>
				<path d="M250.044,227.092c5.886-12.256,5.747-30.459,15.615-38.782c4.661,1.625,10.153,2.434,13.722,5.14
					c0.928,4.964,5.018,8.614,5.205,13.551c0.158,4.215-2.957,9.5-4.259,14.483c-1.351,5.209-1.577,10.339-3.312,14.953
					c-2.753-5.287-5.541-11.584-12.777-12.617C258.739,223.032,255.15,225.641,250.044,227.092z"/>
				<path d="M249.57,312.132c0.761-5.479,1.293-11.185,4.26-14.485c5.521,0,11.041,0,16.562,0c3.963,2.317,4.811,7.711,5.678,13.084
					c6.103,2.541,8.32,8.916,7.099,18.689c2.425,1.811,7.245,1.256,6.624,6.074c-18.77,0-37.539,0-56.309,0
					c0.168-3.885,4.041-4.107,6.149-6.074c0.621-4.37,1.449-8.537,2.366-12.615C244.533,315.257,246.751,313.396,249.57,312.132z"/>
				<path d="M227.805,173.357c0.473,0,0.946,0,1.42,0c1.104-2.813,0.157-7.632,0.475-11.214c-0.946,0-1.895,0-2.84,0
					C227.449,165.608,225.656,171.43,227.805,173.357z M233.482,173.357c0.475,0,0.947,0,1.42,0
					c1.104-2.813,0.158-7.632,0.474-11.214c-0.946,0-1.894,0-2.839,0C233.128,165.608,231.334,171.43,233.482,173.357z
					 M240.107,173.357c0.474,0,0.947,0,1.42,0c1.095-2.813,0.158-7.632,0.474-11.214c-0.946,0-1.894,0-2.839,0
					C239.752,165.608,237.958,171.43,240.107,173.357z M245.312,173.357c0.945,0,1.894,0,2.84,0
					c1.045-2.862,0.197-7.593,0.473-11.214c-1.104,0-2.208,0-3.312,0C245.312,165.881,245.312,169.619,245.312,173.357z
					 M144.525,155.602c0-20.092,0-40.184,0-60.276c6.822-2.502,13.722-5.831,21.293-8.878c11.761-4.741,23.797-7.086,29.337-17.288
					c9.729-0.224,22.377,0,35.962,0c10.833,0,23.027-1.674,30.756,0c3.727,0.808,5.758,5.12,8.991,7.009
					c4.11,2.404,9.788,4.01,14.668,6.074c13.969,5.918,30.312,12.665,44.006,18.223c1.193,17.201,2.521,34.266,3.312,51.865
					c-21.924,0-43.848,0-65.771,0c-4.517,7.223-7.976,15.488-12.304,22.896c-12.935,0-25.866,0-38.801,0
					c-1.063-8.576-5.105-11.156-12.304-14.952c-2.603-1.373-6.802-4.118-9.463-4.672
					C180.516,152.73,159.381,157.772,144.525,155.602z"/>
				<path d="M183.799,181.768c3.963-13.443-9.355-23.801-23.186-18.223c-0.522-1.908,2.849-3.621,4.259-5.14
					c9.897,0.954,18.71-2.249,26.971-0.935c7.177,1.139,12.283,8.293,18.454,9.812c1.025,3.816,2.957,6.736,4.26,10.28
					c5.361,0,10.727,0,16.088,0c-5.194,5.179-14.601,6.279-23.187,7.943c-8.764,1.704-18.415,3.358-26.972,3.271
					C180.033,185.837,183.05,184.299,183.799,181.768z"/>
				<path d="M181.433,181.3c-3.627,13.2-28.736,8.158-24.605-7.009C165.897,175.771,173.29,178.916,181.433,181.3z"/>
				<path d="M143.106,224.755c3.726-13.608,8.468-26.215,12.302-39.716c3.756,4.964,12.549,9.384,20.82,5.607
					c-3.312,15.108-9.148,27.724-12.303,42.987C159.992,227.968,153.19,221.396,143.106,224.755z"/>
				<path d="M181.906,178.964c-8.419-1.966-15.891-4.867-24.132-7.009C161.412,159.077,185.849,164.693,181.906,178.964z"/>
				<path d="M200.36,273.35c-10.528,7.672-20.081,16.308-30.756,23.83c-1.045-1.615-2.494-2.832-3.312-4.673
					c0.315-1.868,1.173-3.202,1.893-4.672c-0.197-3.456-4.377-4.399-5.678-7.942c-2.327-6.338,0.571-14.836,0.473-21.961
					c3.825,1.83,6.674,4.623,9.937,7.008c6.911-6.922,13.476,0.635,17.035,5.142C195.067,269.738,199.276,268.988,200.36,273.35z"/>
				<path d="M172.443,251.855c-1.922,2.521-5.865,5.686-9.463,3.736C159.617,243.279,169.948,243.475,172.443,251.855z"/>
				<path d="M161.559,242.511c-8.399-2.452-16.798-4.905-24.605-7.942C141.173,221.99,165.995,227.852,161.559,242.511z"/>
				<path d="M136.008,237.371c7.946,1.052,16.976,5.031,25.079,7.477C157.321,258.018,131.424,253.199,136.008,237.371z"/>
				<path d="M132.222,304.654c-2.839-4.127,2.031-7.68,3.312-10.745c-0.463-2.19-2.375-2.95-2.839-5.14
					c0.808-3.242,2.563-5.568,4.259-7.943c0.522-10.641-1.183-20.803,0.473-29.904c4.791,4.585,16.521,4.867,21.766,0.467
					c1.981,8.295-2.12,19.147,0,26.635c1.075,3.807,4.101,4.856,5.678,7.942c-0.148,2.347-1.518,3.484-1.893,5.606
					c2.208,2.404,7.768,12.266,2.366,12.615c-3.342,0.215-2.642-4.976-4.259-7.478c-7.255,0-14.511,0-21.766,0
					C136.067,298.484,135.545,302.952,132.222,304.654z"/>
				<path d="M135.534,153.265c0-10.591,0-21.182,0-31.773c2.307,0.214,5.541-0.487,7.098,0.467c0,10.436,0,20.871,0,31.306
					C140.266,153.265,137.901,153.265,135.534,153.265z"/>
				<path d="M124.178,320.075c1.459-5.169,8.399-6.152,11.829-8.878c1.094-4.684,0.661-10.873,4.259-13.083
					c8.281,0.545,20.012-2.317,21.766,4.673c-2.07,11.077,6.428,11.72,10.883,16.354c-0.158,3.504,0.227,8.692,0,10.748
					c1.854,2.842,8.379,1.069,8.044,6.073c-4.17,2.502-9.986,1.401-15.142,1.401c-15.28,0-32.669,0-48.264,0
					c-0.552-3.252,4.672-3.312,6.151-7.01C124.839,327.521,123.153,323.706,124.178,320.075z"/>
				<path d="M133.642,153.265c-2.366,0-4.732,0-7.098,0c0-10.124,0-20.248,0-30.372c-0.01-2.482,5.668-1.373,7.098-0.935
					C133.642,132.395,133.642,142.83,133.642,153.265z"/>
				<path d="M125.125,153.265c-2.524,0-5.047,0-7.571,0c0-10.591,0-21.182,0-31.773c2.455,0.224,5.875-0.506,7.571,0.467
					C125.125,132.395,125.125,142.83,125.125,153.265z"/>
				<path d="M105.724,218.682c5.708-4.645,12.795-7.925,20.347-10.748C131.463,222.068,110.18,227.997,105.724,218.682z"/>
				<path d="M103.831,215.877c-3.834-12.956,13.762-19.352,20.82-10.746C118.5,209.491,111.698,213.21,103.831,215.877z"/>
				<path d="M133.642,263.537c-3.766-2.998-4.052-7.534-6.151-11.214c-2.691-4.712-6.615-9.199-9.937-13.552
					c-3.253-4.265-8.083-8.078-8.991-14.019c22.022,9.618,29.524-27.422,5.205-26.633c3.736-6.765,12.411-10.766,19.4-15.887
					c7.009-5.14,13.555-10.932,19.874-14.952c0.956-0.604,1.765-1.44,3.786-0.467c-3.52,3.845-2.711,7.535-3.312,14.018
					c-0.857,9.277-8.015,17.522-8.517,27.102c-3.007,3.416-8.991,3.895-11.356,7.941c0.621,3.952,5.205,4.227,5.678,7.941
					c0.522,4.108-3.618,6.951-5.205,10.748C133.918,244.32,135.653,254.814,133.642,263.537z"/>
				<path d="M45.157,146.256c-1.291,21.338,30.303,20.111,30.284,0.935c-0.01-9.549-8.853-15.799-18.454-14.018
					C49.761,134.517,45.581,139.189,45.157,146.256z M108.09,167.283c-7.413,0-14.826,0-22.239,0
					c-3.253,2.259-3.825,5.607-10.41,4.206c-1.833-0.39-3.47-2.804-3.786-2.804c-1.203,0.029-2.178,2.794-3.312,3.271
					c-4.771,2.024-9.69-0.672-15.142,0c-1.715-2.979-6.27-3.154-11.356-2.804c-1.913-0.292-1.567-2.813-3.312-3.271
					c-4.623-0.205-6.053,2.745-10.883,2.336c0.325-2.346-0.799-3.261-0.473-5.607c4.317-0.564,7.837-1.917,8.517-6.074
					c-2.05-0.925-6.881-0.574-8.991,0c0-1.558,0-3.115,0-4.673c2.317-0.204,4.072-0.963,6.625-0.934
					c-1.292-1.84-2.484-3.777-1.893-7.476c5.55-2.619,11.495-4.848,12.776-11.682c2.317-1.294,4.968-2.258,8.518-2.336
					c0.709-1.012,0.808-2.628,0.946-4.205c6.437-2.054,12.667-4.312,19.874-5.607c0.582,1.294,1.38,2.375,1.419,4.205
					c11.494-1.742,23.117-5.821,33.596-7.009c-0.01,1.548-0.897,2.881,0,4.673c1.43,1.08,4.88,0.165,7.098,0.467
					c0,10.436,0,20.871,0,31.306c-1.893,0-3.785,0-5.678,0c0.306,2.044,0.789,3.894,1.42,5.607c0.207,1.042,2.336,0.185,3.312,0.467
					c0.108,1.509-0.838,1.976-0.473,3.738c-1.893,0-3.786,0-5.678,0C107.489,163.574,108.386,166.018,108.09,167.283z
					 M78.753,142.051c4.258-0.312,9.779,0.623,13.249-0.467c-2.918-3.504-5.353-7.486-8.044-11.214c-4.889,0-9.779,0-14.668,0
					C72.02,134.682,77.599,136.181,78.753,142.051z M91.055,130.37c1.519,4.108,4.328,6.941,5.678,11.214
					c2.583,0.72,6.21,0.409,9.464,0.467c-0.079-4.127-0.266-8.148-0.946-11.682C100.519,130.37,95.787,130.37,91.055,130.37z
					 M98.627,147.658c0,2.181,0,4.361,0,6.542c2.523,0,5.047,0,7.571,0c0.956-1.392,0.266-4.41,0.473-6.542
					C105.133,147.113,101.495,148.009,98.627,147.658z"/>
				<path d="M56.987,135.042c10.479-2.249,16.226,3.913,16.562,11.681c0.729,16.792-27.888,19.235-26.498-0.467
					C47.434,140.834,50.53,136.425,56.987,135.042z"/>
			</g>
		</g>
	</g>
</g>
<g id="Layer_10" display="none">
	<g id="_x31_2AD1y_1_" display="inline">
		<g id="XMLID_8_">
			<g>
				<path d="M256.5,328.5c1.42-13.67,11.57-27.87,14-44c5.939-39.42-4.48-86.93,0-125c6.13-1.79,22.189-2.28,27,6
					c6.05,10.4,2,39.45,2,58c0,20.21-2.439,43.45,0,60c3.09,20.971,13.64,31.01,14,45C294.5,328.5,275.5,328.5,256.5,328.5z"/>
				<path d="M139.5,151.5c-2.82-39.08,18.4-66.39,49-71c47.26-7.13,78.15,25.16,74,71C223.83,152.98,180.92,150.56,139.5,151.5z
					 M218.5,119.5c7.391-33.15-31.97-33.54-35-12C180.4,129.59,209.221,135.87,218.5,119.5z M229.5,127.5c-0.939,4.7-1.1,8.8,2,13
					C255.55,145.62,244.04,114.46,229.5,127.5z"/>
				<path d="M235.5,228.5c5.54-28.52-42.47-11.3-64-16c-5.12,1.471-6.25,10.26-4,16C187.89,230.18,215.111,230.13,235.5,228.5z
					 M224.5,195.5c12.92-1.76,15.62-8.71,10-17c-19.721-2.28-43.63-0.37-65-1C148.58,198.17,198.96,198.97,224.5,195.5z
					 M139.5,231.5c-2.08,1.12-2.12,1.08-1-1c0-23.67,0-47.33,0-71c39.34-2.33,83-0.34,124-1c3.439,29.48,2,60.51,2,94
					c0,9.41,2.63,22.42,0,31c-0.609,2-11.84,16.04-19,18c-10.32,2.83-28.87,0-44,0c-16.05,0-33.84,2.45-44,0
					c-7.38-1.779-18.01-14.12-19-18c-1.42-5.55,1-10.43,1-15C139.5,257.62,137.52,247.01,139.5,231.5z"/>
				<path d="M90.5,328.5c1.88-14.2,11.09-24.91,14-43c2.61-16.23,0-40.3,0-61c0-32.65-8.14-75.82,29-65
					c-1.59,33.89-0.89,69.74-2,101c-0.86,24.279,7.91,45.62,13,68C126.5,328.5,108.5,328.5,90.5,328.5z"/>
			</g>
		</g>
	</g>
</g>
<g id="Layer_6" display="none">
	<g id="Te7uNE_1_" display="inline">
		<g id="XMLID_4_">
			<g>
				<path d="M170.863,317.521c0-6.801,0-13.602,0-20.398c-10.992-12.219-9.84,17.08-7.061,22.359
					C166.965,320.496,169.4,319.295,170.863,317.521z M192.047,285.354c0.916-17.521,0.131-36.744,0.393-54.92
					c-1.888-2.287-5.255-3.425-7.846-1.177c-1.544,17.022-0.801,38.429-0.392,56.097
					C185.983,287.658,190.306,287.83,192.047,285.354z M202.639,204.15c0-19.876,0-39.752,0-59.628
					c-2.166-0.18-6.383-1.177-7.846,0.392c0,19.746,0,39.491,0,59.236C197.408,204.15,200.023,204.15,202.639,204.15z
					 M212.445,256.717c0-8.688,2.094-22.867-0.783-27.068c-2.289-3.342-6.48-1.396-8.238,0.785
					c0.262,18.176-0.523,37.398,0.393,54.92c2.199,2.901,7.004,1.972,8.632-0.783C212.445,277.573,212.445,267.84,212.445,256.717z
					 M232.452,319.482c3.098-6.728,3.629-32.273-7.062-22.752C225.98,305.271,220.7,322.425,232.452,319.482z M308.164,245.732
					c0,11.146,1.218,22.336-1.569,30.207c-7.135,4.828-19.155-0.106-27.853,1.961c-3.236,0.769-6.652,4.453-10.199,6.274
					c-8.386,4.31-17.809,7.495-27.46,9.415c-0.612,15.332,3.687,34.344-10.592,35.309c-14.589,0.979-13.15-16.133-12.161-30.991
					c-12.732,0.687-28.229,1.159-40.014,0.393c-1.226,13.403,2.795,29.536-10.2,30.599c-15.757,1.291-13.027-17.316-12.945-33.735
					c-12.708-3.122-24.232-6.293-34.129-11.771c-3.473-1.92-6.857-4.961-9.807-5.492c-5.606-1.004-12.529,1.514-17.653-0.782
					c-6.53-2.927-4.707-17.67-4.707-28.245c0-33.777-0.319-67.842,0.392-99.642c2.223,0,4.446,0,6.669,0
					c0.916,29.16,0.131,60.021,0.392,89.833c7.47-0.312,14.074,1.798,21.184,0.394c4.454-0.883,9.309-4.979,13.73-6.669
					c5.435-2.076,11.482-2.738,16.083-4.707c3.089-1.324,5.95-4.527,9.023-6.669c3-2.095,6.326-4.528,9.807-5.886
					c5.198-2.025,9.521-1.831,13.73-4.706c0.482-39.353,0.809-80.42,5.492-115.333c2.207-16.436,4.348-32.527,10.592-43.544
					c0.916,0,1.831,0,2.746,0c2.575,2.436,4.364,5.729,5.492,9.023c8.41,24.477,8.32,56.49,10.592,88.265
					c0.564,7.87,0.842,16.435,0.785,25.106c-0.072,11.54,2.288,24.902,1.178,38.837c3.693,1.25,7.15,1.896,10.592,3.53
					c5.894,2.795,10.592,8.559,15.69,10.982c4.554,2.175,10.56,2.951,16.084,5.102c4.69,1.82,9.881,5.844,14.515,6.669
					c8.9,1.586,17.222-1.151,27.461,0c0.517-29.953-1.037-61.786,0.785-90.227c2.092,0,4.186,0,6.275,0
					C308.164,179.321,308.164,214.325,308.164,245.732z"/>
			</g>
		</g>
	</g>
</g>
<g id="Layer_7" display="none">
	<g id="tZx3Bj_2_" display="inline">
		<g id="XMLID_6_">
			<g>
				<path d="M300.557,213.652c-0.045,2.334,0.694,5.578,0.303,7.591c-0.475,2.416-3.75,4.301-4.25,6.375
					c-0.854,3.536,0,9.089,0,13.661c0,13.104-0.803,26.521-0.606,39.164c0.203,13.147-0.082,25.697-1.519,37.947
					c-0.438,3.699,0.062,7.926-2.43,10.93c-3.466-15.646-3.074-35.607-3.945-58.896c-0.366-9.732-0.342-21.043-0.606-32.181
					c-0.089-3.729,0.367-8.405-0.304-10.626c-0.646-2.133-4.23-4.035-6.072-5.465c-1.984-1.545-4.697-4.125-6.679-4.555
					c-2.498-0.545-6.229,0.404-9.411,0.91c-8.146,1.29-18.314,2.973-25.807,4.555c-8.476,12.512-18.961,21.183-36.733,23.072
					c-2.004,0.215-3.371,0.229-5.768,0c-14.338-1.348-25.515-7.361-32.181-15.482c-1.98-2.409-3.188-6.756-6.072-8.805
					c-3.182-2.259-9.209-2.688-13.662-3.947c-4.87-1.379-9.247-3.004-12.751-3.944c-5.515,2.274-10.752,4.832-16.09,7.286
					c-2.751,36.007-3.295,74.222-8.197,108.076c-2.043-3.396-1.815-7.76-2.125-11.84c-1.632-21.41-1.025-45.65-0.304-68.609
					c0.139-4.354-0.196-9.299,0-13.967c0.183-4.34,1.271-9.277,0.607-12.446c-0.639-3.062-5.028-4.743-5.768-7.59
					c-0.848-3.275,0-7.899,0-11.841c0-4.198-0.645-8.848,0-11.839c0.683-3.144,4.263-4.965,4.857-7.59c0.658-2.909,0-9.177,0-13.358
					c0-12.75-0.341-26.482,0.304-40.074c1.101-23.345-0.158-46.646,3.339-64.058c1.651,1.815,1.6,4.661,1.822,6.982
					c1.334,13.94,1.613,29.587,2.125,45.842c0.208,6.672,0.911,13.598,0.911,20.34c0,6.938-0.335,14.256,0,21.251
					c0.335,7.04-0.405,14.478,0.607,20.644c0.5,3.049,2.637,4.833,3.643,7.894c4.965,1.815,10.056,3.504,14.876,5.464
					c8.608-1.714,16.033-4.61,25.198-5.768c6.255-10.202,14.003-17.741,26.716-22.466c22.004-8.184,47.676,4.693,55.253,22.466
					c8.06,0.98,17.83,4.124,26.413,6.375c3.018,0.791,6.762,1.923,9.105,1.821c4.326-0.189,7.545-5.844,11.537-7.893
					c0.127-38.056,0.209-76.505,2.731-111.721c0.253-3.523,1.062-7.432,1.821-10.929c0-0.304,0-0.607,0-0.911
					c0.492-0.082,0.525,0.285,0.91,0.304c2.81,17.349,2.512,37.803,3.037,58.29c0.43,16.862,0.604,36.159,0.604,54.646
					c0,2.448-0.664,5.769-0.304,7.286c0.633,2.65,4.295,2.809,5.16,5.769C300.941,199.846,300.689,207.126,300.557,213.652z
					 M215.55,220.027c13.819-12.086,7.388-37.675-11.84-40.073c-1.974-0.247-5.895,0.139-6.982,0.304
					c-12.245,1.828-21.739,13.82-18.519,27.93c1.429,6.256,6.122,11.967,11.84,14.877
					C197.841,227.036,209.188,225.596,215.55,220.027z"/>
				<path d="M216.766,189.062c3.863,3.017,5.705,8.058,5.463,15.18c-3.4-0.432-6.451,0.088-9.41-0.305
					c0.576-4.119-1.17-5.915-1.82-8.805C212.307,193.471,214.702,190.916,216.766,189.062z"/>
				<path d="M222.229,205.456c-0.81,5.667-3.438,9.513-6.375,13.055c-2.72-1.632-4.49-4.212-6.679-6.375
					c1.304-2.139,2.974-3.909,3.644-6.68C215.506,205.178,219.611,204.805,222.229,205.456z"/>
				<path d="M216.157,187.848c-2.087,2.264-4.067,4.636-6.679,6.375c-2.119-1.929-4.693-3.403-8.197-3.947c0-3.036,0-6.072,0-9.108
					C208.074,181.561,212.805,184.015,216.157,187.848z"/>
				<path d="M207.354,212.742c2.922,1.732,5.28,4.029,6.982,6.982c-3.518,2.252-7.197,4.338-13.055,4.25c0-3.035,0-6.072,0-9.107
					C203.198,214.836,205.771,213.988,207.354,212.742z"/>
				<path d="M199.763,191.188c7.836-0.5,14.693,8.406,10.928,16.394c-1.156,2.454-5.256,5.9-7.59,6.376
					c-8.033,1.632-16.515-5.308-13.663-15.18C190.352,195.627,194.058,191.548,199.763,191.188z"/>
				<path d="M199.763,214.867c0,3.035,0,6.072,0,9.107c-5.724-0.045-9.841-1.695-13.054-4.25c1.221-3.029,4.225-4.275,6.072-6.681
					C195.362,213.4,196.696,215,199.763,214.867z"/>
				<path d="M199.763,181.169c0,3.036,0,6.072,0,9.108c-2.802,0.253-6.268,1.866-8.5,3.643c-2.505-1.645-4.396-3.902-6.375-6.072
					C187.885,183.661,192.939,181.53,199.763,181.169z"/>
				<path d="M190.049,195.438c0.069,1.315-1.689,2.498-2.125,3.947c-0.569,1.885,0.31,3.289-0.911,4.857
					c-3.017,0.184-5.521-0.729-8.197,0c-0.86-6.332,1.752-11.796,4.554-15.483C185.084,189.518,189.96,193.856,190.049,195.438z"/>
				<path d="M187.924,205.152c0.544,2.998,2.106,4.978,3.946,6.68c-1.847,2.605-4.073,4.832-6.679,6.679
					c-3.099-3.479-5.939-7.217-6.375-13.358C182.313,204.938,184.945,205.646,187.924,205.152z"/>
			</g>
		</g>
	</g>
</g>
</svg>
