<?xml version="1.0" encoding="utf-8"?>
<!-- Generator: Adobe Illustrator 17.1.0, SVG Export Plug-In . SVG Version: 6.00 Build 0)  -->
<!DOCTYPE svg PUBLIC "-//W3C//DTD SVG 1.1//EN" "http://www.w3.org/Graphics/SVG/1.1/DTD/svg11.dtd">
<svg version="1.1" id="Layer_1" xmlns="http://www.w3.org/2000/svg" xmlns:xlink="http://www.w3.org/1999/xlink" x="0px" y="0px"
	 viewBox="0 0 400 400" enable-background="new 0 0 400 400" xml:space="preserve">
<g id="Layer_1_2_" display="none">
	<g id="Layer_2_1_" display="inline">
		<rect width="400" height="400"/>
	</g>
	<g id="Layer_2_copy" display="inline">
		<rect x="0.5" y="-0.5" fill="#474747" width="400" height="400"/>
	</g>
	<g id="Layer_4" display="inline">
		<g id="_x37_C119D_1_">
			<g id="XMLID_3_">
				<g>
					<path d="M166,264c-3.4-4.3-12.4-1.8-10.4,5.6C158.7,273.7,168.7,272.2,166,264z M181.9,266.8c-0.9-6.3,1.8-16.1-1.4-20.1
						c-4.6,4.2-7.3,10.3-6.2,20.1C177.3,266.3,180.7,267.7,181.9,266.8z M195.1,203.6c13.1-40-51.6-31.7-40.3-0.7
						C165.2,206.4,183.7,205.4,195.1,203.6z M200.7,266.1c0.2-10.4,0.2-21.8-2.1-27.8c-3.4-2-7.4,0.7-9.7,2.1c1,8.6,0.7,17.7,0,26.4
						C192.1,268.4,198.1,267.5,200.7,266.1z M216.6,266.8c0-9,0-18.1,0-27.1c-3-0.9-7.1-0.7-10.4-1.4c0,9.7,0,19.4,0,29.2
						C210,266.7,214.1,267.3,216.6,266.8z M213.2,232.1c1.4-7.6,0.8-19-6.9-20.8c-12.1-2.8-16.5,10.2-13.2,21.5
						C199.6,232.5,207.7,233.6,213.2,232.1z M229.8,267.5c3.4-7,1.4-19-5.6-20.1c0.4,6.5-0.9,14.8,0.7,20.1
						C226.6,267.5,228.2,267.5,229.8,267.5z M251.3,201.6c7.3-21.4-30.3-34.5-39.6-18.7c-2.7,4.6-2.6,13.9-0.7,20.8
						C221.8,205.2,243.8,207.6,251.3,201.6z M250,268.2c0.8-4.6-1.5-6.5-6.2-5.6C230.4,265.4,248,279.3,250,268.2z M288.8,257.1
						c1.2-11.4-7.8-26-13.9-41.7c-5.8-14.9-10.1-31.7-17.4-41.7c-11-15.1-41.1-19.1-55.5-4.9c-9.6-10.9-40-12.7-50-0.7
						c-11.5,18.9-20.5,43.3-29.2,64.6c-3,7.3-6.6,16-5.6,23.6c4.9,1.8,5.2-4.6,6.2-6.9c4.7-10.7,8.9-21.6,13.2-32.6
						c7.4-19.1,14.2-50.9,38.9-51.4c12.3-0.3,18.2,10.6,29.9,9c6.7-0.9,13.3-8.8,22.9-9c9.4-0.2,15.1,4.2,22.2,9.7
						c10.1,19.1,18.2,42.5,26.4,63.2C279.6,244.9,280.9,254.9,288.8,257.1z M269.4,135.6c4.7,13.1,0.5,26.8,2.8,43.7
						c1.6,11.9,9.3,24.5,13.9,37.5c1.8,5,4.4,11.9,6.9,18.7c2.1,5.7,7.7,13.7,7.6,18c-0.2,13-28.8,26.4-38.9,30.5
						c-52.7,21.6-132.5,9.4-156.9-29.9c9.2-21.2,15.9-43.1,25-65.9c1.3-3.3,3.7-5.5,4.2-8.3c2.4-13.5-1.4-26,0.7-36.8
						c4.7-24.1,23.9-41.4,51.4-43.7C228.7,95.9,259.1,107,269.4,135.6z"/>
				</g>
			</g>
		</g>
	</g>
	<g id="Layer_5_1_" display="inline">
		<g id="wC95k9_1_">
			<g id="XMLID_2_">
				<g>
					<path fill="#FFFFFF" d="M271.4,200.5c6.8,7.9,13.5,11.7,12.9,23.2c-0.6,12.5-13.1,21.2-17.2,30.2c1.3,27.2-27.5,42.7-48.4,27.9
						c0-7,0-13.9,0-20.9c-4.3-9.2-11.7-1.4-18.3-8.1c-5.9,5.8-9.5,1.1-16.1,4.6c-2.3,6-0.5,16.5-1.1,24.4
						c-18.9,13.4-49.8,2.2-47.3-25.6c-11.2-12.6-29.2-41.5-6.4-54.6c0-10.5,0-20.9,0-31.4c2.3-4.9,5.9-8.4,8.6-12.8
						c41.7,0.9,84.3,0.2,126.8,0C273.2,165.2,271.5,183.7,271.4,200.5z M245.6,197c6.3-4.8,8.3-14.2,8.6-25.6
						c-15.4,0.8-33.7-1.5-47.3,1.2C219.4,181.2,226.3,195.8,245.6,197z M248.9,265.6c1-23.7-35.5,0.4-10.8,10.5
						C244.1,273.8,248.6,271.8,248.9,265.6z M229.5,223.8c1,7.8,7.4,4.6,12.9,5.8C241.2,224.3,234.4,225,229.5,223.8z M225.2,227.2
						c1.3-12.3-7.1-14.1-14-17.4c0.9,2.9,1.4,6.2,1.1,10.5C215.8,223.5,220.3,225.5,225.2,227.2z M206.9,219.1
						c1.6-2.1,1.6-9.5,0-11.6c-8.9-1.2-15.8,0-14,10.5C196.4,219.6,202,219,206.9,219.1z M177.9,186.6c5.4-4.5,15.1-10.1,14-15.1
						c-14.7,0-29.4,0-44.1,0c-0.3,11.5,1.8,20.5,7.5,25.6C164.9,198.6,171.8,191.7,177.9,186.6z M175.8,227.2
						c7.4-2.4,16-3.6,14-16.3C181.1,212.1,176,217,175.8,227.2z M158.6,256.3c-21,9.8,16.2,32.9,12.9,7
						C170.7,256.9,164.8,253.4,158.6,256.3z M173.6,223.8c-5.7,0.4-11.4,0.9-14,4.6C163.1,229.7,172.7,228.9,173.6,223.8z"/>
					<path fill="#FFFFFF" d="M238.1,107.5c21.2,4,29.4,25.4,27.9,44.2c-38.6,0.2-85.6-0.1-130,0c-1.1-21.8,7.9-40.5,27.9-44.2
						C179.4,104.7,221.1,104.3,238.1,107.5z"/>
					<path fill="#FFFFFF" d="M211.2,257.5c7,1.4,5.1,22,2.1,26.7C207,281.7,210.7,263.7,211.2,257.5z"/>
					<path fill="#FFFFFF" d="M200.5,255.1c4.8,4,5.5,28.7,0,32.6c-6.3-5.1-2.6-23.7-2.1-32.6C199.1,255.1,199.8,255.1,200.5,255.1z"
						/>
					<path fill="#FFFFFF" d="M190.8,257.5c1.6,7.5,2.1,22-1.1,27.9c-7.1-4.8-2.6-17-2.1-27.9C188.7,257.5,189.7,257.5,190.8,257.5z"
						/>
				</g>
			</g>
		</g>
	</g>
	<g id="Layer_1_1_" display="inline">
		<g id="_x30_WRF3t_1_">
			<g id="XMLID_1_">
				<g>
					<path fill="#FFFFFF" d="M273.8,198.8c4.2,18.3,5,43.3,7,61.8c-9.1,6.1-19.1,10.4-28.8,15.2c-9.7,4.8-19.5,10.8-32.3,11.5
						C219.7,241.5,236.9,208.4,273.8,198.8z"/>
					<path fill="#FFFFFF" d="M219.2,135.1c-0.8,15.1,27.4,15.1,24.1-0.6C237.1,141.7,226,140.5,219.2,135.1z M133.6,166
						c2.2-36.3,28.5-54.1,62.2-57c39-3.3,70.3,18.8,72.8,57C226.8,166.8,177.1,167.2,133.6,166z"/>
					<path fill="#FFFFFF" d="M133,181.2c1.4-3.3,7.2-1.7,10-1.8c39.2-1.5,88.2-0.3,126.2,0.6c0.1,5.6-6.7,6.4-10.6,7.3
						c-14.2,3.2-30.7,5-44.6,7.9c-1.7,30,0.1,61.7,0,92.1c-8.4,0-16.8,0-25.2,0c-0.7-28.8,0.5-61,0-91.5
						c-13.3-3.4-29.4-5.4-44.6-8.5C140.3,186.5,133.4,186.5,133,181.2z"/>
					<path fill="#FFFFFF" d="M121.2,165.4c-0.8-15.4,2-27.1,1.2-42.4c-2.5-2.3-6.8-2.7-11.7-2.4c-1.3-2.5-2.4-5.7-1.2-9.1
						c8-4.7,27.6-4.2,35.8,0c0.3,3.5,0.7,6.1-1.2,8.5c-4.6,1.7-13.2-0.7-17,1.8c-3.1,24.2,1.5,49,0,76.4
						c37.6,10,54.6,41.4,55.8,89.1c-13.8-0.3-24.6-7.9-35.2-12.7c-9.4-4.3-18.5-8.7-26.4-13.9c1.8-16.4,2.1-34.2,4.7-49.7
						c-3.4,1.4-8-2.3-10.6-5.5C115.2,192.3,111.2,170.1,121.2,165.4z"/>
				</g>
			</g>
		</g>
	</g>
	<g id="Layer_6" display="inline">
		<g id="Te7uNE_1_">
			<g id="XMLID_4_">
				<g>
					<path d="M170.9,317.5c0-6.8,0-13.6,0-20.4c-11-12.2-9.8,17.1-7.1,22.4C167,320.5,169.4,319.3,170.9,317.5z M192,285.4
						c0.9-17.5,0.1-36.7,0.4-54.9c-1.9-2.3-5.3-3.4-7.8-1.2c-1.5,17-0.8,38.4-0.4,56.1C186,287.7,190.3,287.8,192,285.4z
						 M202.6,204.1c0-19.9,0-39.8,0-59.6c-2.2-0.2-6.4-1.2-7.8,0.4c0,19.7,0,39.5,0,59.2C197.4,204.1,200,204.1,202.6,204.1z
						 M212.4,256.7c0-8.7,2.1-22.9-0.8-27.1c-2.3-3.3-6.5-1.4-8.2,0.8c0.3,18.2-0.5,37.4,0.4,54.9c2.2,2.9,7,2,8.6-0.8
						C212.4,277.6,212.4,267.8,212.4,256.7z M232.5,319.5c3.1-6.7,3.6-32.3-7.1-22.8C226,305.3,220.7,322.4,232.5,319.5z
						 M308.2,245.7c0,11.1,1.2,22.3-1.6,30.2c-7.1,4.8-19.2-0.1-27.9,2c-3.2,0.8-6.7,4.5-10.2,6.3c-8.4,4.3-17.8,7.5-27.5,9.4
						c-0.6,15.3,3.7,34.3-10.6,35.3c-14.6,1-13.1-16.1-12.2-31c-12.7,0.7-28.2,1.2-40,0.4c-1.2,13.4,2.8,29.5-10.2,30.6
						c-15.8,1.3-13-17.3-12.9-33.7c-12.7-3.1-24.2-6.3-34.1-11.8c-3.5-1.9-6.9-5-9.8-5.5c-5.6-1-12.5,1.5-17.7-0.8
						c-6.5-2.9-4.7-17.7-4.7-28.2c0-33.8-0.3-67.8,0.4-99.6c2.2,0,4.4,0,6.7,0c0.9,29.2,0.1,60,0.4,89.8c7.5-0.3,14.1,1.8,21.2,0.4
						c4.5-0.9,9.3-5,13.7-6.7c5.4-2.1,11.5-2.7,16.1-4.7c3.1-1.3,5.9-4.5,9-6.7c3-2.1,6.3-4.5,9.8-5.9c5.2-2,9.5-1.8,13.7-4.7
						c0.5-39.4,0.8-80.4,5.5-115.3c2.2-16.4,4.3-32.5,10.6-43.5c0.9,0,1.8,0,2.7,0c2.6,2.4,4.4,5.7,5.5,9
						c8.4,24.5,8.3,56.5,10.6,88.3c0.6,7.9,0.8,16.4,0.8,25.1c-0.1,11.5,2.3,24.9,1.2,38.8c3.7,1.2,7.1,1.9,10.6,3.5
						c5.9,2.8,10.6,8.6,15.7,11c4.6,2.2,10.6,3,16.1,5.1c4.7,1.8,9.9,5.8,14.5,6.7c8.9,1.6,17.2-1.2,27.5,0c0.5-30-1-61.8,0.8-90.2
						c2.1,0,4.2,0,6.3,0C308.2,179.3,308.2,214.3,308.2,245.7z"/>
				</g>
			</g>
		</g>
	</g>
	<g id="Layer_7" display="inline">
		<g id="tZx3Bj_2_">
			<g id="XMLID_6_">
				<g>
					<path d="M300.6,213.7c0,2.3,0.7,5.6,0.3,7.6c-0.5,2.4-3.8,4.3-4.2,6.4c-0.9,3.5,0,9.1,0,13.7c0,13.1-0.8,26.5-0.6,39.2
						c0.2,13.1-0.1,25.7-1.5,37.9c-0.4,3.7,0.1,7.9-2.4,10.9c-3.5-15.6-3.1-35.6-3.9-58.9c-0.4-9.7-0.3-21-0.6-32.2
						c-0.1-3.7,0.4-8.4-0.3-10.6c-0.6-2.1-4.2-4-6.1-5.5c-2-1.5-4.7-4.1-6.7-4.6c-2.5-0.5-6.2,0.4-9.4,0.9c-8.1,1.3-18.3,3-25.8,4.6
						c-8.5,12.5-19,21.2-36.7,23.1c-2,0.2-3.4,0.2-5.8,0c-14.3-1.3-25.5-7.4-32.2-15.5c-2-2.4-3.2-6.8-6.1-8.8
						c-3.2-2.3-9.2-2.7-13.7-3.9c-4.9-1.4-9.2-3-12.8-3.9c-5.5,2.3-10.8,4.8-16.1,7.3c-2.8,36-3.3,74.2-8.2,108.1
						c-2-3.4-1.8-7.8-2.1-11.8c-1.6-21.4-1-45.7-0.3-68.6c0.1-4.4-0.2-9.3,0-14c0.2-4.3,1.3-9.3,0.6-12.4c-0.6-3.1-5-4.7-5.8-7.6
						c-0.8-3.3,0-7.9,0-11.8c0-4.2-0.6-8.8,0-11.8c0.7-3.1,4.3-5,4.9-7.6c0.7-2.9,0-9.2,0-13.4c0-12.8-0.3-26.5,0.3-40.1
						c1.1-23.3-0.2-46.6,3.3-64.1c1.7,1.8,1.6,4.7,1.8,7c1.3,13.9,1.6,29.6,2.1,45.8c0.2,6.7,0.9,13.6,0.9,20.3
						c0,6.9-0.3,14.3,0,21.3c0.3,7-0.4,14.5,0.6,20.6c0.5,3,2.6,4.8,3.6,7.9c5,1.8,10.1,3.5,14.9,5.5c8.6-1.7,16-4.6,25.2-5.8
						c6.3-10.2,14-17.7,26.7-22.5c22-8.2,47.7,4.7,55.3,22.5c8.1,1,17.8,4.1,26.4,6.4c3,0.8,6.8,1.9,9.1,1.8
						c4.3-0.2,7.5-5.8,11.5-7.9c0.1-38.1,0.2-76.5,2.7-111.7c0.3-3.5,1.1-7.4,1.8-10.9c0-0.3,0-0.6,0-0.9c0.5-0.1,0.5,0.3,0.9,0.3
						c2.8,17.3,2.5,37.8,3,58.3c0.4,16.9,0.6,36.2,0.6,54.6c0,2.4-0.7,5.8-0.3,7.3c0.6,2.6,4.3,2.8,5.2,5.8
						C300.9,199.8,300.7,207.1,300.6,213.7z M215.6,220c13.8-12.1,7.4-37.7-11.8-40.1c-2-0.2-5.9,0.1-7,0.3
						c-12.2,1.8-21.7,13.8-18.5,27.9c1.4,6.3,6.1,12,11.8,14.9C197.8,227,209.2,225.6,215.6,220z"/>
					<path d="M216.8,189.1c3.9,3,5.7,8.1,5.5,15.2c-3.4-0.4-6.5,0.1-9.4-0.3c0.6-4.1-1.2-5.9-1.8-8.8
						C212.3,193.5,214.7,190.9,216.8,189.1z"/>
					<path d="M222.2,205.5c-0.8,5.7-3.4,9.5-6.4,13.1c-2.7-1.6-4.5-4.2-6.7-6.4c1.3-2.1,3-3.9,3.6-6.7
						C215.5,205.2,219.6,204.8,222.2,205.5z"/>
					<path d="M216.2,187.8c-2.1,2.3-4.1,4.6-6.7,6.4c-2.1-1.9-4.7-3.4-8.2-3.9c0-3,0-6.1,0-9.1C208.1,181.6,212.8,184,216.2,187.8z"
						/>
					<path d="M207.4,212.7c2.9,1.7,5.3,4,7,7c-3.5,2.3-7.2,4.3-13.1,4.2c0-3,0-6.1,0-9.1C203.2,214.8,205.8,214,207.4,212.7z"/>
					<path d="M199.8,191.2c7.8-0.5,14.7,8.4,10.9,16.4c-1.2,2.5-5.3,5.9-7.6,6.4c-8,1.6-16.5-5.3-13.7-15.2
						C190.4,195.6,194.1,191.5,199.8,191.2z"/>
					<path d="M199.8,214.9c0,3,0,6.1,0,9.1c-5.7,0-9.8-1.7-13.1-4.2c1.2-3,4.2-4.3,6.1-6.7C195.4,213.4,196.7,215,199.8,214.9z"/>
					<path d="M199.8,181.2c0,3,0,6.1,0,9.1c-2.8,0.3-6.3,1.9-8.5,3.6c-2.5-1.6-4.4-3.9-6.4-6.1C187.9,183.7,192.9,181.5,199.8,181.2
						z"/>
					<path d="M190,195.4c0.1,1.3-1.7,2.5-2.1,3.9c-0.6,1.9,0.3,3.3-0.9,4.9c-3,0.2-5.5-0.7-8.2,0c-0.9-6.3,1.8-11.8,4.6-15.5
						C185.1,189.5,190,193.9,190,195.4z"/>
					<path d="M187.9,205.2c0.5,3,2.1,5,3.9,6.7c-1.8,2.6-4.1,4.8-6.7,6.7c-3.1-3.5-5.9-7.2-6.4-13.4
						C182.3,204.9,184.9,205.6,187.9,205.2z"/>
				</g>
			</g>
		</g>
	</g>
	<path display="inline" fill="#231F20" d="M148.2,221.9c-1.1,0-2.2-0.2-3.3-0.3l-30.6,81.6h67.9l-30.6-81.6
		C150.4,221.7,149.3,221.9,148.2,221.9"/>
	<path display="inline" fill="#231F20" d="M127.2,204.8H79.7l26.6,95.3l30.6-81.5C131.9,215.5,128.4,210.6,127.2,204.8"/>
	<path display="inline" fill="#231F20" d="M169.1,204.8c-1.2,5.8-4.8,10.7-9.6,13.8l30.6,81.5l25.4-95.3L169.1,204.8L169.1,204.8z"
		/>
	<path display="inline" fill="#231F20" d="M136.8,182.4l-30.6-81.5l-26.5,95.3h47.5C128.4,190.4,132,185.5,136.8,182.4"/>
	<path display="inline" fill="#231F20" d="M148.2,179.1c1.1,0,2.2,0.2,3.3,0.3l30.6-81.6h-67.9l30.6,81.6
		C145.9,179.3,147,179.1,148.2,179.1"/>
	<path display="inline" fill="#231F20" d="M169.1,196.2h46.4l-25.4-95.3l-30.6,81.5C164.4,185.5,167.9,190.4,169.1,196.2"/>
	<path display="inline" fill="#231F20" d="M139.6,200.5c0,4.7,3.8,8.6,8.6,8.6c4.7,0,8.6-3.8,8.6-8.6c0-4.7-3.8-8.6-8.6-8.6
		C143.4,191.9,139.6,195.8,139.6,200.5"/>
	<path display="inline" fill="#231F20" d="M221.7,186.3l3.8,14.2l-3.8,14.2c2.3,1.3,4.9,2.1,7.8,2.1c9,0,16.3-7.3,16.3-16.3
		c0-9-7.3-16.3-16.3-16.3C226.6,184.2,224,185,221.7,186.3"/>
	<path display="inline" fill="#231F20" d="M231.6,180c0,0.1-0.1,0.1-0.1,0.2c4.1,0.4,7.8,2,10.9,4.5c0.1-0.1,0-0.1,0.1-0.2l8-8
		c-5.1-4.5-11.7-7.3-18.9-7.8V180z"/>
	<path display="inline" fill="#231F20" d="M217.6,171l3,11.2c2.1-1,4.4-1.7,6.8-2c0-0.1-0.1-0.1-0.1-0.2v-11.3
		C223.9,168.9,220.7,169.7,217.6,171"/>
	<path display="inline" fill="#231F20" d="M227.3,232.4V221c0-0.1,0.1-0.1,0.1-0.2c-2.4-0.2-4.7-0.9-6.8-1.9l-3,11.2
		C220.7,231.3,223.9,232.1,227.3,232.4"/>
	<path display="inline" fill="#231F20" d="M261.3,202.6H250c-0.1,0-0.1-0.1-0.2-0.1c-0.4,4.1-2,7.8-4.5,10.9c0.1,0.1,0.1,0,0.2,0.1
		l8,8C258,216.4,260.8,209.9,261.3,202.6"/>
	<path display="inline" fill="#231F20" d="M253.5,179.5l-8,8c-0.1,0.1-0.1,0-0.2,0.1c2.5,3,4.1,6.8,4.5,10.9c0.1,0,0.1-0.1,0.2-0.1
		h11.3C260.8,191.1,258,184.6,253.5,179.5"/>
	<path display="inline" fill="#231F20" d="M250.5,224.5l-8-8c-0.1-0.1,0-0.1-0.1-0.2c-3,2.5-6.8,4.1-10.9,4.5c0,0.1,0.1,0.1,0.1,0.2
		v11.3C238.8,231.9,245.3,229,250.5,224.5"/>
	<path display="inline" fill="#231F20" d="M291.9,97.8h-82.1l-5.8,21.9l7.9,29.4h13.4c28.7,0,51.3,23.7,51.3,51.3
		c0,28.4-23,51.3-51.3,51.3h-13.4l-7.9,29.4l5.8,21.9h82.1l27.4-102.7L291.9,97.8z"/>
</g>
<g id="Layer_3" display="none">
	<path display="inline" d="M169.5,106.2l24.1-40.3c-2.8-1.2-5.8-2.1-9.1-2.1c-13.2,0-23.9,10.7-23.9,23.9
		C160.5,95.2,164.1,101.8,169.5,106.2"/>
	<path display="inline" d="M333,225.2l-6.4-4.3c-1.2-20.8-8.7-41.2-21.8-58l-16.8,2.2l1.2-1.7c4.4-6.6,2.6-15.5-4-19.9l-9.4-6.2
		c-6.5-4.4-15.5-2.6-19.9,4l-1.3,2l-7.4-44.6L202,70.5l-24.3,40.6l11.9,6.7l-86.4-11l-12.5,18.7l52.2,34.8c-2.4,2.8-4.6,5.7-6.7,8.9
		c-2.1,3.1-3.9,6.3-5.6,9.6l-52.1-34.8l-12.5,18.7l67.5,118.2l0.1-0.2c1.4,2.3,2.9,4.5,4.4,6.6l22.5-2.9l-4.2,6.3
		c-4.4,6.6-2.6,15.5,4,19.9l9.4,6.2c6.6,4.4,15.5,2.6,19.9-4l3.5-5.2l2.6,20c19.6,5.3,40.2,4.6,59.2-1.5l7.7,5.1
		c20.9-7.4,39.7-21.3,53-41.2C328.5,270.1,334.2,247.4,333,225.2 M256.1,281.3c-1.5,2.2-4.4,2.8-6.6,1.3c-2.2-1.5-2.8-4.4-1.3-6.6
		c1.5-2.2,4.4-2.8,6.6-1.3C257,276.2,257.6,279.1,256.1,281.3 M254.5,248.2c-7.1,10.6-19,17-31.8,17c-7.6,0-14.9-2.2-21.2-6.4
		c-17.5-11.7-22.2-35.5-10.5-53c7.1-10.6,19-17,31.8-17c7.6,0,14.9,2.2,21.2,6.4C261.4,207,266.2,230.7,254.5,248.2 M269.6,301
		c-1.5,2.2-4.4,2.8-6.6,1.3c-2.2-1.5-2.8-4.4-1.3-6.6c1.5-2.2,4.4-2.8,6.6-1.3C270.5,295.9,271.1,298.8,269.6,301 M273.4,263.5
		c-1.5,2.2-4.4,2.8-6.6,1.3c-2.2-1.5-2.8-4.4-1.3-6.6c1.5-2.2,4.4-2.8,6.6-1.3C274.2,258.4,274.8,261.3,273.4,263.5 M276.6,242.1
		c-2.2-1.5-2.8-4.4-1.3-6.6c1.5-2.2,4.4-2.8,6.6-1.3c2.2,1.5,2.8,4.4,1.3,6.6C281.8,243,278.8,243.6,276.6,242.1 M291.8,275.8
		c-1.5,2.2-4.4,2.8-6.6,1.3c-2.2-1.5-2.8-4.4-1.3-6.6c1.5-2.2,4.4-2.8,6.6-1.3C292.7,270.7,293.3,273.6,291.8,275.8 M306.6,245.7
		c-1.5,2.2-4.4,2.8-6.6,1.3c-2.2-1.5-2.8-4.4-1.3-6.6c1.5-2.2,4.4-2.8,6.6-1.3C307.4,240.6,308,243.5,306.6,245.7"/>
	<path display="inline" d="M238.6,203.2c-4.7-3.2-10.2-4.8-15.9-4.8c-9.6,0-18.5,4.8-23.9,12.7c-8.8,13.1-5.2,31,7.9,39.7
		c4.7,3.2,10.2,4.8,15.9,4.8c9.6,0,18.5-4.8,23.8-12.7C255.3,229.8,251.7,212,238.6,203.2"/>
</g>
<g id="Layer_4_1_" display="none">
	<path display="inline" fill="#231F20" d="M89.8,127.4c-5.2,0-9.4,4.2-9.4,9.4c0,5.2,4.2,9.4,9.4,9.4c5.2,0,9.4-4.2,9.4-9.4
		C99.2,131.6,95,127.4,89.8,127.4"/>
	<rect x="136.6" y="113.3" display="inline" fill="#231F20" width="9.4" height="37.5"/>
	<path display="inline" fill="#231F20" d="M291.1,224.4v-17L274,195.9l-13.3,26.6c-6.8,2.8-11.7,9.5-11.7,17.3
		c0,4.2,1.5,8.1,3.8,11.3l-3.2,44.9h28.2l3.1-42.8c3.5-3.4,5.6-8.1,5.6-13.3c0-1.6-0.3-3.2-0.7-4.7L291.1,224.4z M267.7,249.1
		c-5.2,0-9.4-4.2-9.4-9.4c0-5.2,4.2-9.4,9.4-9.4s9.4,4.2,9.4,9.4C277.1,244.9,272.9,249.1,267.7,249.1"/>
	<polygon display="inline" fill="#231F20" points="289.1,155.5 342.6,155.5 342.6,99.3 295.8,83.8 286.5,71.2 220.9,71.2 
		211.5,83.8 174.1,99.3 174.1,155.5 218.3,155.5 	"/>
	<path display="inline" fill="#231F20" d="M117.9,155.5h9.4v-46.8H89.8l-28.1,18.7v14H45.3c-1.3,0-2.3,1-2.3,2.3s1,2.3,2.3,2.3h16.4
		v9.4h-14c-2.6,0-4.7,2.1-4.7,4.7s2.1,4.7,4.7,4.7h60.9L117.9,155.5z M89.8,150.8c-7.8,0-14-6.3-14-14c0-7.8,6.3-14,14-14
		s14,6.3,14,14C103.9,144.5,97.6,150.8,89.8,150.8"/>
	<path display="inline" fill="#231F20" d="M341,296l-10.1-47.1c1.5-2.7,2.4-5.8,2.4-9c0-4.7-1.8-9-4.7-12.3v-22.9l11.4-39.8H192.8
		c-10.3,0-18.7,8.4-18.7,18.7c0,2.6,0.5,5.1,1.5,7.3l-10.9,32.8c-5.5,3.2-9.3,9.2-9.3,16.1c0,2.4,0.5,4.8,1.3,6.9l-17.6,49.3h29.8
		l6.5-18.3l24.1,11.6l12.2-25.3l-24.2-11.4c3.2-3.3,5.3-7.8,5.3-12.8c0-2.6-0.5-5.1-1.5-7.3l8.9-26.7l27.7-22.2h44.5l28.1,18.7V226
		v1.5c-2.9,3.3-4.7,7.5-4.7,12.3c0,6.3,3.1,11.8,7.9,15.2l8.6,41L341,296L341,296z M174.1,249.1c-5.2,0-9.4-4.2-9.4-9.4
		c0-5.2,4.2-9.4,9.4-9.4c5.2,0,9.4,4.2,9.4,9.4C183.5,244.9,179.3,249.1,174.1,249.1 M192.8,192.9c-5.2,0-9.4-4.2-9.4-9.4
		c0-5.2,4.2-9.4,9.4-9.4s9.4,4.2,9.4,9.4C202.2,188.7,198,192.9,192.8,192.9 M314.6,174.2c5.2,0,9.4,4.2,9.4,9.4
		c0,5.2-4.2,9.4-9.4,9.4c-5.2,0-9.4-4.2-9.4-9.4C305.2,178.4,309.4,174.2,314.6,174.2 M305.2,239.8c0-5.2,4.2-9.4,9.4-9.4
		c5.2,0,9.4,4.2,9.4,9.4c0,5.2-4.2,9.4-9.4,9.4C309.4,249.1,305.2,244.9,305.2,239.8"/>
	<rect x="155.4" y="113.3" display="inline" fill="#231F20" width="9.4" height="37.5"/>
	<polygon display="inline" fill="#231F20" points="227.8,263 221,266.3 205.8,297.9 207.5,305.2 220.1,311.3 240.4,269.1 	"/>
	<polygon display="inline" fill="#231F20" points="346.2,305.3 311,305.3 305.2,310 305.2,324 352,324 352,310 	"/>
	<polygon display="inline" fill="#231F20" points="245.5,305.3 239.6,310 239.6,324 286.5,324 286.5,310 280.6,305.3 	"/>
	<polygon display="inline" fill="#231F20" points="133.1,305.3 127.3,310 127.3,324 174.1,324 174.1,310 168.2,305.3 	"/>
	<path display="inline" fill="#231F20" d="M132.4,257.7l8.9,4.2l5.5-15.4c-0.6-2.2-0.8-4.5-0.8-6.7c0-8.6,4-16.7,10.8-22l10.2-30.5
		l-39.4,33.8c-0.1,0-0.2,0-0.2,0c-10.3,0-18.7,8.4-18.7,18.7c0,10.3,8.4,18.7,18.7,18.7C129.1,258.5,130.7,258.2,132.4,257.7
		 M117.9,239.8c0-5.2,4.2-9.4,9.4-9.4s9.4,4.2,9.4,9.4c0,5.2-4.2,9.4-9.4,9.4C122.1,249.1,117.9,244.9,117.9,239.8"/>
</g>
<g id="Layer_5" display="none">
	<path display="inline" fill="#231F20" d="M290.1,272.3v-99c0-9.1-5.5-16.5-12.2-16.5h-12.2v16.5v16.5v82.5l-12.2,41.3h48.8
		L290.1,272.3z"/>
	<path display="inline" fill="#231F20" d="M131.9,189.8v-16.5v-16.5h-11.6c-6.4,0-11.6,7.4-11.6,16.5v99l-11.6,41.3h51.7l-17.1-41.3
		L131.9,189.8L131.9,189.8z"/>
	<path display="inline" fill="#231F20" d="M255.9,148.5h0.3v-8.3c0-31.9-25.9-57.7-57.8-57.7s-57.8,25.9-57.8,57.7v8.3h0.3H255.9z
		 M231.4,123.7c4.6,0,8.3,3.7,8.3,8.2s-3.7,8.2-8.3,8.2c-4.6,0-8.2-3.7-8.2-8.2S226.9,123.7,231.4,123.7 M198.4,94.9
		c9.1,0,16.5,7.4,16.5,16.5s-7.4,16.5-16.5,16.5c-9.1,0-16.5-7.4-16.5-16.5S189.3,94.9,198.4,94.9"/>
	<path display="inline" fill="#231F20" d="M256.2,156.7H140.7v115.5l16.5,16.5h82.5l16.5-16.5V156.7z M223.2,222.8h-49.5
		c-4.6,0-8.2-3.7-8.2-8.3s3.7-8.3,8.2-8.3h49.5c4.6,0,8.2,3.7,8.2,8.3S227.7,222.8,223.2,222.8 M223.2,189.8h-49.5
		c-4.6,0-8.2-3.7-8.2-8.2s3.7-8.2,8.2-8.2h49.5c4.6,0,8.2,3.7,8.2,8.2C231.4,186.1,227.7,189.8,223.2,189.8"/>
</g>
<g id="Layer_2" display="none">
	<g id="XMLID_5_" display="inline">
		<g>
			<path d="M330.6,225.8c6.6-2.3,16.2-1.8,12.8,7.5c-3.8-2.6-7-3.2-13.3-3.1C330.3,228.7,329.8,226.6,330.6,225.8z"/>
			<path d="M312.1,289.4c0,0.8-0.3,1.1-0.9,1.3c0-0.6,0.2-1,0.4-1.3C311.8,289.4,311.9,289.4,312.1,289.4z"/>
			<path d="M310.7,291.2c0-0.3,0.1-0.5,0.4-0.4C311.2,291,311.1,291.2,310.7,291.2z"/>
			<path d="M310.7,291.2c0,0.8-0.3,1.1-0.9,1.3c0-0.6,0.2-1,0.4-1.3C310.5,291.2,310.6,291.2,310.7,291.2z"/>
			<path d="M309.9,292.5c0.6,2.6,3.4,3.1,4.4,5.3c-0.4,2-1.2,3.5-2.2,4.9c-3.6-2.6-6.6-5.7-11-7.5c0.6-1.1,1.5-2,2.2-3.1
				C306,291.5,308.2,293.4,309.9,292.5z"/>
			<path d="M284.2,154.7c-2.7,4.3-7.9,5.9-11,9.7c3.1,9.7,15.2,10.4,17.2,21.2c19.4,6.6,39.7,14.8,60.5,18.6c2.7-1.7,3-7.7,8.4-5.3
				c1,7.4-2.8,9.9-2.6,16.3c-3.9,4.2-11.3,4.9-15.5,8.8c0.7-3,3-4.4,4.9-6.2c-25.4-10.1-55.9-15-83.5-23c-1,1.2-0.1,3,0,4.4
				c28.9,14.9,51.7,36,75.5,56.1c-1.5,9.2-10.7,10.8-11.9,20.3c-9,0.3-9.5,9.1-14.1,13.7c1-8.2,7.8-10.1,4.9-19
				c0.6-1.9,2.7-2.3,4-3.5c-1.5-1.5-0.7-4.4,0-6.2c-17.2-13.7-37.2-24.7-55.7-37.1c-1.8,1.1-2.4,3.5-4.4,4.4
				c-10.4-2.9-22.4-0.6-29.2,4c-10.5-0.5-15.3-9.1-13.3-20.8c-4.1,0.9-7.1,2.9-10.6,4.4c-1.5-0.5-2.7-1.5-3.5-2.6
				c-1.3,0.9-4.2,0.3-6.2,0.4c-1.5,0.1-1.7,1.6-3.1,1.8c-5-0.6-7,1.8-11,2.2c-12.1,11.8-32.5,15.2-48.6,23c-2.6-0.2-3.1-2.5-5.3-3.1
				c-3.4,1.9-5.3,5.3-8.4,7.5c-21-0.4-26.8,14.5-45.5,16.3c-1.6-0.1-0.7-2.5-1.8-3.1c-13.3-0.6-21.1-9.2-30.5-15
				c11.4-17.2,32.5-24.6,50.8-34.9c1.6,0,3.5-0.2,4,0.9c15.8-9.9,30.8-20.4,47.3-29.6c-1.9-3.9-7.8-5.5-5.7-11.9
				c-12.9-5.3-28-8.5-42-12.8c-6.7,2.9-15.7,3.4-21.2,7.5c-1.8-0.1-1.9-1.9-3.1-2.6c-8.7,3-25.5,2.9-33.1,10.6
				c-1.5-0.4-1-4.7-0.4-5.7c0.2,1.7,2.9,0.9,4,1.8c10.5-5.1,23.9-4.7,30.9-12.8c1.8,0,3.5,0,5.3,0c1.8-0.4,1.3-3.2,2.2-4.4
				c27.5-6.4,55.5,5.9,82.6,9.3c-1.3-4.4-4.5-7-7.1-10.2c-21.8-14-43-28.5-63.6-43.7c-1.4,0.7-3.2,0.9-4.4,1.8
				c-2.8-0.4-5.8-3.8-6.4-3.8c-0.3,0-22.5,2.9-24.3,2.7c-1-0.1-0.3-0.5-0.3-0.7c7.6-0.7,23.6-2.8,24.3-2.9c0.6-0.2,2.4-3.4,4.5-4.6
				c11.1,0,22.1-3.8,34.5-1.3c0.1,1.7,1.9,1.7,1.8,3.5c-1,2.2-4,2.5-6.6,3.1c13.9,10.7,32.7,16.5,46.4,27.4c3.3-0.5,4.3,1.3,6.6,1.8
				c7.6-2.9,18.1-1.3,26.9-3.5c0.6-0.6,1.4-1.5,1.8-2.7c3.4-0.5,11-3.9,15.1-3.8c3,0.2,9.9,3.1,9.7,6.9c-0.1,3.5-4.5,8.7-8.4,7.9
				c-1.5-0.3-9.2,4-8.8,7.1c6.5-1.9,15.1-3.4,21.2-5.7c8.2,4.6,17.5,8.2,26.9,11.5c1.4,2.9,1.6,7,3.5,9.3c4.1-7,11.9-5.8,19.4-9.3
				C281.3,149.7,282.7,152.3,284.2,154.7z"/>
			<path d="M58.9,103.9c-2.2,2-2.5,3.3-3.1,6.6c-2.3-2.9-5.1-5.2-9.3-6.2c0.2-1.6,1-2.6,0.9-4.4C52,100.5,54.9,102.8,58.9,103.9z"/>
		</g>
	</g>
</g>
<path d="M313,158.4c-3.6-6.3-8.2-10.3-13.4-10.3c-11.8-46.9-50-91.5-83.7-91.5c-6,0-12.1,1.5-17.9,4.1c-5.9-2.6-11.9-4.1-17.9-4.1
	c-33.7,0-71.9,44.6-83.7,91.5c-5.1,0-9.8,3.9-13.4,10.3c-15.8,0.5-27.3,17.3-27.3,40.6c0,23.6,11.8,40.6,27.9,40.6
	c3.2,0,6.1-0.8,8.9-2.1c7.2,21.5,20.4,28.1,29.2,30v33c0,2.8,2.3,5.1,5.1,5.1c2.8,0,5.1-2.3,5.1-5.1v-11.7
	c7.3,13.1,22.1,23.6,40.6,28.6v8.5c0,2.8,2.3,5.1,5.1,5.1s5.1-2.3,5.1-5.1v-6.3c3.3,0.5,6.7,0.8,10.2,1v15.4c0,2.8,2.3,5.1,5.1,5.1
	s5.1-2.3,5.1-5.1v-15.4c3.5-0.2,6.9-0.5,10.2-1v6.3c0,2.8,2.3,5.1,5.1,5.1c2.8,0,5.1-2.3,5.1-5.1v-8.5c18.5-5.1,33.3-15.5,40.6-28.6
	v11.7c0,2.8,2.3,5.1,5.1,5.1c2.8,0,5.1-2.3,5.1-5.1v-33c8.8-2,22-8.6,29.2-30c2.8,1.2,5.7,2.1,8.9,2.1c16.2,0,27.9-17.1,27.9-40.6
	C340.3,175.8,328.8,158.9,313,158.4z M83.7,224.4c-7,0-12.7-11.4-12.7-25.4c0-8.4,2.1-15.8,5.2-20.4c7.3,1.8,16.3,8.8,19.2,30.3
	C93.4,218,88.9,224.4,83.7,224.4z M229.5,169.2c2.6-2.6,11.1,1.8,19,9.7s12.3,16.5,9.7,19c-2.6,2.6-11.1-1.8-19-9.7
	C231.3,180.3,226.9,171.8,229.5,169.2z M147.8,179c7.9-7.9,16.5-12.3,19-9.7c2.6,2.6-1.8,11.1-9.7,19c-7.9,7.9-16.5,12.3-19,9.7
	C135.5,195.4,139.8,186.9,147.8,179z M268.7,248c-0.6,0.1-1.2,0.1-1.8,0.1c-11.4,0-21.2-14.1-22.3-15.8
	c-18.6-27.9-46.3-28.2-46.6-28.2c-1.1,0-28.1,0.5-46.6,28.2c-1.2,1.8-12,17.2-24.1,15.7c-6.8-0.9-12-6.6-15.4-16.9l9.6-3.2
	c2,6,4.6,9.7,7.1,10c4.3,0.6,11.1-6.4,14.3-11.3c21.6-32.4,53.7-32.7,55-32.7s33.5,0.4,55,32.8c3.3,4.9,10.3,11.9,14.3,11.3
	c2.5-0.3,5.1-4,7.1-10l9.6,3.2C280.7,241.4,275.5,247.1,268.7,248z M312.3,224.4c-5.3,0-9.8-6.4-11.7-15.5
	c2.9-21.6,11.9-28.5,19.2-30.3c3.1,4.6,5.2,12,5.2,20.4C325,213,319.3,224.4,312.3,224.4z"/>
</svg>
