<?xml version="1.0" encoding="utf-8"?>
<!-- Generator: Adobe Illustrator 15.0.0, SVG Export Plug-In . SVG Version: 6.00 Build 0)  -->
<!DOCTYPE svg PUBLIC "-//W3C//DTD SVG 1.1//EN" "http://www.w3.org/Graphics/SVG/1.1/DTD/svg11.dtd">
<svg version="1.1" xmlns="http://www.w3.org/2000/svg" xmlns:xlink="http://www.w3.org/1999/xlink" x="0px" y="0px" width="400px"
	 height="400px" viewBox="0 0 400 400" enable-background="new 0 0 400 400" xml:space="preserve">
<g id="Layer_2_1_" display="none">
	<rect x="0" display="inline" width="400" height="400"/>
</g>
<g id="Layer_2_copy">
	<rect x="0.5" y="-0.5" display="none" fill="#474747" width="400" height="400"/>
</g>
<g id="Layer_4" display="none">
	<g id="_x37_C119D_1_" display="inline">
		<g id="XMLID_3_">
			<g>
				<path d="M165.956,264.041c-3.443-4.317-12.398-1.847-10.413,5.554C158.736,273.663,168.719,272.212,165.956,264.041z
					 M181.923,266.818c-0.882-6.297,1.791-16.134-1.389-20.132c-4.554,4.241-7.317,10.267-6.248,20.132
					C177.313,266.29,180.715,267.679,181.923,266.818z M195.113,203.646c13.093-40.042-51.601-31.67-40.264-0.694
					C165.185,206.395,183.693,205.423,195.113,203.646z M200.666,266.124c0.159-10.413,0.194-21.764-2.083-27.769
					c-3.429-1.985-7.421,0.701-9.719,2.083c0.972,8.622,0.743,17.702,0,26.38C192.072,268.373,198.125,267.478,200.666,266.124z
					 M216.633,266.818c0-9.025,0-18.05,0-27.074c-3.021-0.916-7.13-0.743-10.413-1.389c0,9.719,0,19.438,0,29.157
					C209.983,266.687,214.134,267.318,216.633,266.818z M213.161,232.107c1.431-7.587,0.778-19.035-6.941-20.826
					c-12.059-2.804-16.522,10.185-13.19,21.521C199.625,232.455,207.678,233.565,213.161,232.107z M229.823,267.513
					c3.408-7.025,1.382-18.994-5.554-20.133c0.417,6.526-0.867,14.752,0.694,20.133C226.58,267.513,228.205,267.513,229.823,267.513
					z M251.343,201.562c7.303-21.423-30.254-34.467-39.569-18.743c-2.715,4.582-2.61,13.912-0.694,20.826
					C221.756,205.222,243.811,207.609,251.343,201.562z M249.954,268.206c0.806-4.65-1.458-6.525-6.248-5.554
					C230.399,265.36,248.031,279.293,249.954,268.206z M288.83,257.1c1.215-11.441-7.789-26.013-13.885-41.652
					c-5.811-14.912-10.072-31.656-17.354-41.653c-10.976-15.064-41.139-19.083-55.536-4.859
					c-9.65-10.899-40.015-12.718-49.983-0.694c-11.538,18.883-20.542,43.305-29.156,64.561c-2.979,7.345-6.623,15.96-5.554,23.604
					c4.915,1.832,5.2-4.582,6.248-6.942c4.735-10.684,8.914-21.617,13.19-32.628c7.428-19.132,14.155-50.85,38.875-51.371
					c12.273-0.257,18.244,10.565,29.851,9.024c6.747-0.896,13.314-8.816,22.908-9.024c9.448-0.208,15.113,4.186,22.215,9.719
					c10.149,19.139,18.216,42.534,26.38,63.172C279.604,244.86,280.909,254.912,288.83,257.1z M269.392,135.613
					c4.728,13.1,0.459,26.762,2.777,43.735c1.624,11.892,9.303,24.512,13.884,37.487c1.764,4.991,4.367,11.892,6.942,18.744
					c2.138,5.699,7.72,13.717,7.636,18.049c-0.242,13.044-28.754,26.4-38.875,30.545c-52.746,21.59-132.503,9.379-156.89-29.851
					c9.191-21.208,15.946-43.075,24.991-65.949c1.298-3.277,3.666-5.457,4.165-8.331c2.354-13.46-1.402-25.977,0.694-36.793
					c4.679-24.13,23.929-41.396,51.371-43.735C228.663,95.884,259.07,106.984,269.392,135.613z"/>
			</g>
			<g>
			</g>
		</g>
	</g>
</g>
<g id="Layer_5_1_" display="none">
	<g id="wC95k9_1_" display="inline">
		<g id="XMLID_2_">
			<g>
				<path fill="#FFFFFF" d="M271.419,200.5c6.751,7.938,13.473,11.706,12.9,23.25c-0.629,12.512-13.12,21.192-17.198,30.227
					c1.321,27.215-27.548,42.71-48.358,27.894c0-6.97,0-13.947,0-20.924c-4.298-9.176-11.691-1.428-18.273-8.137
					c-5.895,5.825-9.472,1.131-16.124,4.651c-2.333,5.994-0.48,16.527-1.074,24.409c-18.902,13.388-49.821,2.163-47.284-25.568
					c-11.19-12.625-29.159-41.501-6.447-54.643c0-10.461,0-20.923,0-31.385c2.276-4.892,5.853-8.391,8.596-12.788
					c41.699,0.898,84.317,0.184,126.815,0C273.236,165.212,271.525,183.726,271.419,200.5z M245.625,197.015
					c6.319-4.799,8.341-14.236,8.603-25.575c-15.41,0.771-33.676-1.548-47.291,1.159
					C219.364,181.245,226.306,195.828,245.625,197.015z M248.856,265.598c0.961-23.667-35.543,0.36-10.752,10.462
					C244.112,273.818,248.601,271.825,248.856,265.598z M229.508,223.75c1.024,7.782,7.415,4.623,12.894,5.811
					C241.193,224.287,234.448,224.994,229.508,223.75z M225.21,227.234c1.321-12.278-7.069-14.053-13.976-17.432
					c0.905,2.892,1.407,6.228,1.074,10.462C215.787,223.474,220.325,225.545,225.21,227.234z M206.937,219.099
					c1.647-2.113,1.647-9.508,0-11.621c-8.942-1.152-15.763-0.008-13.968,10.462C196.433,219.614,201.982,219.035,206.937,219.099z
					 M177.919,186.554c5.415-4.496,15.085-10.081,13.975-15.113c-14.689,0-29.378,0-44.067,0
					c-0.255,11.515,1.788,20.535,7.528,25.575C164.906,198.584,171.762,191.664,177.919,186.554z M175.77,227.234
					c7.444-2.41,15.983-3.633,13.975-16.272C181.15,212.129,175.969,216.985,175.77,227.234z M158.579,256.302
					c-20.952,9.847,16.216,32.892,12.894,6.97C170.653,256.86,164.828,253.361,158.579,256.302z M173.621,223.75
					c-5.697,0.424-11.353,0.897-13.968,4.651C163.103,229.709,172.674,228.889,173.621,223.75z"/>
				<path fill="#FFFFFF" d="M238.104,107.502c21.213,4.022,29.399,25.384,27.943,44.173c-38.604,0.226-85.555-0.063-130.039,0
					c-1.117-21.786,7.882-40.533,27.943-44.173C179.376,104.703,221.117,104.286,238.104,107.502z"/>
				<path fill="#FFFFFF" d="M211.235,257.461c6.984,1.357,5.14,22.034,2.149,26.734
					C207.043,281.665,210.698,263.745,211.235,257.461z"/>
				<path fill="#FFFFFF" d="M200.49,255.136c4.8,4.036,5.549,28.671,0,32.552c-6.263-5.055-2.552-23.744-2.149-32.552
					C199.055,255.136,199.776,255.136,200.49,255.136z"/>
				<path fill="#FFFFFF" d="M190.82,257.461c1.647,7.486,2.142,21.991-1.075,27.901c-7.069-4.758-2.623-17.001-2.149-27.901
					C188.671,257.461,189.745,257.461,190.82,257.461z"/>
			</g>
			<g>
			</g>
		</g>
	</g>
</g>
<g id="Layer_8">
	<g id="dDBRJe_1_">
		<g id="XMLID_5_">
			<g>
				<path d="M240.5,274.648c2.823,2.685,10.433,2.893,12.486-0.693C249.587,270.688,243.205,270.542,240.5,274.648z M183.62,232.336
					c5.126,43.034,77.135,33.961,72.141-10.405c-2.157-19.173-16.897-30.75-37.458-33.295c-0.423,0.042-0.818,0.104-0.693,0.694
					c-5.723,0.52-10.35,2.136-15.261,3.468C189.427,200.809,181.456,214.162,183.62,232.336z M289.057,239.272
					c0.603,3.329,2.518,5.341,5.549,6.243c2.247-1.45,4.1-3.302,5.549-5.55C297.214,237.469,292.234,236.262,289.057,239.272z
					 M275.877,270.487c1.733,0.575,2.726,1.9,4.855,2.08c0.881-1.664,3.038-2.046,2.774-4.855c-1.318-1.456-1.887-3.662-4.855-3.468
					C277.48,266.082,277.049,268.648,275.877,270.487z M271.715,230.255c-1.062,2.872-3.579,4.287-2.774,9.018
					C275.578,244.593,278.194,231.628,271.715,230.255z M323.74,225.399c-2.019,52.544-27.205,81.928-65.897,97.806
					c-14.054-8.005-43.568,6.763-63.123-2.775c-2.435-4.272-3.378-10.03-4.162-15.954c-4.168,2.997-7.699,6.639-12.485,9.018
					c-16.912-2.497-32.269-17.486-19.423-33.988c-3.538,1.096-12.34,2.913-20.116,2.08c-23.883-37.853-45.004-78.466-67.979-117.228
					c3.281-6.201,7.936-11.022,11.099-17.341c17.341,9.711,32.692,21.413,49.25,31.908c4.294-5.189,7.728-11.237,12.486-15.954
					c-15.274-12.236-32.436-22.6-49.25-33.296c4.134-5.806,6.978-12.909,11.792-18.035c25.52,2.365,49.853,7.547,74.915,8.324
					c1.367-1.637-3.343-3.101-4.855-4.162c8.005-12.569,13.263-27.892,24.278-37.458c14.421,7.312,26.699,16.766,40.925,24.278
					c3.719,12.465,4.946,27.42,7.631,40.926c8.92-10.793,26.706-2.789,33.989,6.937c0,5.084,0,10.176,0,15.26
					c4.46-0.16,8.137-1.117,13.18-0.694c11.688,12.59,18.604,29.952,20.81,52.024C318.308,220.654,321.575,222.479,323.74,225.399z
					 M259.229,296.152c1.283-1.491,4.086-1.464,3.469-4.855c-1.603-3.129-7.824-4.059-7.63,1.387
					C256.219,294.071,256.933,295.909,259.229,296.152z M266.86,257.308c-1.27-7.048-11.362-1.443-6.243,3.468
					C263.287,260.207,266.79,260.478,266.86,257.308z"/>
				<path d="M245.356,234.417c-2.095,2.989-3.87,6.305-5.549,9.711c-25.541,24.729-65.315-10.835-42.313-37.457
					c3.621-3.08,7.651-5.758,12.486-7.631c19.554-4.758,30.084,5.521,36.07,16.647C245.765,223.429,244.156,228.208,245.356,234.417
					z"/>
				<path d="M191.251,72.794c-7.186,13.395-14.983,26.172-23.584,38.151C149.659,95.838,166.002,62.223,191.251,72.794z"/>
			</g>
			<g>
			</g>
		</g>
	</g>
</g>
<g id="Layer_1" display="none">
	<g id="_x30_WRF3t_1_" display="inline">
		<g id="XMLID_1_">
			<g>
				<path fill="#FFFFFF" d="M273.818,198.775c4.173,18.327,5.012,43.317,7.042,61.837c-9.085,6.13-19.067,10.397-28.757,15.156
					c-9.707,4.766-19.496,10.828-32.278,11.52C219.713,241.498,236.944,208.378,273.818,198.775z"/>
				<path fill="#FFFFFF" d="M219.239,135.119c-0.799,15.12,27.359,15.071,24.062-0.606
					C237.103,141.696,226.029,140.532,219.239,135.119z M133.554,166.038c2.201-36.284,28.487-54.139,62.208-56.988
					c39.004-3.298,70.296,18.836,72.772,56.988C226.826,166.832,177.118,167.177,133.554,166.038z"/>
				<path fill="#FFFFFF" d="M132.968,181.194c1.426-3.28,7.248-1.716,9.977-1.819c39.204-1.461,88.231-0.255,126.178,0.606
					c0.088,5.559-6.667,6.396-10.563,7.275c-14.226,3.213-30.734,4.965-44.603,7.881c-1.673,30.027,0.146,61.686,0,92.15
					c-8.41,0-16.826,0-25.236,0c-0.687-28.804,0.458-60.953,0-91.544c-13.275-3.358-29.35-5.438-44.603-8.487
					C140.286,186.492,133.425,186.462,132.968,181.194z"/>
				<path fill="#FFFFFF" d="M121.23,165.431c-0.804-15.38,1.978-27.057,1.174-42.438c-2.512-2.255-6.796-2.68-11.737-2.425
					c-1.303-2.467-2.418-5.662-1.174-9.094c8.034-4.705,27.642-4.177,35.799,0c0.305,3.486,0.71,6.142-1.174,8.488
					c-4.619,1.691-13.169-0.667-17.019,1.819c-3.128,24.201,1.455,48.979,0,76.388c37.625,10.039,54.562,41.443,55.753,89.119
					c-13.75-0.267-24.643-7.894-35.212-12.731c-9.443-4.322-18.51-8.73-26.41-13.944c1.778-16.351,2.142-34.162,4.695-49.712
					c-3.416,1.357-8.046-2.316-10.564-5.457C115.191,192.288,111.247,170.111,121.23,165.431z"/>
			</g>
			<g>
			</g>
		</g>
	</g>
</g>
<g id="Layer_6" display="none">
	<g id="Te7uNE_1_" display="inline">
		<g id="XMLID_4_">
			<g>
				<path d="M170.863,317.521c0-6.8,0-13.6,0-20.398c-10.992-12.219-9.84,17.08-7.061,22.36
					C166.965,320.496,169.4,319.295,170.863,317.521z M192.047,285.354c0.916-17.521,0.131-36.744,0.393-54.92
					c-1.888-2.288-5.255-3.425-7.846-1.177c-1.544,17.023-0.801,38.428-0.392,56.097
					C185.983,287.658,190.306,287.83,192.047,285.354z M202.639,204.15c0-19.876,0-39.752,0-59.628
					c-2.166-0.18-6.383-1.177-7.846,0.392c0,19.746,0,39.491,0,59.236C197.408,204.15,200.023,204.15,202.639,204.15z
					 M212.446,256.717c0-8.688,2.093-22.867-0.784-27.068c-2.289-3.342-6.481-1.397-8.238,0.785
					c0.262,18.176-0.523,37.398,0.393,54.92c2.198,2.901,7.004,1.97,8.63-0.784C212.446,277.573,212.446,267.84,212.446,256.717z
					 M232.452,319.483c3.098-6.727,3.629-32.274-7.062-22.753C225.98,305.271,220.7,322.425,232.452,319.483z M308.164,245.732
					c0,11.147,1.218,22.336-1.569,30.207c-7.135,4.829-19.156-0.106-27.853,1.961c-3.236,0.769-6.652,4.454-10.199,6.276
					c-8.386,4.308-17.809,7.495-27.46,9.415c-0.613,15.332,3.686,34.342-10.592,35.307c-14.589,0.98-13.15-16.133-12.161-30.991
					c-12.733,0.687-28.229,1.16-40.014,0.393c-1.226,13.403,2.795,29.536-10.2,30.599c-15.757,1.291-13.027-17.318-12.945-33.737
					c-12.708-3.122-24.232-6.293-34.129-11.769c-3.473-1.921-6.857-4.961-9.807-5.492c-5.606-1.005-12.529,1.512-17.653-0.784
					c-6.53-2.926-4.707-17.67-4.707-28.245c0-33.778-0.319-67.842,0.392-99.642c2.223,0,4.446,0,6.669,0
					c0.916,29.16,0.131,60.021,0.392,89.834c7.47-0.311,14.074,1.798,21.184,0.393c4.454-0.883,9.309-4.978,13.73-6.669
					c5.435-2.076,11.482-2.738,16.083-4.707c3.089-1.324,5.95-4.528,9.023-6.669c3-2.093,6.326-4.528,9.807-5.885
					c5.198-2.026,9.521-1.831,13.73-4.707c0.482-39.352,0.809-80.42,5.492-115.333c2.207-16.436,4.348-32.527,10.592-43.544
					c0.916,0,1.831,0,2.746,0c2.575,2.436,4.364,5.729,5.492,9.023c8.41,24.477,8.32,56.49,10.592,88.265
					c0.564,7.87,0.842,16.435,0.785,25.106c-0.073,11.54,2.288,24.902,1.177,38.837c3.694,1.25,7.151,1.896,10.592,3.53
					c5.893,2.795,10.592,8.557,15.691,10.984c4.553,2.174,10.56,2.95,16.084,5.1c4.691,1.822,9.881,5.844,14.515,6.669
					c8.9,1.586,17.22-1.152,27.46,0c0.516-29.953-1.037-61.786,0.785-90.227c2.092,0,4.185,0,6.276,0
					C308.164,179.321,308.164,214.325,308.164,245.732z"/>
			</g>
			<g>
			</g>
		</g>
	</g>
</g>
<g id="Layer_7" display="none">
	<g id="tZx3Bj_2_" display="inline">
		<g id="XMLID_6_">
			<g>
				<path d="M300.556,213.653c-0.045,2.334,0.695,5.578,0.303,7.59c-0.474,2.416-3.75,4.301-4.25,6.375
					c-0.854,3.536,0,9.089,0,13.662c0,13.104-0.803,26.52-0.607,39.163c0.203,13.149-0.082,25.697-1.518,37.948
					c-0.437,3.7,0.063,7.926-2.429,10.93c-3.466-15.647-3.074-35.608-3.946-58.896c-0.367-9.734-0.342-21.043-0.607-32.181
					c-0.089-3.731,0.367-8.405-0.304-10.626c-0.646-2.131-4.231-4.035-6.072-5.464c-1.985-1.544-4.699-4.124-6.679-4.555
					c-2.498-0.544-6.229,0.405-9.411,0.911c-8.146,1.29-18.316,2.973-25.806,4.554c-8.475,12.511-18.961,21.182-36.734,23.073
					c-2.004,0.215-3.371,0.228-5.768,0c-14.338-1.348-25.515-7.362-32.181-15.483c-1.98-2.41-3.188-6.755-6.072-8.804
					c-3.182-2.259-9.209-2.688-13.662-3.947c-4.87-1.379-9.247-3.004-12.751-3.946c-5.515,2.276-10.752,4.832-16.09,7.286
					c-2.751,36.007-3.295,74.222-8.197,108.078c-2.043-3.396-1.815-7.761-2.125-11.84c-1.632-21.41-1.025-45.652-0.304-68.611
					c0.139-4.352-0.196-9.298,0-13.966c0.183-4.339,1.271-9.278,0.607-12.447c-0.639-3.061-5.028-4.743-5.768-7.59
					c-0.848-3.275,0-7.899,0-11.84c0-4.199-0.645-8.848,0-11.84c0.683-3.144,4.263-4.965,4.857-7.59c0.658-2.909,0-9.177,0-13.358
					c0-12.75-0.341-26.482,0.304-40.074c1.101-23.345-0.158-46.646,3.339-64.058c1.651,1.815,1.6,4.661,1.822,6.982
					c1.334,13.94,1.613,29.587,2.125,45.842c0.208,6.672,0.911,13.598,0.911,20.34c0,6.938-0.335,14.256,0,21.251
					c0.335,7.04-0.405,14.478,0.607,20.644c0.5,3.049,2.637,4.833,3.643,7.894c4.965,1.815,10.056,3.504,14.876,5.464
					c8.608-1.714,16.033-4.61,25.198-5.768c6.255-10.202,14.003-17.741,26.716-22.466c22.004-8.184,47.676,4.693,55.253,22.466
					c8.058,0.98,17.83,4.124,26.413,6.375c3.017,0.791,6.761,1.923,9.107,1.821c4.326-0.189,7.545-5.844,11.536-7.893
					c0.127-38.056,0.209-76.505,2.732-111.721c0.253-3.523,1.062-7.432,1.821-10.929c0-0.304,0-0.607,0-0.911
					c0.493-0.082,0.525,0.285,0.911,0.304c2.809,17.349,2.511,37.803,3.036,58.29c0.43,16.862,0.606,36.159,0.606,54.646
					c0,2.448-0.664,5.769-0.303,7.286c0.632,2.65,4.294,2.809,5.16,5.769C300.942,199.846,300.689,207.126,300.556,213.653z
					 M215.55,220.028c13.819-12.086,7.388-37.676-11.84-40.074c-1.974-0.247-5.895,0.139-6.982,0.304
					c-12.245,1.828-21.739,13.82-18.519,27.93c1.429,6.256,6.122,11.967,11.84,14.876
					C197.841,227.036,209.188,225.595,215.55,220.028z"/>
				<path d="M216.765,189.062c3.864,3.017,5.705,8.058,5.464,15.18c-3.402-0.431-6.451,0.088-9.411-0.304
					c0.576-4.118-1.17-5.914-1.821-8.804C212.306,193.471,214.702,190.916,216.765,189.062z"/>
				<path d="M222.229,205.456c-0.81,5.667-3.44,9.513-6.375,13.055c-2.72-1.632-4.49-4.212-6.679-6.375
					c1.303-2.139,2.973-3.909,3.643-6.68C215.506,205.178,219.611,204.805,222.229,205.456z"/>
				<path d="M216.157,187.848c-2.087,2.264-4.067,4.636-6.679,6.375c-2.119-1.929-4.693-3.403-8.197-3.947c0-3.036,0-6.072,0-9.108
					C208.074,181.561,212.805,184.015,216.157,187.848z"/>
				<path d="M207.353,212.742c2.923,1.733,5.281,4.029,6.983,6.982c-3.517,2.252-7.198,4.339-13.055,4.251c0-3.036,0-6.072,0-9.108
					C203.198,214.836,205.772,213.988,207.353,212.742z"/>
				<path d="M199.763,191.188c7.836-0.5,14.693,8.406,10.929,16.394c-1.157,2.454-5.256,5.901-7.59,6.376
					c-8.032,1.632-16.514-5.307-13.662-15.18C190.352,195.627,194.058,191.548,199.763,191.188z"/>
				<path d="M199.763,214.867c0,3.036,0,6.072,0,9.108c-5.724-0.045-9.841-1.695-13.054-4.251c1.221-3.029,4.225-4.275,6.072-6.679
					C195.362,213.4,196.696,215,199.763,214.867z"/>
				<path d="M199.763,181.169c0,3.036,0,6.072,0,9.108c-2.802,0.253-6.268,1.866-8.5,3.643c-2.505-1.645-4.396-3.902-6.375-6.072
					C187.885,183.661,192.939,181.53,199.763,181.169z"/>
				<path d="M190.049,195.438c0.069,1.315-1.689,2.498-2.125,3.947c-0.569,1.885,0.31,3.289-0.911,4.857
					c-3.017,0.184-5.521-0.728-8.197,0c-0.86-6.332,1.752-11.796,4.554-15.483C185.084,189.518,189.96,193.856,190.049,195.438z"/>
				<path d="M187.924,205.152c0.544,2.998,2.106,4.978,3.946,6.68c-1.847,2.605-4.073,4.832-6.679,6.679
					c-3.099-3.479-5.939-7.217-6.375-13.358C182.313,204.938,184.945,205.646,187.924,205.152z"/>
			</g>
			<g>
			</g>
		</g>
	</g>
</g>
</svg>
