<?xml version="1.0" encoding="utf-8"?>
<!-- Generator: Adobe Illustrator 15.0.0, SVG Export Plug-In . SVG Version: 6.00 Build 0)  -->
<!DOCTYPE svg PUBLIC "-//W3C//DTD SVG 1.1//EN" "http://www.w3.org/Graphics/SVG/1.1/DTD/svg11.dtd">
<svg version="1.1" xmlns="http://www.w3.org/2000/svg" xmlns:xlink="http://www.w3.org/1999/xlink" x="0px" y="0px" width="400px"
	 height="400px" viewBox="0 0 400 400" enable-background="new 0 0 400 400" xml:space="preserve">
<g id="Layer_2_1_" display="none">
	<rect x="0" display="inline" width="400" height="400"/>
</g>
<g id="Layer_2_copy" display="none">
	<rect x="0.5" y="-0.5" fill="#474747" width="400" height="400"/>
</g>
<g id="Layer_4">
	<g id="_x37_C119D_1_">
		<g id="XMLID_3_">
			<g>
				<path d="M161.983,272.742c-3.881-4.867-13.976-2.081-11.738,6.261C153.844,283.589,165.097,281.953,161.983,272.742z
					 M179.981,275.872c-0.994-7.098,2.019-18.186-1.565-22.693c-5.134,4.781-8.248,11.574-7.043,22.693
					C174.785,275.277,178.62,276.843,179.981,275.872z M194.85,204.661c14.759-45.137-58.167-35.7-45.388-0.783
					C161.114,207.76,181.977,206.664,194.85,204.661z M201.11,275.09c0.181-11.738,0.22-24.532-2.347-31.302
					c-3.866-2.238-8.366,0.79-10.956,2.348c1.095,9.72,0.837,19.955,0,29.736C191.422,277.625,198.246,276.616,201.11,275.09z
					 M219.109,275.872c0-10.173,0-20.346,0-30.519c-3.404-1.033-8.037-0.838-11.738-1.565c0,10.956,0,21.911,0,32.867
					C211.612,275.724,216.291,276.436,219.109,275.872z M215.196,236.745c1.612-8.553,0.877-21.457-7.825-23.477
					c-13.593-3.161-18.625,11.48-14.868,24.259C199.936,237.137,209.014,238.389,215.196,236.745z M233.977,276.655
					c3.843-7.92,1.558-21.41-6.261-22.694c0.47,7.356-0.978,16.63,0.783,22.694C230.323,276.655,232.154,276.655,233.977,276.655z
					 M258.236,202.313c8.232-24.149-34.104-38.854-44.604-21.129c-3.061,5.165-2.942,15.682-0.783,23.477
					C224.884,206.438,249.745,209.129,258.236,202.313z M256.671,277.438c0.907-5.243-1.644-7.355-7.043-6.26
					C234.626,274.229,254.503,289.935,256.671,277.438z M300.493,264.917c1.369-12.896-8.78-29.322-15.651-46.953
					c-6.55-16.809-11.354-35.684-19.563-46.953c-12.372-16.981-46.373-21.512-62.604-5.478
					c-10.877-12.286-45.106-14.336-56.343-0.783c-13.006,21.285-23.155,48.815-32.867,72.776c-3.357,8.28-7.466,17.991-6.261,26.607
					c5.541,2.065,5.861-5.165,7.043-7.826c5.337-12.043,10.048-24.368,14.869-36.779c8.373-21.567,15.956-57.321,43.822-57.908
					c13.835-0.29,20.565,11.91,33.65,10.173c7.606-1.009,15.009-9.938,25.823-10.173c10.65-0.235,17.036,4.719,25.042,10.956
					c11.44,21.575,20.534,47.947,29.736,71.211C290.093,251.121,291.565,262.452,300.493,264.917z M278.582,127.972
					c5.329,14.767,0.517,30.167,3.13,49.3c1.831,13.405,10.486,27.631,15.651,42.257c1.987,5.627,4.922,13.405,7.825,21.129
					c2.41,6.425,8.702,15.463,8.607,20.346c-0.273,14.704-32.413,29.761-43.822,34.433
					c-59.458,24.337-149.364,10.572-176.855-33.649c10.361-23.907,17.975-48.558,28.171-74.342c1.463-3.693,4.132-6.151,4.695-9.391
					c2.653-15.173-1.581-29.283,0.783-41.475c5.274-27.201,26.974-46.663,57.908-49.3C232.67,83.187,266.946,95.699,278.582,127.972
					z"/>
			</g>
			<g>
			</g>
		</g>
	</g>
</g>
<g id="Layer_5_1_" display="none">
	<g id="wC95k9_1_" display="inline">
		<g id="XMLID_2_">
			<g>
				<path fill="#EAEAEA" d="M271.419,200.5c6.751,7.938,13.473,11.706,12.9,23.25c-0.629,12.512-13.12,21.192-17.198,30.227
					c1.321,27.215-27.548,42.71-48.358,27.894c0-6.97,0-13.947,0-20.924c-4.298-9.176-11.691-1.428-18.273-8.137
					c-5.895,5.825-9.472,1.131-16.124,4.651c-2.333,5.994-0.48,16.527-1.074,24.409c-18.902,13.388-49.821,2.163-47.284-25.568
					c-11.19-12.625-29.159-41.501-6.447-54.643c0-10.461,0-20.923,0-31.385c2.276-4.892,5.853-8.391,8.596-12.788
					c41.699,0.898,84.317,0.184,126.815,0C273.236,165.212,271.525,183.726,271.419,200.5z M245.625,197.015
					c6.319-4.799,8.341-14.236,8.603-25.575c-15.41,0.771-33.676-1.548-47.291,1.159
					C219.364,181.245,226.306,195.828,245.625,197.015z M248.856,265.598c0.961-23.667-35.543,0.36-10.752,10.462
					C244.112,273.818,248.601,271.825,248.856,265.598z M229.508,223.75c1.024,7.782,7.415,4.623,12.894,5.811
					C241.193,224.287,234.448,224.994,229.508,223.75z M225.21,227.234c1.321-12.278-7.069-14.053-13.976-17.432
					c0.905,2.892,1.407,6.228,1.074,10.462C215.787,223.474,220.325,225.545,225.21,227.234z M206.937,219.099
					c1.647-2.113,1.647-9.508,0-11.621c-8.942-1.152-15.763-0.008-13.968,10.462C196.433,219.614,201.982,219.035,206.937,219.099z
					 M177.919,186.554c5.415-4.496,15.085-10.081,13.975-15.113c-14.689,0-29.378,0-44.067,0
					c-0.255,11.515,1.788,20.535,7.528,25.575C164.906,198.584,171.762,191.664,177.919,186.554z M175.77,227.234
					c7.444-2.41,15.983-3.633,13.975-16.272C181.15,212.129,175.969,216.985,175.77,227.234z M158.579,256.302
					c-20.952,9.847,16.216,32.892,12.894,6.97C170.653,256.86,164.828,253.361,158.579,256.302z M173.621,223.75
					c-5.697,0.424-11.353,0.897-13.968,4.651C163.103,229.709,172.674,228.889,173.621,223.75z"/>
				<path fill="#EAEAEA" d="M238.104,107.502c21.213,4.022,29.399,25.384,27.943,44.173c-38.604,0.226-85.555-0.063-130.039,0
					c-1.117-21.786,7.882-40.533,27.943-44.173C179.376,104.703,221.117,104.286,238.104,107.502z"/>
				<path fill="#EAEAEA" d="M211.235,257.461c6.984,1.357,5.14,22.034,2.149,26.734
					C207.043,281.665,210.698,263.745,211.235,257.461z"/>
				<path fill="#EAEAEA" d="M200.49,255.136c4.8,4.036,5.549,28.671,0,32.552c-6.263-5.055-2.552-23.744-2.149-32.552
					C199.055,255.136,199.776,255.136,200.49,255.136z"/>
				<path fill="#EAEAEA" d="M190.82,257.461c1.647,7.486,2.142,21.991-1.075,27.901c-7.069-4.758-2.623-17.001-2.149-27.901
					C188.671,257.461,189.745,257.461,190.82,257.461z"/>
			</g>
			<g>
			</g>
		</g>
	</g>
</g>
<g id="Layer_8" display="none">
	<g id="dDBRJe_1_" display="inline">
		<g id="XMLID_5_">
			<g>
				<path d="M240.5,274.648c2.823,2.685,10.433,2.893,12.486-0.693C249.587,270.688,243.205,270.542,240.5,274.648z M183.62,232.336
					c5.126,43.034,77.135,33.961,72.141-10.405c-2.157-19.173-16.897-30.75-37.458-33.295c-0.423,0.042-0.818,0.104-0.693,0.694
					c-5.723,0.52-10.35,2.136-15.261,3.468C189.427,200.809,181.456,214.162,183.62,232.336z M289.057,239.272
					c0.603,3.329,2.518,5.341,5.549,6.243c2.247-1.45,4.1-3.302,5.549-5.55C297.214,237.469,292.234,236.262,289.057,239.272z
					 M275.877,270.487c1.733,0.575,2.726,1.9,4.855,2.08c0.881-1.664,3.038-2.046,2.774-4.855c-1.318-1.456-1.887-3.662-4.855-3.468
					C277.48,266.082,277.049,268.648,275.877,270.487z M271.715,230.255c-1.062,2.872-3.579,4.287-2.774,9.018
					C275.578,244.593,278.194,231.628,271.715,230.255z M323.74,225.399c-2.019,52.544-27.205,81.928-65.897,97.806
					c-14.054-8.005-43.568,6.763-63.123-2.775c-2.435-4.272-3.378-10.03-4.162-15.954c-4.168,2.997-7.699,6.639-12.485,9.018
					c-16.912-2.497-32.269-17.486-19.423-33.988c-3.538,1.096-12.34,2.913-20.116,2.08c-23.883-37.853-45.004-78.466-67.979-117.228
					c3.281-6.201,7.936-11.022,11.099-17.341c17.341,9.711,32.692,21.413,49.25,31.908c4.294-5.189,7.728-11.237,12.486-15.954
					c-15.274-12.236-32.436-22.6-49.25-33.296c4.134-5.806,6.978-12.909,11.792-18.035c25.52,2.365,49.853,7.547,74.915,8.324
					c1.367-1.637-3.343-3.101-4.855-4.162c8.005-12.569,13.263-27.892,24.278-37.458c14.421,7.312,26.699,16.766,40.925,24.278
					c3.719,12.465,4.946,27.42,7.631,40.926c8.92-10.793,26.706-2.789,33.989,6.937c0,5.084,0,10.176,0,15.26
					c4.46-0.16,8.137-1.117,13.18-0.694c11.688,12.59,18.604,29.952,20.81,52.024C318.308,220.654,321.575,222.479,323.74,225.399z
					 M259.229,296.152c1.283-1.491,4.086-1.464,3.469-4.855c-1.603-3.129-7.824-4.059-7.63,1.387
					C256.219,294.071,256.933,295.909,259.229,296.152z M266.86,257.308c-1.27-7.048-11.362-1.443-6.243,3.468
					C263.287,260.207,266.79,260.478,266.86,257.308z"/>
				<path d="M245.356,234.417c-2.095,2.989-3.87,6.305-5.549,9.711c-25.541,24.729-65.315-10.835-42.313-37.457
					c3.621-3.08,7.651-5.758,12.486-7.631c19.554-4.758,30.084,5.521,36.07,16.647C245.765,223.429,244.156,228.208,245.356,234.417
					z"/>
				<path d="M191.251,72.794c-7.186,13.395-14.983,26.172-23.584,38.151C149.659,95.838,166.002,62.223,191.251,72.794z"/>
			</g>
			<g>
			</g>
		</g>
	</g>
</g>
<g id="Layer_1" display="none">
	<g id="_x30_WRF3t_1_" display="inline">
		<g id="XMLID_1_">
			<g>
				<path fill="#F2F2F2" d="M273.818,198.775c4.173,18.327,5.012,43.317,7.042,61.837c-9.085,6.13-19.067,10.397-28.757,15.156
					c-9.707,4.766-19.496,10.828-32.278,11.52C219.713,241.498,236.944,208.378,273.818,198.775z"/>
				<path fill="#F2F2F2" d="M269.122,179.981c0.088,5.559-6.667,6.396-10.563,7.275c-14.226,3.213-30.734,4.965-44.603,7.881
					c-1.673,30.027,0.146,61.686,0,92.15c-8.41,0-16.826,0-25.236,0c-0.687-28.804,0.458-60.953,0-91.544
					c-13.275-3.358-29.35-5.438-44.603-8.487c-3.832-0.764-10.693-0.794-11.15-6.062c1.426-3.28,7.248-1.716,9.977-1.819
					C182.148,177.914,231.175,179.12,269.122,179.981z"/>
				<path fill="#F2F2F2" d="M195.763,109.05c39.004-3.298,70.296,18.836,72.772,56.988c-41.709,0.794-91.417,1.14-134.981,0
					C135.755,129.753,162.041,111.899,195.763,109.05z M219.239,135.119c-0.799,15.12,27.359,15.071,24.062-0.606
					C237.103,141.696,226.029,140.532,219.239,135.119z"/>
				<path fill="#F2F2F2" d="M127.099,198.169c37.625,10.039,54.562,41.443,55.753,89.119c-13.75-0.267-24.643-7.894-35.212-12.731
					c-9.443-4.322-18.51-8.73-26.41-13.944c1.778-16.351,2.142-34.162,4.695-49.712c-3.416,1.357-8.046-2.316-10.564-5.457
					c-0.17-13.155-4.114-35.332,5.869-40.012c-0.804-15.38,1.978-27.057,1.174-42.438c-2.512-2.255-6.796-2.68-11.737-2.425
					c-1.303-2.467-2.418-5.662-1.174-9.094c8.034-4.705,27.642-4.177,35.799,0c0.305,3.486,0.71,6.142-1.174,8.488
					c-4.619,1.691-13.169-0.667-17.019,1.819C123.97,145.982,128.554,170.76,127.099,198.169z"/>
			</g>
			<g>
			</g>
		</g>
	</g>
</g>
<g id="Layer_9" display="none">
	<g id="fC6H6I_1_" display="inline">
		<g id="XMLID_7_">
			<g>
				<path d="M347.046,137.378c0.483,6.045-6.526,10.815-10.41,14.952c-1.104-11.837-2.208-23.674-2.839-35.979
					C334.606,120.197,346.632,132.171,347.046,137.378z"/>
				<path d="M336.636,299.983c4.17,2.268,5.925,6.921,6.625,12.615c2.593,2.735,6.792,3.885,10.41,5.607
					c0.827,3.086,0.354,7.438,0.473,11.214c2.8,2.843,5.964,5.325,7.571,9.346c-17.527,0.029-38.723,1.538-57.729,0.467
					c-2.169-0.126-5.372,0.964-6.151-1.869c0.77-2.823,4.298-2.92,6.625-4.205c0.068-9.744,2.376-17.278,10.41-19.157
					c-0.257-4.926,1.479-7.885,1.893-12.148C322.52,300.684,330.988,299.701,336.636,299.983z"/>
				<path d="M296.889,246.716c7.285-1.859,16.01-4.73,23.186-5.14C322.086,255.613,299.452,259.215,296.889,246.716z"/>
				<path d="M295.943,244.38c-1.341-13.677,18.612-16.13,23.186-6.074C312.868,241.781,304.095,242.773,295.943,244.38z"/>
				<path d="M346.1,300.45c-2.967,4.167-6.27-1.489-10.41-2.336c-6.9-1.411-14.294,1.703-20.819,2.336
					c-1.479,2.901-1.292,7.447-3.786,9.346c-4.988-0.458-0.522-6.669-1.419-10.28c-0.553-1.635-3.51-0.896-4.259-2.336
					c5.48-16.753-3.382-27.675-6.151-42.521c7.738,4.653,19.607,1.538,21.767-6.074c7.541,9.842,5.382,29.262,17.034,35.044
					c-0.168,2.639-1.528,4.099-2.366,6.074C338.135,294.298,344.286,295.232,346.1,300.45z"/>
				<path d="M279.381,179.899c7.443-1.84,15.95-2.628,24.133-3.738C307.102,190.578,280.495,194.286,279.381,179.899z"/>
				<path d="M278.908,177.095c-1.341-14.251,22.357-16.072,24.132-3.271C295.519,175.139,286.144,177.056,278.908,177.095z"/>
				<path d="M316.763,230.362c-4.15,0.39-7.512-1.665-11.83-0.935c-5.422,0.915-7.235,5.948-10.41,7.009
					c-2.928-15.955-7.876-29.914-10.409-46.258c6.713,3.67,16.601,0.915,19.4-4.672C308.62,199.776,313.923,213.853,316.763,230.362
					z"/>
				<path d="M268.971,154.667c22.24,0,44.479,0,66.719,0c-0.946,9.812-1.902,19.615-5.678,26.633
					c-5.886,2.619-15.083,4.4-20.82,5.607c-4.288-9.618-2.573-22.253-14.195-24.297c-10.765-1.889-19.884,5.013-18.454,16.821
					c0.453,3.757,3.263,5.529,3.312,8.878c-12.233,0.817-24.172-6.629-36.435-8.878c2.967-1.587,8.428-0.711,12.775-0.935
					C261.134,171.226,264.289,162.192,268.971,154.667z"/>
				<path d="M274.176,240.642c-8.379-2.161-15.989-5.081-23.658-7.943C254.963,221.387,277.134,225.836,274.176,240.642z"/>
				<path d="M249.571,235.035c8.498,2.044,15.921,5.149,23.659,7.943C269.208,255.272,244.76,250.017,249.571,235.035z"/>
				<path d="M247.678,243.913c3.165,10.094,21.757,11.584,26.498,1.868c3.431,11.564-3.46,33.321,6.625,38.315
					c-0.769,2.2-2.771,3.183-3.785,5.14c2.375,4.352,5.895,7.573,5.205,14.952c-6.428,2.19-7.414-3.903-8.991-7.943
					c-6.309,0-12.618,0-18.927,0c-4.338,2.726-5.274,8.819-12.776,8.41c-2.721-4.633,2.031-8.099,3.312-11.681
					c0.138-1.947-2.74-3.193-2.839-5.607c-0.148-3.388,4.308-5.412,5.205-8.878C249.926,267.928,244.74,254.436,247.678,243.913z"/>
				<path d="M250.044,227.092c5.885-12.256,5.747-30.459,15.615-38.782c4.662,1.625,10.153,2.434,13.722,5.14
					c0.927,4.964,5.018,8.615,5.205,13.551c0.158,4.215-2.957,9.5-4.259,14.484c-1.351,5.208-1.577,10.338-3.312,14.952
					c-2.751-5.286-5.541-11.584-12.776-12.616C258.739,223.032,255.151,225.641,250.044,227.092z"/>
				<path d="M249.571,312.132c0.76-5.48,1.292-11.185,4.259-14.485c5.521,0,11.041,0,16.562,0c3.963,2.317,4.811,7.71,5.679,13.084
					c6.102,2.54,8.319,8.916,7.098,18.689c2.425,1.811,7.245,1.256,6.624,6.074c-18.77,0-37.539,0-56.309,0
					c0.168-3.884,4.042-4.107,6.151-6.074c0.621-4.37,1.449-8.537,2.366-12.615C244.533,315.257,246.751,313.397,249.571,312.132z"
					/>
				<path d="M227.805,173.357c0.473,0,0.946,0,1.419,0c1.104-2.813,0.158-7.632,0.474-11.214c-0.946,0-1.893,0-2.839,0
					C227.449,165.608,225.656,171.43,227.805,173.357z M233.483,173.357c0.474,0,0.946,0,1.42,0
					c1.104-2.813,0.157-7.632,0.473-11.214c-0.946,0-1.893,0-2.839,0C233.128,165.608,231.334,171.43,233.483,173.357z
					 M240.108,173.357c0.473,0,0.946,0,1.419,0c1.095-2.813,0.158-7.632,0.474-11.214c-0.946,0-1.893,0-2.839,0
					C239.752,165.608,237.958,171.43,240.108,173.357z M245.313,173.357c0.946,0,1.893,0,2.839,0
					c1.045-2.862,0.197-7.593,0.473-11.214c-1.104,0-2.208,0-3.312,0C245.313,165.881,245.313,169.619,245.313,173.357z
					 M144.525,155.602c0-20.092,0-40.184,0-60.276c6.822-2.502,13.722-5.831,21.293-8.878c11.761-4.741,23.797-7.086,29.337-17.288
					c9.729-0.224,22.377,0,35.962,0c10.833,0,23.027-1.674,30.756,0c3.727,0.808,5.758,5.12,8.991,7.009
					c4.11,2.404,9.788,4.01,14.668,6.074c13.969,5.918,30.313,12.665,44.006,18.223c1.193,17.201,2.523,34.266,3.312,51.865
					c-21.924,0-43.848,0-65.772,0c-4.515,7.223-7.975,15.488-12.303,22.896c-12.934,0-25.867,0-38.801,0
					c-1.064-8.576-5.106-11.156-12.303-14.952c-2.603-1.373-6.802-4.118-9.463-4.672
					C180.516,152.73,159.381,157.772,144.525,155.602z"/>
				<path d="M183.799,181.768c3.963-13.443-9.355-23.801-23.186-18.223c-0.522-1.908,2.849-3.621,4.259-5.14
					c9.897,0.954,18.71-2.249,26.971-0.935c7.177,1.139,12.283,8.293,18.454,9.812c1.025,3.816,2.957,6.736,4.259,10.28
					c5.362,0,10.726,0,16.088,0c-5.195,5.179-14.6,6.279-23.186,7.943c-8.764,1.704-18.415,3.358-26.972,3.271
					C180.033,185.837,183.05,184.299,183.799,181.768z"/>
				<path d="M181.433,181.3c-3.627,13.2-28.736,8.158-24.605-7.009C165.897,175.771,173.29,178.916,181.433,181.3z"/>
				<path d="M143.106,224.755c3.726-13.608,8.468-26.215,12.302-39.716c3.756,4.964,12.549,9.384,20.82,5.607
					c-3.312,15.108-9.148,27.724-12.303,42.987C159.992,227.968,153.19,221.396,143.106,224.755z"/>
				<path d="M181.906,178.964c-8.419-1.966-15.891-4.867-24.132-7.009C161.412,159.077,185.849,164.693,181.906,178.964z"/>
				<path d="M200.36,273.35c-10.528,7.671-20.081,16.306-30.756,23.83c-1.045-1.616-2.494-2.833-3.312-4.673
					c0.315-1.869,1.173-3.202,1.893-4.672c-0.197-3.456-4.377-4.4-5.678-7.943c-2.327-6.338,0.571-14.836,0.473-21.961
					c3.825,1.83,6.674,4.623,9.937,7.009c6.911-6.922,13.476,0.633,17.035,5.14C195.067,269.738,199.276,268.988,200.36,273.35z"/>
				<path d="M172.443,251.855c-1.922,2.521-5.865,5.686-9.463,3.738C159.617,243.28,169.948,243.475,172.443,251.855z"/>
				<path d="M161.559,242.511c-8.399-2.453-16.798-4.906-24.605-7.943C141.173,221.99,165.995,227.851,161.559,242.511z"/>
				<path d="M136.008,237.371c7.946,1.052,16.976,5.032,25.079,7.476C157.321,258.018,131.424,253.199,136.008,237.371z"/>
				<path d="M132.222,304.655c-2.839-4.127,2.031-7.68,3.312-10.746c-0.463-2.19-2.375-2.95-2.839-5.14
					c0.808-3.242,2.563-5.568,4.259-7.943c0.522-10.641-1.183-20.803,0.473-29.904c4.791,4.585,16.521,4.867,21.766,0.467
					c1.981,8.294-2.12,19.147,0,26.634c1.075,3.806,4.101,4.857,5.678,7.943c-0.148,2.346-1.518,3.484-1.893,5.606
					c2.208,2.404,7.768,12.266,2.366,12.616c-3.342,0.214-2.642-4.975-4.259-7.477c-7.255,0-14.511,0-21.766,0
					C136.067,298.484,135.545,302.952,132.222,304.655z"/>
				<path d="M135.534,153.265c0-10.591,0-21.182,0-31.773c2.307,0.214,5.541-0.487,7.098,0.467c0,10.436,0,20.871,0,31.306
					C140.266,153.265,137.901,153.265,135.534,153.265z"/>
				<path d="M124.178,320.075c1.459-5.169,8.399-6.152,11.829-8.878c1.094-4.683,0.661-10.873,4.259-13.083
					c8.281,0.545,20.012-2.317,21.766,4.673c-2.07,11.077,6.428,11.72,10.883,16.354c-0.158,3.504,0.227,8.692,0,10.747
					c1.854,2.842,8.379,1.07,8.044,6.074c-4.17,2.502-9.986,1.401-15.142,1.401c-15.28,0-32.669,0-48.264,0
					c-0.552-3.251,4.672-3.31,6.151-7.009C124.839,327.521,123.153,323.706,124.178,320.075z"/>
				<path d="M133.642,153.265c-2.366,0-4.732,0-7.098,0c0-10.124,0-20.248,0-30.372c-0.01-2.482,5.668-1.373,7.098-0.935
					C133.642,132.395,133.642,142.83,133.642,153.265z"/>
				<path d="M125.125,153.265c-2.524,0-5.047,0-7.571,0c0-10.591,0-21.182,0-31.773c2.455,0.224,5.875-0.506,7.571,0.467
					C125.125,132.395,125.125,142.83,125.125,153.265z"/>
				<path d="M105.724,218.681c5.708-4.644,12.795-7.924,20.347-10.747C131.463,222.068,110.18,227.997,105.724,218.681z"/>
				<path d="M103.831,215.877c-3.834-12.956,13.762-19.352,20.82-10.746C118.5,209.491,111.698,213.21,103.831,215.877z"/>
				<path d="M133.642,263.537c-3.766-2.998-4.052-7.534-6.151-11.214c-2.691-4.712-6.615-9.199-9.937-13.551
					c-3.253-4.264-8.083-8.079-8.991-14.018c22.022,9.618,29.524-27.422,5.205-26.633c3.736-6.765,12.411-10.766,19.4-15.887
					c7.009-5.14,13.555-10.932,19.874-14.952c0.956-0.604,1.765-1.44,3.786-0.467c-3.52,3.845-2.711,7.535-3.312,14.018
					c-0.857,9.277-8.015,17.522-8.517,27.1c-3.007,3.417-8.991,3.895-11.356,7.943c0.621,3.952,5.205,4.226,5.678,7.943
					c0.522,4.108-3.618,6.951-5.205,10.747C133.918,244.321,135.653,254.815,133.642,263.537z"/>
				<path d="M45.157,146.256c-1.291,21.338,30.303,20.111,30.284,0.935c-0.01-9.549-8.853-15.799-18.454-14.018
					C49.761,134.517,45.581,139.189,45.157,146.256z M108.09,167.283c-7.413,0-14.826,0-22.239,0
					c-3.253,2.259-3.825,5.607-10.41,4.206c-1.833-0.39-3.47-2.804-3.786-2.804c-1.203,0.029-2.178,2.794-3.312,3.271
					c-4.771,2.024-9.69-0.672-15.142,0c-1.715-2.979-6.27-3.154-11.356-2.804c-1.913-0.292-1.567-2.813-3.312-3.271
					c-4.623-0.205-6.053,2.745-10.883,2.336c0.325-2.346-0.799-3.261-0.473-5.607c4.317-0.564,7.837-1.917,8.517-6.074
					c-2.05-0.925-6.881-0.574-8.991,0c0-1.558,0-3.115,0-4.673c2.317-0.204,4.072-0.963,6.625-0.934
					c-1.292-1.84-2.484-3.777-1.893-7.476c5.55-2.619,11.495-4.848,12.776-11.682c2.317-1.294,4.968-2.258,8.518-2.336
					c0.709-1.012,0.808-2.628,0.946-4.205c6.437-2.054,12.667-4.312,19.874-5.607c0.582,1.294,1.38,2.375,1.419,4.205
					c11.494-1.742,23.117-5.821,33.596-7.009c-0.01,1.548-0.897,2.881,0,4.673c1.43,1.08,4.88,0.165,7.098,0.467
					c0,10.436,0,20.871,0,31.306c-1.893,0-3.785,0-5.678,0c0.306,2.044,0.789,3.894,1.42,5.607c0.207,1.042,2.336,0.185,3.312,0.467
					c0.108,1.509-0.838,1.976-0.473,3.738c-1.893,0-3.786,0-5.678,0C107.489,163.574,108.386,166.018,108.09,167.283z
					 M78.753,142.051c4.258-0.312,9.779,0.623,13.249-0.467c-2.918-3.504-5.353-7.486-8.044-11.214c-4.889,0-9.779,0-14.668,0
					C72.02,134.682,77.599,136.181,78.753,142.051z M91.055,130.37c1.519,4.108,4.328,6.941,5.678,11.214
					c2.583,0.72,6.21,0.409,9.464,0.467c-0.079-4.127-0.266-8.148-0.946-11.682C100.519,130.37,95.787,130.37,91.055,130.37z
					 M98.627,147.658c0,2.181,0,4.361,0,6.542c2.523,0,5.047,0,7.571,0c0.956-1.392,0.266-4.41,0.473-6.542
					C105.133,147.113,101.495,148.009,98.627,147.658z"/>
				<path d="M56.987,135.042c10.479-2.249,16.226,3.913,16.562,11.681c0.729,16.792-27.888,19.235-26.498-0.467
					C47.434,140.834,50.53,136.425,56.987,135.042z"/>
			</g>
			<g>
			</g>
		</g>
	</g>
</g>
<g id="Layer_10" display="none">
	<g id="_x31_2AD1y_1_" display="inline">
		<g id="XMLID_8_">
			<g>
				<path d="M256.5,328.5c1.42-13.67,11.57-27.87,14-44c5.94-39.42-4.48-86.93,0-125c6.13-1.79,22.19-2.28,27,6
					c6.05,10.4,2,39.45,2,58c0,20.21-2.44,43.45,0,60c3.09,20.97,13.64,31.01,14,45C294.5,328.5,275.5,328.5,256.5,328.5z"/>
				<path d="M139.5,151.5c-2.82-39.08,18.4-66.39,49-71c47.26-7.13,78.15,25.16,74,71C223.83,152.98,180.92,150.56,139.5,151.5z
					 M218.5,119.5c7.39-33.15-31.97-33.54-35-12C180.4,129.59,209.22,135.87,218.5,119.5z M229.5,127.5c-0.94,4.7-1.1,8.8,2,13
					C255.55,145.62,244.04,114.46,229.5,127.5z"/>
				<path d="M235.5,228.5c5.54-28.52-42.47-11.3-64-16c-5.12,1.47-6.25,10.26-4,16C187.89,230.18,215.111,230.13,235.5,228.5z
					 M224.5,195.5c12.92-1.76,15.62-8.71,10-17c-19.72-2.28-43.63-0.37-65-1C148.58,198.17,198.96,198.97,224.5,195.5z M139.5,231.5
					c-2.08,1.12-2.12,1.08-1-1c0-23.67,0-47.33,0-71c39.34-2.33,83-0.34,124-1c3.44,29.48,2,60.51,2,94c0,9.41,2.63,22.42,0,31
					c-0.61,2-11.84,16.04-19,18c-10.32,2.83-28.87,0-44,0c-16.05,0-33.84,2.45-44,0c-7.38-1.78-18.01-14.12-19-18
					c-1.42-5.55,1-10.43,1-15C139.5,257.62,137.52,247.01,139.5,231.5z"/>
				<path d="M90.5,328.5c1.88-14.2,11.09-24.91,14-43c2.61-16.23,0-40.3,0-61c0-32.65-8.14-75.82,29-65
					c-1.59,33.89-0.89,69.74-2,101c-0.86,24.28,7.91,45.62,13,68C126.5,328.5,108.5,328.5,90.5,328.5z"/>
			</g>
			<g>
			</g>
		</g>
	</g>
</g>
<g id="Layer_11" display="none">
	<g id="k1zCIw_1_" display="inline">
		<g>
			<g>
				<path fill-rule="evenodd" clip-rule="evenodd" d="M211.19,77.278c-1.85,6.921,0.304,17.845-1.646,24.667
					c-2.438,1.201-9.652-1.281-13.155,0.822c-4.059-4.786-4.091-17.732-2.466-25.489C197.968,75.94,207.143,75.94,211.19,77.278z"/>
				<path fill-rule="evenodd" clip-rule="evenodd" d="M187.344,81.389c-0.045,3.792,0.365,8.039-0.822,10.689
					c-51.284,12.494-74.729,62.125-74.822,125.8c-0.052,35.455,10.122,66.061,24.667,89.622c-9.319,0-18.637,0-27.956,0
					c1.731-27.221-2.622-48.357-7.4-69.066c-2.448-2.211-6.778-2.541-9.044-4.934c0-7.126,0-14.252,0-21.378
					c10.608-1.468,11.125-12.572,0-13.978c0-7.4,0-14.8,0-22.2c1.765-1.524,6.023-0.555,9.044-0.822
					c7.528-13.106,9.412-28.047,16.444-41.111c6.727-12.496,14.084-23.656,23.844-32.889c10.821-8.09,22.511-15.312,36.178-20.556
					C181.366,80.242,184.34,80.83,187.344,81.389z"/>
				<path fill-rule="evenodd" clip-rule="evenodd" d="M301.633,173.478c3.279,1.929,9.568,0.847,12.334,3.289
					c0,6.578,0,13.156,0,19.733c-2.543,3.76-8.852,3.757-9.867,9.045c10.022,2.816,12.568,19.785,7.4,30.422
					c-1.333,1.682-6.067-0.037-7.4,1.645c-4.214,21.55-9.144,42.383-7.399,69.889c-9.319,0-18.637,0-27.955,0
					c7.77-15.412,17.634-31.187,20.555-50.978c0.37-2.503-0.491-5.578,0-8.223c0.816-4.396,3.54-8.337,4.111-13.155
					c1.361-11.488,1.73-27.011,0-40.289c-0.844-6.475-2.651-14.534-4.111-22.2c-2.223-11.668-6.989-24.621-12.333-34.534
					c-12.398-22.998-31.81-38.371-59.2-47.688c-0.405-2.884-1.227-5.353-0.822-9.045c39.018,1.153,70.78,39.927,80.578,75.645
					C299.073,162.689,297.903,169.524,301.633,173.478z"/>
				<path fill-rule="evenodd" clip-rule="evenodd" d="M263.811,290.233c-13.226,1.19-31.216,1.445-44.399,0
					c-0.992-2.846-1.791-5.884-1.645-9.867c-9.593,0-19.185,0-28.778,0c-3.196,1.464-2.126,7.192-4.111,9.867
					c-16.038,0.778-27.948,0.603-44.4,0.822c-7.615-14.311-11.589-32.262-15.622-50.155c-4.528-68.114,10.619-116.55,56.733-134.022
					c8.06,6.139,35.141,6.372,40.288,0c40.488,13.347,63.591,59.59,59.201,120.866c-0.417,5.818-2.979,12.289-3.289,18.089
					C277.002,260.472,271.07,278.224,263.811,290.233z M244.078,197.322c1.318,5.303,5.27,5.997,5.755,10.688
					c0.588,5.688-3.315,6.549-4.934,12.334c-1.56,5.582,0.309,10.213,0,16.444c6.015-0.839,9.002-4.703,12.334-8.223
					c-0.661-12.471-4.945-24.93,0-36.178c-1.856-5.818-6.919-8.429-12.334-10.688C243.081,186.25,247.172,191.119,244.078,197.322z
					 M147.878,189.1c1.664,9.427,0.454,27.759,0.822,41.111c3.705,2.873,6.38,6.775,13.155,6.578
					c1.49-12.206-2.259-20.396-7.4-27.956c8.775-4.271,5.764-15.283,7.4-26.311C155.313,182.832,152.55,186.919,147.878,189.1z
					 M164.323,183.344c-0.52,4.961-1.166,9.798-0.822,15.623c18.363,10.775-6.409,19.823,0.822,37.822
					c5.07-0.411,8.394-2.569,12.333-4.111c0.213-14.022-1.017-32.388,0-46.044C173.518,184.563,169.91,182.964,164.323,183.344z
					 M226.811,230.211c4.054,2.252,6.595,6.014,12.334,6.578c2.088-10.105-0.369-19.731-4.934-27.956
					c6.235-6.8,6.311-17.139,5.756-25.489C217.403,184.984,232.86,211.35,226.811,230.211z M181.589,225.277
					c7.628-6.855,6.344-26.51-1.645-32.889C182.306,201.538,179.201,216.154,181.589,225.277z M147.056,226.1
					c-2.983-8.803,1.877-25.446-2.467-32.889C137.313,197.905,136.635,227.296,147.056,226.1z M224.344,226.922
					c-1.548-11.675,0.914-25.22-0.821-32.889C216.87,199.572,215.827,222.657,224.344,226.922z M259.7,225.277
					c8.25-4.126,7.836-26.931,0-31.244C260.124,204.691,260.378,214.674,259.7,225.277z M189.811,252.411
					c5.448-1.678,7.534-6.719,14.8-6.578c4.05,1.446,8.321,7.009,12.333,5.756c-6.239-3.627-10.285-9.448-14.8-14.8
					C198.785,242.747,192.8,246.081,189.811,252.411z"/>
				<path fill-rule="evenodd" clip-rule="evenodd" d="M147.878,298.455c31.077-0.698,79.33,0.411,109.355-0.821
					c-14.736,14.589-30.962,27.69-60.022,27.955C179.171,318.141,161.38,310.442,147.878,298.455z"/>
			</g>
		</g>
	</g>
</g>
<g id="Layer_6" display="none">
	<g id="Te7uNE_1_" display="inline">
		<g id="XMLID_4_">
			<g>
				<path d="M170.863,317.521c0-6.8,0-13.6,0-20.398c-10.992-12.219-9.84,17.08-7.061,22.36
					C166.965,320.496,169.4,319.295,170.863,317.521z M192.047,285.354c0.916-17.521,0.131-36.744,0.393-54.92
					c-1.888-2.288-5.255-3.425-7.846-1.177c-1.544,17.023-0.801,38.428-0.392,56.097
					C185.983,287.658,190.306,287.83,192.047,285.354z M202.639,204.15c0-19.876,0-39.752,0-59.628
					c-2.166-0.18-6.383-1.177-7.846,0.392c0,19.746,0,39.491,0,59.236C197.408,204.15,200.023,204.15,202.639,204.15z
					 M212.446,256.717c0-8.688,2.093-22.867-0.784-27.068c-2.289-3.342-6.481-1.397-8.238,0.785
					c0.262,18.176-0.523,37.398,0.393,54.92c2.198,2.901,7.004,1.97,8.63-0.784C212.446,277.573,212.446,267.84,212.446,256.717z
					 M232.452,319.483c3.098-6.727,3.629-32.274-7.062-22.753C225.98,305.271,220.7,322.425,232.452,319.483z M308.164,245.732
					c0,11.147,1.218,22.336-1.569,30.207c-7.135,4.829-19.156-0.106-27.853,1.961c-3.236,0.769-6.652,4.454-10.199,6.276
					c-8.386,4.308-17.809,7.495-27.46,9.415c-0.613,15.332,3.686,34.342-10.592,35.307c-14.589,0.98-13.15-16.133-12.161-30.991
					c-12.733,0.687-28.229,1.16-40.014,0.393c-1.226,13.403,2.795,29.536-10.2,30.599c-15.757,1.291-13.027-17.318-12.945-33.737
					c-12.708-3.122-24.232-6.293-34.129-11.769c-3.473-1.921-6.857-4.961-9.807-5.492c-5.606-1.005-12.529,1.512-17.653-0.784
					c-6.53-2.926-4.707-17.67-4.707-28.245c0-33.778-0.319-67.842,0.392-99.642c2.223,0,4.446,0,6.669,0
					c0.916,29.16,0.131,60.021,0.392,89.834c7.47-0.311,14.074,1.798,21.184,0.393c4.454-0.883,9.309-4.978,13.73-6.669
					c5.435-2.076,11.482-2.738,16.083-4.707c3.089-1.324,5.95-4.528,9.023-6.669c3-2.093,6.326-4.528,9.807-5.885
					c5.198-2.026,9.521-1.831,13.73-4.707c0.482-39.352,0.809-80.42,5.492-115.333c2.207-16.436,4.348-32.527,10.592-43.544
					c0.916,0,1.831,0,2.746,0c2.575,2.436,4.364,5.729,5.492,9.023c8.41,24.477,8.32,56.49,10.592,88.265
					c0.564,7.87,0.842,16.435,0.785,25.106c-0.073,11.54,2.288,24.902,1.177,38.837c3.694,1.25,7.151,1.896,10.592,3.53
					c5.893,2.795,10.592,8.557,15.691,10.984c4.553,2.174,10.56,2.95,16.084,5.1c4.691,1.822,9.881,5.844,14.515,6.669
					c8.9,1.586,17.22-1.152,27.46,0c0.516-29.953-1.037-61.786,0.785-90.227c2.092,0,4.185,0,6.276,0
					C308.164,179.321,308.164,214.325,308.164,245.732z"/>
			</g>
			<g>
			</g>
		</g>
	</g>
</g>
<g id="Layer_7" display="none">
	<g id="tZx3Bj_2_" display="inline">
		<g id="XMLID_6_">
			<g>
				<path d="M300.556,213.653c-0.045,2.334,0.695,5.578,0.303,7.59c-0.474,2.416-3.75,4.301-4.25,6.375
					c-0.854,3.536,0,9.089,0,13.662c0,13.104-0.803,26.52-0.607,39.163c0.203,13.149-0.082,25.697-1.518,37.948
					c-0.437,3.7,0.063,7.926-2.429,10.93c-3.466-15.647-3.074-35.608-3.946-58.896c-0.367-9.734-0.342-21.043-0.607-32.181
					c-0.089-3.731,0.367-8.405-0.304-10.626c-0.646-2.131-4.231-4.035-6.072-5.464c-1.985-1.544-4.699-4.124-6.679-4.555
					c-2.498-0.544-6.229,0.405-9.411,0.911c-8.146,1.29-18.316,2.973-25.806,4.554c-8.475,12.511-18.961,21.182-36.734,23.073
					c-2.004,0.215-3.371,0.228-5.768,0c-14.338-1.348-25.515-7.362-32.181-15.483c-1.98-2.41-3.188-6.755-6.072-8.804
					c-3.182-2.259-9.209-2.688-13.662-3.947c-4.87-1.379-9.247-3.004-12.751-3.946c-5.515,2.276-10.752,4.832-16.09,7.286
					c-2.751,36.007-3.295,74.222-8.197,108.078c-2.043-3.396-1.815-7.761-2.125-11.84c-1.632-21.41-1.025-45.652-0.304-68.611
					c0.139-4.352-0.196-9.298,0-13.966c0.183-4.339,1.271-9.278,0.607-12.447c-0.639-3.061-5.028-4.743-5.768-7.59
					c-0.848-3.275,0-7.899,0-11.84c0-4.199-0.645-8.848,0-11.84c0.683-3.144,4.263-4.965,4.857-7.59c0.658-2.909,0-9.177,0-13.358
					c0-12.75-0.341-26.482,0.304-40.074c1.101-23.345-0.158-46.646,3.339-64.058c1.651,1.815,1.6,4.661,1.822,6.982
					c1.334,13.94,1.613,29.587,2.125,45.842c0.208,6.672,0.911,13.598,0.911,20.34c0,6.938-0.335,14.256,0,21.251
					c0.335,7.04-0.405,14.478,0.607,20.644c0.5,3.049,2.637,4.833,3.643,7.894c4.965,1.815,10.056,3.504,14.876,5.464
					c8.608-1.714,16.033-4.61,25.198-5.768c6.255-10.202,14.003-17.741,26.716-22.466c22.004-8.184,47.676,4.693,55.253,22.466
					c8.058,0.98,17.83,4.124,26.413,6.375c3.017,0.791,6.761,1.923,9.107,1.821c4.326-0.189,7.545-5.844,11.536-7.893
					c0.127-38.056,0.209-76.505,2.732-111.721c0.253-3.523,1.062-7.432,1.821-10.929c0-0.304,0-0.607,0-0.911
					c0.493-0.082,0.525,0.285,0.911,0.304c2.809,17.349,2.511,37.803,3.036,58.29c0.43,16.862,0.606,36.159,0.606,54.646
					c0,2.448-0.664,5.769-0.303,7.286c0.632,2.65,4.294,2.809,5.16,5.769C300.942,199.846,300.689,207.126,300.556,213.653z
					 M215.55,220.028c13.819-12.086,7.388-37.676-11.84-40.074c-1.974-0.247-5.895,0.139-6.982,0.304
					c-12.245,1.828-21.739,13.82-18.519,27.93c1.429,6.256,6.122,11.967,11.84,14.876
					C197.841,227.036,209.188,225.595,215.55,220.028z"/>
				<path d="M216.765,189.062c3.864,3.017,5.705,8.058,5.464,15.18c-3.402-0.431-6.451,0.088-9.411-0.304
					c0.576-4.118-1.17-5.914-1.821-8.804C212.306,193.471,214.702,190.916,216.765,189.062z"/>
				<path d="M222.229,205.456c-0.81,5.667-3.44,9.513-6.375,13.055c-2.72-1.632-4.49-4.212-6.679-6.375
					c1.303-2.139,2.973-3.909,3.643-6.68C215.506,205.178,219.611,204.805,222.229,205.456z"/>
				<path d="M216.157,187.848c-2.087,2.264-4.067,4.636-6.679,6.375c-2.119-1.929-4.693-3.403-8.197-3.947c0-3.036,0-6.072,0-9.108
					C208.074,181.561,212.805,184.015,216.157,187.848z"/>
				<path d="M207.353,212.742c2.923,1.733,5.281,4.029,6.983,6.982c-3.517,2.252-7.198,4.339-13.055,4.251c0-3.036,0-6.072,0-9.108
					C203.198,214.836,205.772,213.988,207.353,212.742z"/>
				<path d="M199.763,191.188c7.836-0.5,14.693,8.406,10.929,16.394c-1.157,2.454-5.256,5.901-7.59,6.376
					c-8.032,1.632-16.514-5.307-13.662-15.18C190.352,195.627,194.058,191.548,199.763,191.188z"/>
				<path d="M199.763,214.867c0,3.036,0,6.072,0,9.108c-5.724-0.045-9.841-1.695-13.054-4.251c1.221-3.029,4.225-4.275,6.072-6.679
					C195.362,213.4,196.696,215,199.763,214.867z"/>
				<path d="M199.763,181.169c0,3.036,0,6.072,0,9.108c-2.802,0.253-6.268,1.866-8.5,3.643c-2.505-1.645-4.396-3.902-6.375-6.072
					C187.885,183.661,192.939,181.53,199.763,181.169z"/>
				<path d="M190.049,195.438c0.069,1.315-1.689,2.498-2.125,3.947c-0.569,1.885,0.31,3.289-0.911,4.857
					c-3.017,0.184-5.521-0.728-8.197,0c-0.86-6.332,1.752-11.796,4.554-15.483C185.084,189.518,189.96,193.856,190.049,195.438z"/>
				<path d="M187.924,205.152c0.544,2.998,2.106,4.978,3.946,6.68c-1.847,2.605-4.073,4.832-6.679,6.679
					c-3.099-3.479-5.939-7.217-6.375-13.358C182.313,204.938,184.945,205.646,187.924,205.152z"/>
			</g>
			<g>
			</g>
		</g>
	</g>
</g>
</svg>
